<svg width="473" height="520" viewBox="0 0 473 520" fill="none" xmlns="http://www.w3.org/2000/svg" xmlns:xlink="http://www.w3.org/1999/xlink">
<style>.Group_77 {
	animation: 1s linear 0s 1 normal forwards running Group_77;
		transform: translateX(0px) translateY(1.4210854715202004e-14px) rotate(0deg);
}
@keyframes Group_77 {
	0% {
		transform: translateX(0px) translateY(1.4210854715202004e-14px) rotate(0deg);
	}
	100% {
		transform: translateX(0px) translateY(1.4210854715202004e-14px) rotate(-360deg);
	}
}.Vector_14 {
	animation: 1s linear 0s 1 normal forwards running Vector_14;
		opacity: 0;
}
@keyframes Vector_14 {
	0% {
		opacity: 0;
	}
	100% {
		opacity: 1;
	}
}.Group_86_645 {
	animation: 1s linear 0s 1 normal forwards running Group_86_645;
		opacity: 0.5;
}
@keyframes Group_86_645 {
	0% {
		opacity: 0.5;
	}
	100% {
		opacity: 1;
	}
}.Group_85_148 {
	animation: 1s linear 0s 1 normal forwards running Group_85_148;
		transform: translateX(0px) translateY(0px) rotate(0deg);
}
@keyframes Group_85_148 {
	0% {
		transform: translateX(0px) translateY(0px) rotate(0deg);
	}
	100% {
		transform: translateX(0px) translateY(0px) rotate(-360deg);
	}
}.Vector_345 {
	animation: 1s linear 0s 1 normal forwards running Vector_345;
		opacity: 0;
}
@keyframes Vector_345 {
	0% {
		opacity: 0;
	}
	100% {
		opacity: 1;
	}
}.cog_210 {
	animation: 1s linear 0s 1 normal forwards running cog_210;
		transform: translateX(0px) translateY(-7.105427357601002e-15px) rotate(0deg);
}
@keyframes cog_210 {
	0% {
		transform: translateX(0px) translateY(-7.105427357601002e-15px) rotate(0deg);
	}
	50% {
		transform: translateX(0px) translateY(-7.105427357601002e-15px) rotate(-360deg);
	}
	100% {
		transform: translateX(0px) translateY(-7.105427357601002e-15px) rotate(-360deg);
	}
}
</style>
<g clip-path="url(#clip_0_742)" width="473" height="520" data-name="about">
	<g transform="translate(-0.31 -67)" width="473.26" height="815.4" data-name="Group">
		<path d="M473.257 0.281006H0.583008V44.665H473.257V0.281006Z" fill="#C5E1F9" data-name="Vector" transform="translate(0.58 542.28)"/>
		<g transform="translate(183.56 559.12)" width="106.72" height="11.41" data-name="Group">
			<path d="M5.704 11.408C8.85423 11.408 11.408 8.85423 11.408 5.704C11.408 2.55377 8.85423 0 5.704 0C2.55377 0 0 2.55377 0 5.704C0 8.85423 2.55377 11.408 5.704 11.408Z" fill="#7EB3FF" data-name="Vector"/>
			<path d="M3.48899 6.90798L0.289035 3.66896L3.49607 0.496965L4.19602 1.20802L1.69602 3.67702L4.19602 6.20497L3.48899 6.90798Z" fill="white" data-name="Vector" transform="translate(3.29 2.5)"/>
			<g transform="translate(20.6 3.34)" width="65.1" height="5.68" data-name="Group">
				<path d="M0 5.67014V9.95643e-05H2.3999C2.64869 -0.00266376 2.89475 0.0521278 3.1189 0.160134C3.33551 0.265192 3.52953 0.411638 3.68994 0.591164C3.85085 0.769737 3.97929 0.975128 4.06909 1.1981C4.15845 1.41611 4.20432 1.6495 4.2041 1.88511C4.20475 2.20205 4.12806 2.51441 3.98096 2.79514C3.83692 3.07569 3.62564 3.31614 3.36597 3.49509C3.09299 3.67952 2.76928 3.77425 2.43994 3.76609H1.0979V5.66612L0 5.67014ZM1.1001 2.80308H2.37793C2.5063 2.80478 2.63206 2.76597 2.73706 2.69212C2.84976 2.60954 2.93778 2.4979 2.99194 2.36912C3.05958 2.21717 3.09378 2.0524 3.09204 1.88609C3.09672 1.71316 3.05952 1.54166 2.98389 1.38609C2.92152 1.25798 2.82474 1.14989 2.7041 1.07407C2.59206 1.00708 2.46354 0.972491 2.33301 0.974099H1.10303L1.1001 2.80308Z" fill="#0561FC" data-name="Vector"/>
				<path d="M0.774071 5.67013V8.31347e-05H3.28091C3.53096 -0.00243603 3.77841 0.0523281 4.00405 0.160117C4.22226 0.264461 4.41763 0.41097 4.579 0.591148C4.73953 0.76925 4.86657 0.974818 4.954 1.19808C5.04094 1.4167 5.08581 1.64982 5.08608 1.88509C5.08633 2.12098 5.04431 2.35505 4.96206 2.57613C4.88341 2.79082 4.76274 2.98764 4.60708 3.15511C4.45449 3.31893 4.26963 3.44939 4.06411 3.53817L5.35806 5.67013H4.14394L2.97793 3.7701H1.87807V5.67013H0.774071ZM1.87392 2.80306H3.256C3.38876 2.80497 3.51815 2.76166 3.62295 2.68014C3.73406 2.59239 3.82206 2.47868 3.87905 2.34908C3.94589 2.20393 3.97988 2.04586 3.9789 1.88607C3.98249 1.7208 3.94413 1.55736 3.86709 1.41109C3.79905 1.28265 3.70159 1.17201 3.58291 1.0881C3.47486 1.01024 3.34524 0.96827 3.21206 0.968101H1.87807L1.87392 2.80306Z" fill="#0561FC" data-name="Vector" transform="translate(5.77 0)"/>
				<path d="M4.81489 4.70312V5.67017H0.877881V0.00012207H4.74287V0.967163H1.97993V2.33215H4.36787V3.2262H1.97993V4.70312H4.81489Z" fill="#0561FC" data-name="Vector" transform="translate(11.88 0)"/>
				<path d="M2.0629 0.00012207L3.5961 4.36121L5.11295 0.00012207H6.27091L4.12296 5.67017H3.06095L0.90494 0.00012207H2.0629Z" fill="#0561FC" data-name="Vector" transform="translate(16.9 0)"/>
				<path d="M1.5111 2.02917V5.67017H0.411003V0.00012207H1.28991L4.22009 3.73816V0.00915527H5.31994V5.67114H4.40197L1.5111 2.02917Z" fill="#0561FC" data-name="Vector" transform="translate(42.41 0)"/>
				<path d="M4.23809 4.70312V5.67017H0.301079V0.00012207H4.16607V0.967163H1.40289V2.33215H3.79107V3.2262H1.40289V4.70312H4.23809Z" fill="#0561FC" data-name="Vector" transform="translate(49.3 0)"/>
				<path d="M1.48898 0.00012207L2.89498 2.09216L4.29488 0.00012207H5.49508L3.53097 2.87512L5.43087 5.67517H4.23092L2.89791 3.66211L1.55587 5.67517H0.35006L2.24996 2.87512L0.286095 0.00012207H1.48898Z" fill="#0561FC" data-name="Vector" transform="translate(54.28 0)"/>
				<path d="M5.09702 0.967163H3.28403V5.66711H2.19004V0.967163H0.377048V0.00012207H5.09702V0.967163Z" fill="#0561FC" data-name="Vector" transform="translate(60.38 0)"/>
			</g>
			<g transform="translate(95.31 0)" width="11.41" height="11.41" data-name="Group">
				<path d="M5.704 11.408C8.85423 11.408 11.408 8.85423 11.408 5.704C11.408 2.55377 8.85423 0 5.704 0C2.55377 0 0 2.55377 0 5.704C0 8.85423 2.55377 11.408 5.704 11.408Z" fill="#7EB3FF" data-name="Vector"/>
				<path d="M0.915041 6.912L0.21509 6.20094L2.71509 3.73195L0.21509 1.204L0.926027 0.504045L4.12598 3.74306L0.915041 6.912Z" fill="white" data-name="Vector" transform="translate(4.21 2.51)"/>
			</g>
		</g>
		<g transform="translate(7.68 161.63)" width="442.8" height="653.76" data-name="Group">
			<g transform="translate(256.9 21.02)" width="175.04" height="175.04" data-name="Group 87">
				<g class="Group_77" width="175.04" height="175.04" data-name="Group">
					<path d="M5.80005 119.342L0 96.289L11.688 90.537C11.6683 87.1219 11.8801 83.7095 12.322 80.323L0.836182 74.223L7.34497 51.353L21.7251 52.311C23.217 49.6955 24.8647 47.172 26.6592 44.754L19.1011 32.666L36.1741 16.119L48.9441 24.659C51.3037 23.2592 53.7369 21.9874 56.2332 20.849L55.708 5.80002L78.7642 0L85.657 14.007C88.3478 13.9322 91.0408 14.0016 93.7241 14.215L100.824 0.83902L123.692 7.35101L122.687 22.462C125.227 23.7699 127.69 25.2213 130.065 26.809L142.384 19.109L158.934 36.181L151.091 47.896C152.863 50.5537 154.466 53.3201 155.891 56.179L169.244 55.71L175.044 78.764L163.67 84.364C163.941 87.9869 163.951 91.6247 163.699 95.249L174.208 100.835L167.702 123.699L156.402 122.95C154.662 126.596 152.632 130.097 150.332 133.418L155.945 142.394L138.874 158.943L130.274 153.182C126.7 155.585 122.93 157.682 119.004 159.451L119.349 169.251L96.2942 175.043L91.8701 166.055C87.5057 166.289 83.1293 166.143 78.79 165.62L74.228 174.203L51.3582 167.697L52.05 157.241C48.3384 155.273 44.7978 152.999 41.4651 150.441L32.665 155.941L16.105 138.876L22.5591 129.233C20.5792 125.936 18.8499 122.494 17.386 118.938L5.80005 119.342ZM76.8462 128.482C84.4436 130.644 92.5113 130.504 100.029 128.081C107.547 125.657 114.178 121.059 119.083 114.867C123.987 108.675 126.946 101.168 127.584 93.295C128.222 85.4219 126.511 77.5363 122.667 70.6355C118.824 63.7347 113.02 58.1286 105.991 54.5262C98.9611 50.9237 91.0209 49.4866 83.1746 50.3967C75.3282 51.3068 67.9281 54.5232 61.9097 59.6391C55.8913 64.755 51.5249 71.5407 49.363 79.138C47.9273 84.1824 47.4992 89.4602 48.1033 94.6701C48.7073 99.8799 50.3317 104.92 52.8835 109.502C55.4354 114.084 58.8649 118.118 62.9761 121.375C67.0873 124.632 71.7995 127.047 76.844 128.482H76.8462Z" fill="#C5E1F9" data-name="Vector"/>
					<g style="mix-blend-mode:multiply" data-name="Vector" transform="translate(30.41 32.7)">
					<path d="M73.487 2.892C84.4003 5.99839 94.1473 12.2712 101.496 20.9171C108.844 29.5631 113.463 40.1939 114.769 51.4652C116.076 62.7366 114.011 74.1422 108.835 84.2397C103.659 94.3372 95.6048 102.673 85.6914 108.193C75.7779 113.713 64.4502 116.17 53.1406 115.252C41.831 114.334 31.0477 110.084 22.154 103.037C13.2603 95.9908 6.65576 86.4654 3.17573 75.6654C-0.304295 64.8655 -0.503626 53.2762 2.60298 42.363C6.76944 27.7296 16.578 15.3503 29.871 7.94821C43.1641 0.546107 58.853 -1.27263 73.487 2.892V2.892ZM45.3339 101.792C53.9821 104.252 63.1656 104.093 71.7231 101.334C80.2806 98.575 87.8278 93.3404 93.4104 86.2921C98.9929 79.2439 102.36 70.6985 103.086 61.7366C103.812 52.7747 101.864 43.7988 97.489 35.9439C93.1136 28.089 86.5074 21.7079 78.5056 17.6075C70.5037 13.5072 61.4655 11.8717 52.5341 12.9079C43.6028 13.9442 35.1793 17.6056 28.3288 23.4292C21.4783 29.2527 16.5086 36.9769 14.048 45.625C12.4138 51.3673 11.9268 57.3753 12.6147 63.3059C13.3026 69.2365 15.1518 74.9735 18.0571 80.1892C20.9623 85.405 24.8666 89.9975 29.5468 93.7043C34.227 97.4111 39.5914 100.16 45.3339 101.793V101.792Z" fill="#EAF4FE" data-name="Vector"/>
					</g>
				</g>
			</g>
			<path d="M0.229202 42.0068C0.229202 42.0068 2.3932 47.6698 33.5002 56.2068C50.8792 60.9788 61.6273 64.3488 66.9643 58.4468C76.1093 48.3278 79.2644 5.70882 79.2644 5.70882L62.4511 0.475822C62.4511 0.475822 56.9513 29.7558 49.2963 33.9008C47.5063 34.8688 28.5162 31.9198 10.0222 24.6268C2.21317 21.5338 0.576202 39.8548 0.229202 42.0068Z" fill="#F49E00" data-name="Vector" transform="translate(247.23 29.48)"/>
			<path d="M28.4583 151.479C28.4583 151.479 -6.12179 145.806 1.49121 95.3309C9.10421 44.8559 3.32112 39.3158 15.3281 24.8428C41.8841 -7.16716 64.9731 1.80585 64.9731 1.80585L94.6052 12.1929C94.6052 12.1929 111.314 28.9079 110.905 40.5089C110.496 52.1098 105.053 92.3649 107.082 101.18C109.111 109.995 117.431 139.452 117.431 139.452L28.4583 151.479Z" fill="#F5AC00" data-name="Vector" transform="translate(171.39 44.65)"/>
			<g transform="translate(165.17 120.95)" width="277.62" height="220.34" data-name="Group">
				<path d="M277.624 0H0V220.338H277.624V0Z" fill="white" data-name="Vector"/>
				<path d="M277.624 0H0V26.255H277.624V0Z" fill="#9AC7F7" data-name="Vector"/>
				<path d="M0.366944 6.135C0.366548 7.17434 0.674367 8.19046 1.25147 9.05486C1.82856 9.91926 2.64906 10.5931 3.60913 10.9912C4.56921 11.3893 5.62582 11.4938 6.64526 11.2914C7.66471 11.0891 8.60122 10.5889 9.33643 9.85423C10.0716 9.11959 10.5725 8.18346 10.7756 7.16417C10.9788 6.14488 10.8752 5.08823 10.4778 4.12786C10.0804 3.16748 9.40717 2.34648 8.54321 1.76872C7.67925 1.19097 6.66336 0.882401 5.62402 0.882006C4.23055 0.88227 2.89415 1.43568 1.90845 2.42064C0.922741 3.4056 0.368269 4.74153 0.366944 6.135V6.135Z" fill="#387BFF" data-name="Vector" transform="translate(258.37 7.89)"/>
				<path d="M0.740982 6.135C0.742366 7.172 1.05118 8.18534 1.62819 9.04698C2.2052 9.90863 3.02457 10.58 3.98293 10.9761C4.94128 11.3723 5.99547 11.4755 7.01247 11.2728C8.02947 11.07 8.96359 10.5705 9.69679 9.83714C10.43 9.1038 10.9293 8.16961 11.1319 7.15257C11.3344 6.13554 11.2311 5.08125 10.8347 4.12297C10.4384 3.16469 9.7668 2.34539 8.90504 1.76854C8.04329 1.19169 7.02994 0.883193 5.99294 0.882006C4.59993 0.882271 3.26422 1.43585 2.27931 2.42095C1.2944 3.40605 0.740982 4.74199 0.740982 6.135V6.135Z" fill="#FBD260" data-name="Vector" transform="translate(241.74 7.89)"/>
				<path d="M0.110977 6.135C0.11157 7.17326 0.419925 8.18803 0.997208 9.05101C1.57449 9.914 2.39472 10.5865 3.35414 10.9833C4.31356 11.3802 5.36911 11.4837 6.38734 11.2807C7.40557 11.0777 8.34071 10.5773 9.0746 9.84288C9.80849 9.10844 10.3082 8.17291 10.5104 7.15453C10.7126 6.13614 10.6084 5.08063 10.2108 4.12151C9.81323 3.16239 9.14017 2.34272 8.27675 1.7661C7.41332 1.18948 6.39827 0.881808 5.36 0.882006C3.96759 0.883331 2.63254 1.43733 1.64833 2.42229C0.664124 3.40725 0.111242 4.74259 0.110977 6.135V6.135Z" fill="#EAF4FE" data-name="Vector" transform="translate(225.11 7.89)"/>
			</g>
			<path d="M7.74933 14.1178L8.61432 1.39085L1.80231 0.926826L0.93634 13.6608L7.74933 14.1178Z" fill="#F7B68B" data-name="Vector" transform="translate(310.93 21.93)"/>
			<g transform="translate(308.97 0)" width="18.74" height="27.86" data-name="Group">
				<path d="M6.01742 26.9489C6.01742 26.9489 0.0455 21.7889 0.00350004 19.5729C-0.0385 17.3569 0.311361 9.28786 0.311361 9.28786L0.589438 7.24187C0.589438 7.24187 2.96141 6.46586 2.66341 11.8829C2.36541 17.2999 3.91634 14.8378 3.91634 14.8378L6.01644 10.1639L9.02645 4.65684L10.0543 2.02086C10.0543 2.02086 10.5235 0.472839 10.9415 0.220839C12.1675 -0.499161 12.3104 0.771865 12.3104 0.771865L9.20052 11.4299L14.7225 2.58186C14.7225 2.58186 15.6174 1.58185 16.2904 1.88185C16.9324 2.16485 16.7203 2.54787 16.7203 2.54787L12.8653 14.2388L16.2313 10.0389C16.2313 10.0389 17.1403 9.08086 17.8043 9.34486C18.5363 9.62786 18.7425 9.68184 18.7425 9.68184L8.06551 27.8649L6.01742 26.9489Z" fill="#F7B68B" data-name="Vector"/>
				<path d="M0.132311 7.98281L4.38744 2.01183C4.77505 1.28321 5.31984 0.649913 5.98241 0.157831C6.21471 0.0222347 6.49106 -0.0160223 6.75145 0.0514161C7.01184 0.118855 7.23503 0.286503 7.3723 0.517816L1.86327 10.2308L0.132311 7.98281Z" fill="#F7B68B" data-name="Vector" transform="translate(11.13 4.02)"/>
			</g>
			<g transform="translate(367.23 164.89)" width="64.1" height="69.31" data-name="Group">
				<path d="M39.102 5.955H0.302V0.0409999H39.102V5.955Z" fill="#0561FC" data-name="Vector" transform="translate(25.3 6.04)"/>
				<path d="M24.412 6.197H0.797001V0.282999H24.412V6.197Z" fill="#9AC7F7" data-name="Vector" transform="translate(38.8 26.28)"/>
				<path d="M14.292 5.944H0.797001V0.0299988H14.292V5.944Z" fill="#9AC7F7" data-name="Vector" transform="translate(38.8 33.03)"/>
				<path d="M24.412 6.378H0.797001V0.464001H24.412V6.378Z" fill="#9AC7F7" data-name="Vector" transform="translate(38.8 41.46)"/>
				<path d="M14.292 6.125H0.797001V0.210999H14.292V6.125Z" fill="#9AC7F7" data-name="Vector" transform="translate(38.8 48.21)"/>
				<path d="M24.412 6.559H0.797001V0.645H24.412V6.559Z" fill="#9AC7F7" data-name="Vector" transform="translate(38.8 56.65)"/>
				<path d="M14.292 6.307H0.797001V0.393002H14.292V6.307Z" fill="#9AC7F7" data-name="Vector" transform="translate(38.8 63.39)"/>
				<path d="M32.352 6.702H0.302V0.788H32.352V6.702Z" fill="#0561FC" data-name="Vector" transform="translate(25.3 12.79)"/>
				<path d="M7.736 0.24H0.989V6.987H7.736V0.24Z" fill="url(#paint_linear_236)" data-name="Vector" transform="translate(26.99 29.24)"/>
				<path d="M7.736 0.421001H0.989V7.168H7.736V0.421001Z" fill="url(#paint_linear_847)" data-name="Vector" transform="translate(26.99 44.42)"/>
				<path d="M7.736 0.602001H0.989V7.35H7.736V0.602001Z" fill="url(#paint_linear_424)" data-name="Vector" transform="translate(26.99 59.6)"/>
				<path d="M22.492 0H0V22.492H22.492V0Z" fill="#9FC400" data-name="Vector"/>
				<path d="M7.27709 16.927L0.968982 10.619L5.15111 6.43701L7.27709 8.56298L15.3071 0.533991L19.489 4.716L7.27709 16.927Z" fill="white" data-name="Vector" class="Vector_14" transform="translate(2.97 3.53)"/>
			</g>
			<g transform="translate(0 87.15)" width="84.68" height="122.27" data-name="Group">
				<g transform="translate(0.04 0)" class="Group_86_645" width="84.64" height="104.66" data-name="Group 86">
					<path d="M84.4867 41.5893C82.3257 16.7093 65.5868 -2.1597 38.4418 0.199303C11.2968 2.5583 -1.93536 24.0304 0.228638 48.9134C1.91364 68.3214 16.1078 73.8773 29.0558 88.9713C31.6188 91.9583 30.4198 104.659 30.4198 104.659L64.3617 101.709C64.3617 101.709 60.9867 89.4093 62.9987 86.0223C73.1487 68.9173 86.1747 61.0003 84.4867 41.5893Z" fill="#FEC12F" data-name="Vector"/>
				</g>
				<path d="M43.9134 73.1273C26.0204 52.2673 6.40531 44.5913 4.07531 17.7693C3.57342 12.1751 3.66943 6.54322 4.36144 0.969288C0.763235 9.11388 -0.646048 18.0569 0.273309 26.9133C1.95831 46.3213 16.1525 51.8773 29.1005 66.9713C31.6635 69.9583 30.4645 82.6593 30.4645 82.6593L46.0323 81.3073C45.7813 77.8093 45.1834 74.6073 43.9134 73.1273Z" fill="#FFAB01" data-name="Vector" transform="translate(0 22.97)"/>
				<path d="M0.882202 3.71031L1.28821 8.38933C1.61232 12.1141 3.40265 15.5576 6.26526 17.9626C9.12787 20.3677 12.8285 21.5373 16.5533 21.2143L23.5743 20.6043C27.2987 20.2797 30.7417 18.4893 33.1464 15.6268C35.551 12.7642 36.7203 9.0638 36.3973 5.33928L35.9913 0.662338L0.882202 3.71031Z" fill="#0450CF" data-name="Vector" transform="translate(29.88 101.66)"/>
				<path d="M13.8713 19.5333L7.8823 12.9823L5.28929 17.0643L0.0741978 13.7513L6.99534 2.85133L12.9892 9.4073L17.7541 1.91932L23.7541 8.47529L28.5293 0.984322L34.5241 7.54029L39.3022 0.0553055L48.0312 9.5713L43.4783 13.7483L40.1843 10.1573L35.3991 17.6573L29.4072 11.1043L24.6323 18.5943L18.6423 12.0433L13.8713 19.5333Z" fill="#F4DA80" data-name="Vector" transform="translate(21.07 30.05)"/>
				<path d="M12.6972 54.2643L10.1393 24.8083L0.586355 3.24333L6.25213 0.779282L16.0522 23.3093L18.8522 53.7303L12.6972 54.2643Z" fill="#F4DA80" data-name="Vector" transform="translate(27.58 49.78)"/>
				<path d="M3.47126 55.3303L0.911205 25.8703L6.75032 0.997337L12.7562 2.44729L6.99226 26.3273L9.62727 54.7943L3.47126 55.3303Z" fill="#F4DA80" data-name="Vector" transform="translate(47.91 48)"/>
				<path d="M22.6742 0.295303H0.648247V3.9563H22.6742V0.295303Z" fill="#0561FC" data-name="Vector" transform="translate(39.65 106.29) rotate(-4.96)"/>
				<path d="M16.0772 0.879303H0.220245V4.5393H16.0772V0.879303Z" fill="#0561FC" data-name="Vector" transform="translate(40.22 112.88) rotate(-4.96)"/>
			</g>
			<g transform="translate(27.16 143.67)" width="126.57" height="510.1" data-name="Group">
				<g width="126.57" height="510.1" data-name="Group">
					<g width="126.57" height="510.1" data-name="Group">
						<path d="M4.91924 0.175537C8.30524 0.175537 11.0484 4.61357 11.0484 10.0856C11.0406 11.0989 10.9333 12.1091 10.7283 13.1016H2.07817C0.993175 13.1016 0.104298 11.3526 0.104298 9.2146V4.02258C1.2273 1.69758 2.95624 0.175537 4.91924 0.175537Z" fill="#387BFF" data-name="Vector" transform="translate(30.1 497.17)"/>
						<path d="M41.1561 0.837457C38.8991 -0.552543 31.1852 8.03751 27.9112 15.6375C21.4862 30.5375 19.8361 38.7806 17.3431 55.2136C13.3921 81.2796 6.70929 122.674 4.50129 140.294C2.51029 156.177 -3.87977 174.957 5.67023 172.306C5.52323 150.506 15.5482 117.639 21.3592 100.377C41.2102 41.4375 48.1021 5.08746 41.1561 0.837457Z" fill="#E9D6B8" data-name="Vector" transform="translate(55.56 333.68)"/>
						<path d="M16.7953 21.8306C17.6393 17.6466 18.5009 13.5309 19.3803 9.48354C22.3343 3.58354 24.9164 0.476575 26.8864 0.940575C34.3354 2.68958 41.0802 36.3775 17.6772 116.391C16.5032 120.414 3.11127 181.039 0.922268 181.039C-2.17373 181.039 4.26332 83.8356 16.7953 21.8306Z" fill="#E9D6B8" data-name="Vector" transform="translate(34.15 326.89)"/>
						<path d="M23.2274 11.3355C20.5844 10.3964 17.8594 9.70575 15.0882 9.27252C11.5982 8.61552 8.94729 8.63356 7.68829 7.32256C5.61629 5.15856 6.76524 -0.0874327 5.75324 0.150567C0.807236 1.28657 -0.902784 12.8505 1.98322 14.2875C4.86922 15.7245 21.1662 13.8066 22.5062 13.7026C23.8462 13.5986 23.6364 11.0255 23.2274 11.3355Z" fill="#E9D6B8" data-name="Vector" transform="translate(54.58 491.14)"/>
						<path d="M19.8284 0.284494C20.7494 4.17649 8.80622 2.60852 5.71922 1.59052C4.13758 1.05753 2.52119 0.634108 0.88133 0.323435C0.75733 0.323435 0.638237 0.299457 0.510237 0.296457C0.491118 0.38996 0.477105 0.484513 0.468245 0.579538C0.468245 2.71454 -0.470728 5.5605 2.94627 5.5605H24.3591C41.8621 5.5615 19.8064 0.192494 19.8284 0.284494Z" fill="#387BFF" data-name="Vector" transform="translate(54.35 501.28)"/>
						<path d="M48.1563 40.2646L43.5611 8.51559C37.7401 2.38159 30.2751 -0.884415 22.6851 0.208585C8.03807 2.33059 -1.53579 19.8826 1.29421 39.4176C4.1242 58.9526 18.2832 73.0656 32.9212 70.9516C43.1712 69.4626 50.9213 60.4166 53.6983 48.4406C52.2284 47.5712 50.9689 46.3873 50.0108 44.9737C49.0526 43.5601 48.4194 41.9519 48.1563 40.2646V40.2646Z" fill="#163F59" data-name="Vector" transform="translate(58.8 0)"/>
						<path d="M1.00524 54.5945C0.451238 59.6705 5.79509 64.4175 12.9491 65.2015L29.2601 67.0016C36.4151 67.7846 42.6671 64.3156 43.2181 59.2366L48.3182 12.9636C48.8832 7.88756 43.5352 3.14354 36.3822 2.34954L20.0672 0.557549C12.9152 -0.236451 6.66726 3.24656 6.10826 8.31756L1.00524 54.5945Z" fill="#163F59" data-name="Vector" transform="translate(47.96 4.44)"/>
						<path d="M44.5404 31.4575C54.2174 35.6395 59.0564 34.3365 51.6664 37.4575C48.1134 41.8065 2.69529 35.7486 0.223292 30.1156C-0.185708 29.1626 18.2534 26.4575 18.3524 25.7545C19.4854 17.5815 19.9245 10.6705 17.6435 1.53353C17.6633 1.21291 17.7957 0.9096 18.0175 0.677208C18.2393 0.444816 18.536 0.298339 18.8554 0.263573C22.2984 0.363573 25.7643 0.391525 29.2233 0.489525C29.7963 0.519525 36.5583 2.00858 35.0563 5.25558C34.3163 14.1576 34.3064 27.0255 44.5404 31.4575Z" fill="#E9D6B8" data-name="Vector" transform="translate(46.22 47.26)"/>
						<path d="M29.6221 38.6555C29.7761 38.3365 29.9272 38.0055 30.0782 37.6765C30.1142 37.5765 30.1692 37.4835 30.2142 37.3765C30.3942 36.9705 30.5683 36.5496 30.7393 36.1096C30.7863 35.9926 30.8263 35.8805 30.8663 35.7655C30.9863 35.4405 31.1061 35.1125 31.2171 34.7795C31.2811 34.6005 31.3471 34.4115 31.4051 34.2315C31.4961 33.9485 31.5841 33.6635 31.6751 33.3715C31.7391 33.1715 31.7931 32.9715 31.8511 32.7775C31.9591 32.3995 32.0512 32.0195 32.1622 31.6295C32.2302 31.3475 32.3022 31.0586 32.3682 30.7556C32.4322 30.4956 32.4992 30.2225 32.5582 29.9555C32.6172 29.6885 32.6682 29.4145 32.7222 29.1335C32.7682 28.9035 32.8222 28.6685 32.8582 28.4235C32.8932 28.2325 32.9332 28.0475 32.9742 27.8535V27.8445C33.5362 24.5525 32.4173 9.04453 29.8023 1.64453C29.6009 1.14093 29.233 0.721565 28.7598 0.456422C28.2867 0.191279 27.7369 0.0964121 27.2022 0.187562C19.2212 1.08056 -5.09783 -0.0484743 1.18317 22.1135V22.1356C1.19717 22.1896 1.5513 24.0965 1.7403 24.9695C1.7573 25.0525 1.77525 25.1225 1.79425 25.1935C1.99425 26.0755 2.19419 26.9435 2.43219 27.7835C2.45119 27.8455 2.46231 27.8976 2.47931 27.9506C2.71731 28.8066 2.96918 29.6506 3.24518 30.4636C3.24871 30.4937 3.25797 30.5228 3.27228 30.5496C6.75428 40.9966 12.8502 47.8935 19.3062 47.4435C23.0722 47.1825 26.3741 44.4606 28.8611 40.0916H28.8702C28.8901 40.0597 28.9075 40.0262 28.9222 39.9915C29.1102 39.6605 29.2982 39.3175 29.4732 38.9685C29.5222 38.8615 29.5721 38.7525 29.6221 38.6555Z" fill="#E9D6B8" data-name="Vector" transform="translate(64.16 13.15)"/>
						<path d="M0.194487 2.30352C0.194487 2.30352 0.021372 12.9375 0.00137199 17.2805C-0.025628 23.3735 0.201391 51.4375 1.27139 53.1865C3.17139 56.2865 13.7953 50.4745 13.7953 50.4745C13.7953 50.4745 9.04949 28.6506 8.92349 21.8176C8.79749 14.9846 6.48739 5.86251 6.54239 3.18151C6.62139 -1.39649 0.194487 2.30352 0.194487 2.30352Z" fill="#E9D6B8" data-name="Vector" transform="translate(3 72.89)"/>
						<path d="M4.08932 70.3686L64.7024 69.8566L72.1142 0.535568L0.186245 7.36656L4.08932 70.3686Z" fill="#FEC00F" data-name="Vector" transform="translate(38.18 70.53)"/>
						<path d="M81.1654 208.894C51.3584 213.566 45.9723 209.6 11.7203 204.711C8.47934 204.762 -5.40073 171.423 4.36927 83.4846C6.38227 65.3626 20.0814 50.8085 16.9464 1.61853C37.3218 1.21853 57.6953 0.824894 78.0673 0.437561C69.9533 45.1536 118.389 52.0975 81.1654 208.894Z" fill="#FEC00F" data-name="Vector" transform="translate(25.94 138.43)"/>
						<path d="M9.20438 88.5096L0.604286 27.7325L2.69535 3.22356C4.10138 1.78395 5.95029 0.858449 7.94535 0.595566L9.31425 0.424545C14.6212 -0.218455 19.3903 4.24658 19.9703 10.4076L26.7342 93.6225L9.20438 88.5096Z" fill="#387BFF" data-name="Vector" transform="translate(99.6 70.36)"/>
						<path d="M15.5532 91.2836L40.6972 36.5486L44.3894 3.87061C43.0563 2.43623 41.3122 1.4491 39.3962 1.04456L38.0493 0.750549C36.7926 0.49852 35.4986 0.497181 34.2414 0.746582C32.9843 0.995982 31.7886 1.49126 30.7234 2.20392C29.6581 2.91657 28.7442 3.83258 28.0339 4.89941C27.3236 5.96624 26.8308 7.16288 26.5842 8.42059L0.818336 73.6696L15.5532 91.2836Z" fill="#387BFF" data-name="Vector" transform="translate(3.82 76.56)"/>
						<path d="M31.6161 41.3675C30.1463 40.4967 28.8875 39.3114 27.9299 37.8967C26.9722 36.4819 26.3397 34.8727 26.0773 33.1846L21.4772 1.44054C21.1982 1.14854 20.9044 0.895538 20.6174 0.620538L20.0602 0.555535C12.9072 -0.238465 6.66028 3.24454 6.10028 8.31555L1.00018 54.5906C0.56818 58.5076 3.67325 62.2056 8.39325 64.0616C9.21144 64.0507 10.0282 63.9876 10.8383 63.8726C21.0843 62.3946 28.8451 53.3465 31.6161 41.3675Z" fill="#163F59" data-name="Vector" transform="translate(47.96 4.44)"/>
						<path d="M28.9422 0.595551L10.3543 0.963531C10.3543 0.963531 0.231293 59.3636 0.231293 76.4956C0.231293 93.6276 11.9132 140.345 11.1312 162.147C10.3492 183.949 10.8592 266.638 10.8592 266.638H43.9593C43.9593 266.638 49.2843 156.696 36.8263 114.648C26.8873 81.0926 28.9422 0.595551 28.9422 0.595551Z" fill="#387BFF" data-name="Vector" transform="translate(78.23 70.59)"/>
						<path d="M9.35425 0.963562L18.6982 0.183533L18.6685 14.4565L13.2483 21.2095L15.5845 28.2166L7.79834 59.3635V120.88C7.79834 120.88 -2.32372 66.3795 0.790281 55.4725C3.90428 44.5655 9.35425 0.963562 9.35425 0.963562Z" fill="#0063CB" data-name="Vector" transform="translate(79.19 70.18)"/>
						<path d="M40.2072 0.858574L21.1862 3.36755C21.1862 3.36755 23.8552 59.2565 24.6352 75.6096C25.4152 91.9626 16.0693 121.554 10.6193 141.019C1.05633 175.164 0.649361 258.627 0.649361 258.627C15.2137 261.261 29.9818 262.603 44.7822 262.64C44.7822 262.64 50.3272 210.318 49.5502 130.896C48.7732 51.4736 40.2072 0.858574 40.2072 0.858574Z" fill="#387BFF" data-name="Vector" transform="translate(17.65 74.85)"/>
						<path d="M11.8792 0.519539L19.6654 53.4705L15.7733 137.571L9.54427 48.0236L1.75838 28.5565L4.09432 21.5485L0.194176 17.6545L3.31234 0.523567L11.8792 0.519539Z" fill="#0063CB" data-name="Vector" transform="translate(50.19 72.52)"/>
						<path d="M17.0562 7.21056L80.4632 0.869553L58.8133 83.4095L0.413376 89.6376L17.0562 7.21056Z" fill="#163F59" data-name="Vector" transform="translate(42.41 88.87)"/>
						<g transform="translate(86.52 121.59)" width="40.04" height="52.17" data-name="Group">
							<path d="M32.1963 37.3628C22.9163 26.2268 11.7753 9.6728 4.33131 1.7398C-0.716689 -3.6392 0.0402951 5.17181 0.0402951 5.17181L24.3132 45.9338C24.3132 45.9338 39.9823 46.7038 32.1963 37.3628Z" fill="#E9D6B8" data-name="Vector"/>
							<path d="M23.2672 14.2858C23.2672 14.2858 33.3084 27.7858 24.2604 32.7858C19.1244 35.6248 14.9954 33.8418 12.0394 29.7058C6.54941 22.0248 0.746192 13.0149 0.746192 13.0149L10.5272 0.214802L23.2672 14.2858Z" fill="#387BFF" data-name="Vector" transform="translate(12.75 18.21)"/>
						</g>
						<g transform="translate(77.09 107.51)" width="15.03" height="21.84" data-name="Group">
							<path d="M10.9105 10.956L6.9464 5.61896L0.919546 0C0.919546 0 0.149585 0.841995 1.08459 2.23199C2.01959 3.62199 5.52941 7.70697 5.52941 7.70697L7.25353 10.575L7.60241 11.156C7.60241 11.156 10.0505 13.672 10.9105 10.956Z" fill="#E9D6B8" data-name="Vector" transform="translate(2.62 0)"/>
							<path d="M9.7224 4.86297C9.7224 4.86297 9.76547 6.69297 9.36547 6.82397C8.96547 6.95497 8.40842 6.324 7.54442 5.651C6.68042 4.978 4.13451 2.86096 4.13451 2.86096L0.185533 0.468989C0.185533 0.468989 -0.252484 1.54596 0.217516 2.12896C0.882516 2.95396 3.37255 5.17596 3.37255 5.17596L6.93553 8.94897C6.93553 8.94897 9.82955 11.249 10.1536 10.622C10.4776 9.995 10.1924 9.061 10.8174 8.708C11.4424 8.355 12.8824 7.07097 9.7224 4.86297Z" fill="#E9D6B8" data-name="Vector" transform="translate(0 5.47)"/>
							<path d="M5.31556 3.786L3.18153 1.773C3.18153 1.773 0.681469 -0.0920314 0.496469 0.263969L0.310434 0.61901C0.310434 0.61901 0.827584 1.39598 1.56458 2.28698C1.84358 2.62498 3.12148 4.07095 3.45448 4.39995C4.31108 5.41186 5.11215 6.46944 5.85438 7.56798C6.08338 7.68698 8.92856 7.586 5.31556 3.786Z" fill="#E9D6B8" data-name="Vector" transform="translate(0.31 10.22)"/>
							<path d="M4.44053 11.4129L4.52549 6.148L1.23862 0.147996C1.23862 0.147996 0.423436 1.07895 1.12144 3.13695C1.81944 5.19495 1.81342 5.41695 2.02842 5.64195C2.24342 5.86695 1.36753 9.252 1.36753 9.252C1.36753 9.252 4.19253 12.5259 4.44053 11.4129Z" fill="#E9D6B8" data-name="Vector" transform="translate(10.84 0.15)"/>
							<path d="M6.39246 4.03599L9.11145 0.930949C9.11145 0.930949 10.8265 1.03097 10.7445 4.37797C10.7155 5.56797 10.7444 6.73097 10.7894 7.73497C10.8744 9.55297 11.0255 10.851 11.0255 10.851C11.0255 10.851 10.1815 12.898 8.77454 12.843C7.36754 12.788 5.11856 12.862 3.52356 11.468C2.28341 10.177 1.39748 8.58771 0.951538 6.85398C0.677538 5.95398 2.07849 6.312 2.65149 5.929C3.35149 5.458 3.32142 4.341 3.88342 4.197C4.70944 4.03633 5.55268 3.98221 6.39246 4.03599V4.03599Z" fill="#E9D6B8" data-name="Vector" transform="translate(4.92 9.93)"/>
						</g>
						<path d="M1.48431 0.27452C1.48431 0.27452 15.0173 -1.07245 16.3273 4.44255C17.6373 9.95755 25.6053 54.4755 19.4543 62.5145C11.6603 72.7015 3.03814 61.9055 0.835143 59.5705C-1.36786 57.2355 1.48431 0.27452 1.48431 0.27452Z" fill="#387BFF" data-name="Vector" transform="translate(0 103.13)"/>
						<path d="M3.88532 0.303528C6.32332 0.303528 8.29718 5.72756 8.29718 12.4166C8.29221 13.6487 8.21544 14.8794 8.0672 16.1026H1.83917C1.05817 16.1026 0.418276 13.9645 0.418276 11.3515V5.00555C1.22728 2.16455 2.47232 0.303528 3.88532 0.303528Z" fill="#E9D6B8" data-name="Vector" transform="translate(31.42 494.3)"/>
						<path d="M4.91924 0.536523C8.30524 0.536523 11.0484 2.79058 11.0484 5.57058C11.0381 6.0964 10.9295 6.61566 10.7283 7.10159H2.07817C1.55512 7.1 1.05399 6.89148 0.684132 6.52163C0.314277 6.15178 0.10588 5.65064 0.104298 5.12759V2.4905C0.73397 1.85739 1.48491 1.35801 2.31231 1.02224C3.1397 0.686472 4.02644 0.521251 4.91924 0.536523V0.536523Z" fill="#387BFF" data-name="Vector" transform="translate(30.1 503.53)"/>
						<path d="M0.825266 21.1425V6.04256L11.9874 0.133568L16.5872 4.07253L15.2742 11.9516L8.70832 15.8905L9.54524 28.1845L3.19734 27.3065L0.825266 21.1425Z" fill="#E9D6B8" data-name="Vector" transform="translate(0.82 47.13)"/>
						<path d="M3.44118 0.240528L2.87527 2.48552L0.823265 9.01055L0.179222 3.52257C0.179222 3.52257 3.24118 -0.834472 3.44118 0.240528Z" fill="#E9D6B8" data-name="Vector" transform="translate(91.18 116.07)"/>
						<path d="M1.45031 0.860565L8.8363 4.14352C8.8363 4.14352 8.18021 5.62053 5.22521 4.63553C3.56437 4.10278 1.96789 3.38708 0.465201 2.50156L1.45031 0.860565Z" fill="#E9D6B8" data-name="Vector" transform="translate(13.46 53.86)"/>
						<path d="M1.10643 0.906574L5.20628 3.36855C5.20628 3.36855 4.19234 4.87952 1.66234 4.20552C-0.867664 3.53152 1.10643 0.906574 1.10643 0.906574Z" fill="#E9D6B8" data-name="Vector" transform="translate(14.37 50.9)"/>
						<path d="M1.4653 0.502579L7.37424 4.27754C7.37424 4.27754 6.55321 5.91953 5.24021 5.42653C3.67438 4.58119 2.19076 3.59196 0.808322 2.47157L1.4653 0.502579Z" fill="#E9D6B8" data-name="Vector" transform="translate(12.81 55.5)"/>
					</g>
				</g>
			</g>
			<g transform="translate(193.42 179.52)" width="79.32" height="79.32" data-name="Group 88">
				<g class="Group_85_148" width="79.32" height="79.32" data-name="Group 85">
					<g width="79.32" height="79.32" data-name="cog-1">
						<path d="M2.62793 54.081L0 43.63L5.30005 41.021C5.29145 39.4743 5.3872 37.9288 5.58691 36.395L0.386963 33.629L3.33691 23.267L9.85205 23.701C10.5282 22.5162 11.2744 21.3729 12.0869 20.277L8.66309 14.798L16.397 7.29803L22.186 11.172C23.2541 10.5374 24.3558 9.96086 25.4861 9.44501L25.2471 2.62604L35.6941 0L38.8169 6.34399C40.0364 6.31051 41.2568 6.34189 42.4729 6.43799L45.6941 0.377991L56.0549 3.328L55.6001 10.177C56.7504 10.7696 57.866 11.427 58.9419 12.146L64.5259 8.65601L72.0259 16.392L68.4719 21.7C69.274 22.9037 69.9998 24.1564 70.645 25.451L76.697 25.239L79.325 35.687L74.168 38.225C74.2912 39.8662 74.2958 41.5141 74.1819 43.156L78.9441 45.685L75.9939 56.047L70.876 55.709C70.0879 57.3612 69.1683 58.9473 68.126 60.452L70.668 64.517L62.9331 72.017L59.033 69.408C57.4136 70.4968 55.7053 71.4469 53.926 72.248L54.082 76.688L43.634 79.319L41.6279 75.241C39.6515 75.3458 37.6699 75.2788 35.7051 75.041L33.636 78.941L23.2739 75.993L23.5901 71.25C21.9071 70.3585 20.3014 69.3279 18.79 68.169L14.8 70.663L7.30005 62.928L10.2261 58.557C9.32928 57.0645 8.54635 55.5064 7.88403 53.896L2.62793 54.081ZM35.728 55.019C38.538 55.819 41.5221 55.7678 44.303 54.8718C47.0839 53.9757 49.5367 52.2752 51.3511 49.9852C53.1655 47.6952 54.26 44.9185 54.4963 42.0064C54.7327 39.0943 54.1001 36.1775 52.6787 33.6249C51.2573 31.0723 49.111 28.9985 46.511 27.6658C43.911 26.3331 40.974 25.8014 38.0718 26.1378C35.1695 26.4743 32.4323 27.6638 30.2061 29.556C27.9799 31.4481 26.3647 33.9579 25.5649 36.768C25.0331 38.6342 24.8743 40.5868 25.0974 42.5144C25.3205 44.442 25.921 46.3067 26.865 48.0021C27.809 49.6974 29.0778 51.1902 30.5989 52.395C32.12 53.5999 33.8635 54.4933 35.73 55.024L35.728 55.019Z" fill="#9AC7F7" data-name="Vector"/>
						<path d="M30.029 1.84802C34.3732 3.08449 38.2533 5.58137 41.1784 9.02301C44.1035 12.4646 45.9425 16.6964 46.4626 21.1832C46.9827 25.6699 46.1606 30.2101 44.1003 34.2296C42.04 38.2491 38.8338 41.5674 34.8876 43.7648C30.9414 45.9623 26.4323 46.9401 21.9304 46.5748C17.4284 46.2095 13.1357 44.5174 9.5954 41.7125C6.05512 38.9075 3.42623 35.1158 2.04096 30.8166C0.655686 26.5175 0.576261 21.9042 1.81293 17.56C3.47142 11.735 7.37576 6.80735 12.6672 3.86084C17.9586 0.914326 24.2038 0.190309 30.029 1.84802V1.84802ZM18.82 41.22C22.2631 42.2008 25.9199 42.1386 29.3276 41.0411C32.7353 39.9437 35.7409 37.8603 37.9645 35.0545C40.1881 32.2487 41.5296 28.8465 41.8195 25.2781C42.1094 21.7098 41.3345 18.1357 39.593 15.0077C37.8514 11.8798 35.2215 9.33855 32.0356 7.70544C28.8497 6.07234 25.251 5.4207 21.6948 5.83294C18.1385 6.24519 14.7844 7.70285 12.0566 10.0215C9.32878 12.3401 7.34985 15.4156 6.37006 18.859C5.05534 23.4758 5.62851 28.4257 7.96332 32.6199C10.2981 36.8142 14.2033 39.9091 18.82 41.224V41.22Z" fill="#C5E1F9" data-name="Vector" transform="translate(16.94 17.98)"/>
					</g>
				</g>
			</g>
			<g transform="translate(235.36 170.94)" width="142.79" height="210.89" data-name="Group">
				<path d="M65.349 130.89C66.105 127.211 66.7489 123.178 67.2369 118.744C73.2559 64.5697 79.5059 43.3677 73.0709 29.2097C68.5449 19.2527 47.3299 0.893707 47.3299 0.893707L25.4639 3.17166C25.4639 3.17166 7.86391 15.0497 1.42391 39.5037C-0.491091 46.7807 2.47107 108.865 3.59407 130.891L65.349 130.89Z" fill="#0561FC" data-name="Vector" transform="translate(67.8 80.9)"/>
				<path d="M22.813 31.8087L17.1189 5.04166L16.072 0.119667C16.072 0.119667 3.40904 3.15667 0.707039 10.4997C-1.99496 17.8427 10.6249 36.1057 13.6819 38.1187C16.7389 40.1317 22.813 31.8087 22.813 31.8087Z" fill="#F7B68B" data-name="Vector" transform="translate(5.33 78.12)"/>
				<path d="M9.31396 0.326714L0 13.0327L5.01782 21.7867L21.073 7.12066L9.31396 0.326714Z" fill="#EC9568" data-name="Vector" transform="translate(0 71.33)"/>
				<path d="M85.5679 0.879669C85.5679 0.879669 108.193 -1.37432 104.332 30.8037C103.52 37.5647 84.902 61.8147 72.563 73.3577C60.224 84.9007 50.5369 93.6246 41.0999 86.0576C8.14987 59.6236 0.233904 19.4577 0.233904 19.4577L19.2178 3.40268C19.2178 3.40268 52.4898 38.3437 52.6848 43.4467C52.8798 48.5497 74.1769 14.9427 85.5679 0.879669Z" fill="#0450CF" data-name="Vector" transform="translate(13.24 99.85)"/>
				<path d="M31.4009 24.7707C31.4009 24.7707 17.028 24.7417 13.042 18.9257C9.05598 13.1097 21.9909 16.0127 15.7419 19.4207C9.49293 22.8287 -3.07712 14.6367 1.01488 8.34967C5.10688 2.06267 10.895 -0.283288 15.915 4.04071C20.935 8.36471 16.3621 10.1647 14.6731 6.22272C12.9841 2.28072 21.915 -6.17728 27.636 7.48572C33.357 21.1487 29.561 21.8337 27.968 12.9767C26.375 4.11969 32.3399 -0.869322 35.5369 9.65668C38.7339 20.1827 32.0269 24.6567 30.8589 19.9687C29.6909 15.2807 43.8501 6.85771 44.1211 15.6267C44.3921 24.3957 44.309 34.8587 37.697 34.4137C31.085 33.9687 48.4661 12.5607 52.8821 31.6857C57.2981 50.8107 45.6389 44.0857 45.5359 39.8637C45.4329 35.6417 67.4281 45.3997 49.3081 49.9637C31.1881 54.5277 38.446 47.6697 37.334 43.2977C36.222 38.9257 51.546 51.5207 41.928 59.7797C32.31 68.0387 24.036 65.6057 26.615 56.3267C29.194 47.0477 38.724 52.8447 34.855 60.3957C30.986 67.9467 35.4901 73.0187 37.2991 73.9957C39.1081 74.9727 24.5811 79.5447 22.5271 71.7497C20.4731 63.9547 19.9529 26.5007 31.4009 24.7707Z" fill="#212A54" data-name="Vector" transform="translate(84.22 0)"/>
				<path d="M9.29085 13.8547L9.55794 9.88868L18.575 0.104681C18.575 0.104681 18.884 3.64171 31.814 6.54371C51.09 10.8697 33.551 14.3947 31.814 22.8727C30.86 27.5047 31.5539 30.9497 32.8009 32.5257C28.4019 38.9551 22.9143 44.567 16.585 49.1087L16.5521 48.8007L7.86385 51.3397C-0.823154 53.8797 1.18098 45.0307 1.18098 45.0307L4.08797 28.5077L1.42805 22.7807L9.29085 13.8547Z" fill="#F7B68B" data-name="Vector" transform="translate(76.99 16.11)"/>
				<path d="M9.29083 13.8547L9.55889 9.88868L18.576 0.104681C18.576 0.104681 18.885 3.64171 31.815 6.54371C51.09 10.8697 33.5519 14.3947 31.8099 22.8717C30.0679 31.3487 33.824 35.8977 36.418 32.1657C39.012 28.4337 45.9738 27.1837 48.7178 31.5877C51.4618 35.9917 41.5109 42.3547 39.3509 43.0677C38.194 43.5138 36.9123 43.5117 35.7569 43.0617C35.7569 43.0617 40.803 64.4197 43.47 74.9877C41.178 76.2177 24.8418 75.5497 18.7588 72.0877C18.8148 63.2987 16.543 48.7957 16.543 48.7957L7.85504 51.3347C-0.831964 53.8747 1.17095 45.0247 1.17095 45.0247L4.07989 28.5017L1.419 22.7747L9.29083 13.8547Z" fill="#F7B68B" data-name="Vector" transform="translate(76.98 16.11)"/>
			</g>
			<path d="M6.41607 0.577805L28.3682 6.29381L32.4051 7.34483C32.4051 7.34483 29.3842 17.5918 23.1902 19.5148C16.9962 21.4378 2.36908 10.3868 0.822076 7.80284C-0.724924 5.21884 6.41607 0.577805 6.41607 0.577805Z" fill="#F7B68B" data-name="Vector" transform="translate(205.6 171.58)"/>
			<path d="M18.5662 10.2388L7.66628 17.3628L0.61232 12.9099L13.4053 0.344864L18.5662 10.2388Z" fill="#EC9568" data-name="Vector" transform="translate(224.61 178.35)"/>
			<path d="M60.8303 33.3818C60.8303 33.3818 63.4045 2.49181 44.5305 0.775811C38.9045 0.263811 29.0844 13.6468 22.2214 28.2338C16.2874 40.8438 -4.77872 75.0679 1.12128 83.0919C21.7103 111.109 54.6752 119.172 54.6752 119.172L68.7363 104.264C68.7363 104.264 41.1113 75.6469 36.8893 75.2869C32.6673 74.9269 55.6193 47.9698 60.8303 33.3818Z" fill="#F49E00" data-name="Vector" transform="translate(149.09 64.77)"/>
			<path d="M14.6524 0.740852C11.0804 5.44085 4.65234 13.8898 0.809341 18.8018C2.14534 20.4748 14.7942 25.3149 20.5662 24.7019C22.8968 19.7571 25.5304 14.961 28.4522 10.3408L14.6524 0.740852Z" fill="#F7B68B" data-name="Vector" transform="translate(210.81 34.74)"/>
			<g transform="translate(211.85 2.25)" width="37.85" height="59.91" data-name="Group">
				<path d="M30.2154 38.0182C30.169 38.6186 30.0046 39.2039 29.7317 39.7408C29.4589 40.2776 29.0828 40.7554 28.6251 41.1467C28.1673 41.538 27.6368 41.8352 27.064 42.0213C26.4913 42.2074 25.8875 42.2787 25.2872 42.2312L4.71221 40.5932C3.50052 40.4955 2.37709 39.9209 1.58868 38.9956C0.800268 38.0704 0.411506 36.87 0.507378 35.6582L2.93536 5.19217C2.98259 4.59134 3.14768 4.00572 3.42144 3.46881C3.69521 2.93189 4.07228 2.45422 4.53082 2.06311C4.98935 1.672 5.52043 1.37513 6.0938 1.18948C6.66718 1.00383 7.27161 0.933044 7.87237 0.981167L28.4354 2.62918C29.0355 2.67592 29.6206 2.84054 30.157 3.11367C30.6935 3.3868 31.1707 3.76305 31.5616 4.22088C31.9524 4.67872 32.2493 5.20914 32.4349 5.7818C32.6205 6.35445 32.6913 6.95809 32.6434 7.55816L30.2154 38.0182Z" fill="#F7B68B" data-name="Vector" transform="translate(2.49 9.97)"/>
				<path d="M3.17134 11.8402C3.17134 11.8402 6.17134 9.11619 6.81734 7.34019C6.92667 6.22309 6.75907 5.09624 6.3293 4.05934C5.89954 3.02243 5.221 2.10741 4.35347 1.39518C2.17147 -0.114816 0.0763741 2.2042 0.0763741 2.2042C0.0763741 2.2042 3.56236 4.52518 3.69136 5.30418C3.82036 6.08318 3.17134 11.8402 3.17134 11.8402Z" fill="#163F59" data-name="Vector" transform="translate(31.07 11.89)"/>
				<path d="M1.74919 27.7282C1.74919 27.7282 -0.42279 15.7772 0.41521 12.3962C1.25321 9.01519 1.83529 6.66019 6.04729 6.61219C12.3613 6.54619 12.3364 7.8802 15.5344 6.2122C18.7324 4.5442 24.5773 0.403175 26.4953 0.0971753C29.7033 -0.419825 34.5323 1.02218 34.2543 6.94218C34.1341 8.03222 34.288 9.13504 34.7021 10.1505C35.1161 11.166 35.7773 12.062 36.6254 12.7572C36.3364 13.2662 35.1542 13.6752 33.0822 14.5132C27.1352 16.9132 23.6623 17.2132 19.3823 15.7202C15.1023 14.2272 7.13527 11.1042 5.92327 14.2672C4.71127 17.4302 4.30531 27.3672 3.86931 28.0932C3.43331 28.8192 2.46819 28.3712 1.74919 27.7282Z" fill="#194866" data-name="Vector" transform="translate(0.22 0)"/>
				<path d="M7.50153 10.3922C7.46662 10.7958 7.2737 11.1692 6.96491 11.4314C6.65612 11.6935 6.25624 11.8232 5.85236 11.7922L1.41047 11.4352C1.00642 11.4035 0.631343 11.2128 0.367743 10.905C0.104142 10.5971 -0.0264453 10.1973 0.00446147 9.79319L0.649481 1.67118C0.682937 1.26652 0.874571 0.891381 1.18293 0.627208C1.49129 0.363036 1.89145 0.231174 2.29645 0.260204L6.73932 0.620189C6.93921 0.634953 7.13425 0.689177 7.31306 0.779735C7.49186 0.870293 7.6509 0.995377 7.78107 1.14778C7.91125 1.30018 8.01011 1.47688 8.0716 1.66764C8.13309 1.85841 8.15613 2.05946 8.13947 2.2592L7.50153 10.3922Z" fill="#F7B68B" data-name="Vector" transform="translate(0 27.26)"/>
				<path d="M7.9934 10.4912C7.97925 10.6916 7.92544 10.8873 7.8352 11.0668C7.74496 11.2464 7.62019 11.4062 7.46777 11.5371C7.31535 11.668 7.13835 11.7675 6.94726 11.8296C6.75617 11.8918 6.55477 11.9154 6.35449 11.8992L1.9143 11.5482C1.71334 11.5323 1.51768 11.4769 1.33813 11.3852C1.15858 11.2936 0.99868 11.1674 0.867915 11.014C0.737149 10.8606 0.637967 10.6829 0.575922 10.4911C0.513878 10.2993 0.490206 10.0971 0.506342 9.89616L1.15649 1.77717C1.18966 1.37439 1.38077 1.00109 1.68823 0.738784C1.99568 0.476481 2.39438 0.346497 2.79736 0.377181L7.24438 0.727187C7.64813 0.762099 8.02174 0.95504 8.28393 1.26405C8.54612 1.57306 8.67558 1.97313 8.64428 2.37718L7.9934 10.4912Z" fill="#F7B68B" data-name="Vector" transform="translate(26.5 29.38)"/>
				<path d="M1.50732 0.562162L0.233149 16.5502C-0.0558513 20.1672 0.758345 28.2192 21.1833 29.8342C33.2713 30.8072 33.5393 21.8852 33.7693 18.9622C33.9463 16.7412 31.9603 9.88417 30.7873 8.50717C30.7463 8.46517 30.3872 13.4592 30.3872 13.4592C29.6629 11.9408 28.556 10.6372 27.175 9.67651C25.7941 8.71583 24.1867 8.13119 22.5112 7.98016C13.2402 7.23916 10.7013 12.4992 6.62231 12.0802C3.47931 11.7532 1.53032 6.44516 1.50732 0.562162Z" fill="#194866" data-name="Vector" transform="translate(2.19 30.57)"/>
				<path d="M2.07525 2.54617L8.41924 3.04617C8.61956 3.06216 8.82111 3.03846 9.01226 2.97647C9.20341 2.91448 9.38046 2.81541 9.53326 2.6849C9.68606 2.55439 9.81176 2.39501 9.90289 2.21591C9.99401 2.03681 10.0487 1.84155 10.0643 1.6412L10.1343 0.752163L0.739312 0.0111961L0.670465 0.898159C0.638962 1.30285 0.768933 1.70352 1.03228 2.01242C1.29563 2.32131 1.67067 2.51326 2.07525 2.54617V2.54617Z" fill="#F7B68B" data-name="Vector" transform="translate(18.66 43.02)"/>
			</g>
			<g transform="translate(161.32 273.7)" width="78.99" height="84.99" data-name="Group">
				<path d="M20.989 7.899H0.555V0.387H20.989V7.899Z" fill="#0561FC" data-name="Vector" transform="translate(58.56 8.39)"/>
				<path d="M17.436 8.469H0.555V0.957001H17.436V8.469Z" fill="#0561FC" data-name="Vector" transform="translate(58.56 16.96)"/>
				<path d="M17.702 0.858H0.563V17.998H17.702V0.858Z" fill="#4E99FF" data-name="Vector" transform="translate(33.57 7.86)"/>
				<path d="M20.989 7.894H0.555V0.382H20.989V7.894Z" fill="#9AC7F7" data-name="Vector" transform="translate(58.56 38.38)"/>
				<path d="M17.436 8.463H0.555V0.951H17.436V8.463Z" fill="#9AC7F7" data-name="Vector" transform="translate(58.56 46.95)"/>
				<path d="M17.702 0.853001H0.563V17.992H17.702V0.853001Z" fill="url(#paint_linear_917)" data-name="Vector" transform="translate(33.57 37.85)"/>
				<path d="M20.989 7.887H0.555V0.375H20.989V7.887Z" fill="#9AC7F7" data-name="Vector" transform="translate(58.56 68.37)"/>
				<path d="M17.436 8.457H0.555V0.945H17.436V8.457Z" fill="#9AC7F7" data-name="Vector" transform="translate(58.56 76.94)"/>
				<path d="M17.702 0.847H0.563V17.987H17.702V0.847Z" fill="url(#paint_linear_652)" data-name="Vector" transform="translate(33.57 67.85)"/>
				<path d="M28.567 0H0V28.567H28.567V0Z" fill="#9FC400" data-name="Vector"/>
				<path d="M8.78395 21.025L0.77199 13.013L6.084 7.70101L8.78395 10.401L18.9839 0.201014L24.2959 5.51303L8.78395 21.025Z" fill="white" data-name="Vector" class="Vector_345" transform="translate(3.78 5.2)"/>
			</g>
		</g>
		<g transform="translate(35.95 76.93)" width="175.05" height="175.04" data-name="Group 84">
			<g class="cog_210" width="175.05" height="175.04" data-name="cog">
				<path d="M5.80005 119.338L0 96.285L11.689 90.532C11.6691 87.1169 11.8807 83.7045 12.322 80.318L0.836182 74.218L7.34497 51.348L21.7251 52.306C23.2165 49.6904 24.8637 47.1669 26.658 44.749L19.1011 32.662L36.1741 16.114L48.9421 24.659C51.302 23.2591 53.7356 21.9873 56.2322 20.849L55.7061 5.79999L78.762 0L85.655 14.006C88.3455 13.9312 91.0382 14.0006 93.7212 14.214L100.826 0.837982L123.693 7.34998L122.693 22.461C125.233 23.7692 127.696 25.2205 130.071 26.808L142.39 19.108L158.94 36.18L151.097 47.895C152.869 50.5528 154.472 53.3192 155.897 56.178L169.25 55.709L175.05 78.764L163.676 84.364C163.947 87.9869 163.957 91.6247 163.705 95.249L174.213 100.835L167.707 123.699L156.407 122.95C154.667 126.596 152.637 130.096 150.337 133.418L155.95 142.394L138.879 158.943L130.279 153.182C126.705 155.585 122.935 157.682 119.009 159.451L119.353 169.251L96.2981 175.043L91.874 166.055C87.5093 166.288 83.1325 166.143 78.793 165.62L74.2312 174.203L51.3611 167.697L52.0542 157.241C48.3425 155.273 44.8016 152.999 41.469 150.441L32.6692 155.941L16.1221 138.875L22.5771 129.232C20.5974 125.935 18.8681 122.493 17.4041 118.937L5.80005 119.338ZM76.8462 128.478C84.4436 130.64 92.5113 130.5 100.029 128.077C107.547 125.653 114.178 121.055 119.083 114.863C123.987 108.671 126.945 101.164 127.583 93.291C128.222 85.4178 126.511 77.5323 122.667 70.6315C118.824 63.7307 113.02 58.1246 105.991 54.5222C98.9611 50.9197 91.0209 49.4826 83.1746 50.3927C75.3282 51.3028 67.9281 54.5192 61.9097 59.6351C55.8913 64.751 51.5249 71.5366 49.363 79.134C47.9273 84.1785 47.4993 89.4565 48.1035 94.6664C48.7077 99.8764 50.3322 104.916 52.8843 109.498C55.4364 114.08 58.8659 118.115 62.9773 121.372C67.0887 124.628 71.8015 127.043 76.8462 128.478V128.478Z" fill="#C5E1F9" data-name="Vector"/>
				<g style="mix-blend-mode:multiply" data-name="Vector" transform="translate(30.42 32.7)">
				<path d="M73.488 2.88797C84.4013 5.99442 94.1484 12.2673 101.497 20.9133C108.845 29.5594 113.464 40.1903 114.77 51.4616C116.076 62.733 114.011 74.1385 108.835 84.236C103.659 94.3335 95.6051 102.669 85.6916 108.189C75.7781 113.71 64.4502 116.166 53.1406 115.248C41.831 114.33 31.0476 110.079 22.154 103.033C13.2604 95.9861 6.6561 86.4606 3.17622 75.6606C-0.303652 64.8605 -0.502841 53.2712 2.60396 42.358C6.77062 27.7247 16.5792 15.3458 29.8723 7.94385C43.1653 0.541947 58.8542 -1.27669 73.488 2.88797V2.88797ZM45.3352 101.788C53.9832 104.249 63.1666 104.09 71.7243 101.331C80.282 98.5729 87.8296 93.3387 93.4125 86.2907C98.9955 79.2428 102.363 70.6975 103.09 61.7356C103.816 52.7737 101.869 43.7976 97.4936 35.9425C93.1186 28.0873 86.5127 21.7059 78.5109 17.6052C70.5092 13.5044 61.4712 11.8686 52.5397 12.9044C43.6083 13.9403 35.1844 17.6014 28.3337 23.4247C21.483 29.248 16.5129 36.972 14.052 45.62C12.4175 51.3621 11.9303 57.37 12.6179 63.3006C13.3055 69.2311 15.1546 74.9681 18.0595 80.184C20.9645 85.3999 24.8683 89.9924 29.5483 93.6994C34.2283 97.4064 39.5928 100.155 45.3352 101.789V101.788Z" fill="#EAF4FE" data-name="Vector"/>
				</g>
			</g>
		</g>
	</g>
</g>
<defs><clipPath id="clip_0_742"><rect width="473" height="520"/></clipPath>
<linearGradient id="paint_linear_236" x1="0.989" y1="3.6135" x2="7.736" y2="3.6135" gradientUnits="userSpaceOnUse">
<stop stop-color="#69AEEB"/>
<stop offset="1" stop-color="#69AEEB"/>
</linearGradient>

<linearGradient id="paint_linear_847" x1="0.989" y1="3.7945" x2="7.736" y2="3.7945" gradientUnits="userSpaceOnUse">
<stop stop-color="#69AEEB"/>
<stop offset="1" stop-color="#69AEEB"/>
</linearGradient>

<linearGradient id="paint_linear_424" x1="0.989" y1="3.976" x2="7.736" y2="3.976" gradientUnits="userSpaceOnUse">
<stop stop-color="#69AEEB"/>
<stop offset="1" stop-color="#69AEEB"/>
</linearGradient>

<linearGradient id="paint_linear_917" x1="0.563" y1="9.4225" x2="17.702" y2="9.4225" gradientUnits="userSpaceOnUse">
<stop stop-color="#69AEEB"/>
<stop offset="1" stop-color="#69AEEB"/>
</linearGradient>

<linearGradient id="paint_linear_652" x1="0.563" y1="9.417" x2="17.702" y2="9.417" gradientUnits="userSpaceOnUse">
<stop stop-color="#69AEEB"/>
<stop offset="1" stop-color="#69AEEB"/>
</linearGradient>

</defs>
</svg>