<svg xmlns="http://www.w3.org/2000/svg" width="370" height="294.217" viewBox="0 0 370 294.217"><g transform="translate(0 0)"><path d="M754.092,644.043c-5.121-4.328-8.232-11.164-7.416-17.819s5.869-12.773,12.423-14.187,14.026,2.5,16.016,8.9c1.1-12.344,2.358-25.205,8.921-35.717a37.826,37.826,0,0,1,27.39-17.548c11.155-1.219,22.9,3.383,29.856,12.188s8.66,21.6,3.788,31.712c-3.589,7.446-10.2,12.988-17.131,17.5a110.559,110.559,0,0,1-75.616,16.542" transform="translate(-478.086 -353.573)" fill="#f2f2f2" opacity="0.4"/><path d="M852.943,574.017a182.432,182.432,0,0,0-53.6,72.481c-.511,1.253,1.523,1.8,2.029.559a180.4,180.4,0,0,1,53.062-71.553c1.05-.855-.446-2.336-1.488-1.488Z" transform="translate(-500.778 -356.277)" fill="#fff"/><path d="M409.247,655.888H380.2a3.706,3.706,0,0,1-3.7-3.7V591.818a3.706,3.706,0,0,1,3.7-3.7h29.045a3.706,3.706,0,0,1,3.7,3.7v60.369a3.706,3.706,0,0,1-3.7,3.7Z" transform="translate(-318.787 -362.456)" fill="#fff"/><path d="M409.248,656.388H380.2a4.213,4.213,0,0,1-4.2-4.2V591.818a4.213,4.213,0,0,1,4.2-4.2h29.046a4.213,4.213,0,0,1,4.2,4.2v60.369A4.213,4.213,0,0,1,409.248,656.388Zm0-67.772H380.2a3.211,3.211,0,0,0-3.2,3.2v60.368a3.211,3.211,0,0,0,3.2,3.2h29.044a3.211,3.211,0,0,0,3.2-3.2V591.818A3.211,3.211,0,0,0,409.246,588.616Z" transform="translate(-318.787 -362.456)" fill="#707070"/><path d="M529.817,612.979H500.771a4.276,4.276,0,0,1-4.271-4.271V491.387a4.276,4.276,0,0,1,4.271-4.271h29.045a4.276,4.276,0,0,1,4.271,4.271v117.32A4.276,4.276,0,0,1,529.817,612.979ZM500.771,488.255a3.136,3.136,0,0,0-3.132,3.132v117.32a3.136,3.136,0,0,0,3.132,3.132h29.045a3.136,3.136,0,0,0,3.132-3.132V491.387a3.136,3.136,0,0,0-3.132-3.132Z" transform="translate(-370.445 -318.977)" fill="#fff"/><path d="M650.817,556.586H621.771a4.276,4.276,0,0,1-4.271-4.271V360.387a4.276,4.276,0,0,1,4.271-4.271h29.045a4.276,4.276,0,0,1,4.271,4.271V552.314A4.276,4.276,0,0,1,650.817,556.586Zm-29.045-199.33a3.136,3.136,0,0,0-3.132,3.132V552.314a3.136,3.136,0,0,0,3.132,3.132h29.045a3.136,3.136,0,0,0,3.132-3.132V360.387a3.136,3.136,0,0,0-3.132-3.132Z" transform="translate(-422.533 -262.583)" fill="#fff"/><path d="M773.376,497.539H744.331a3.706,3.706,0,0,1-3.7-3.7V223.318a3.706,3.706,0,0,1,3.7-3.7h29.045a3.706,3.706,0,0,1,3.7,3.7v270.52a3.706,3.706,0,0,1-3.7,3.7Z" transform="translate(-475.539 -203.822)" fill="#fff"/><path d="M773.377,498.04H744.331a4.213,4.213,0,0,1-4.2-4.2V223.318a4.213,4.213,0,0,1,4.2-4.2h29.046a4.213,4.213,0,0,1,4.2,4.2v270.52A4.213,4.213,0,0,1,773.377,498.04ZM744.331,220.116a3.211,3.211,0,0,0-3.2,3.2V493.838a3.211,3.211,0,0,0,3.2,3.2h29.045a3.211,3.211,0,0,0,3.2-3.2V223.318a3.211,3.211,0,0,0-3.2-3.2Z" transform="translate(-475.539 -203.822)" fill="#707070"/><path d="M467.055,395.336a5.727,5.727,0,0,0-5.97-6.44l-10.124-18.571-2.278,7.973,6.936,17.02a5.758,5.758,0,0,0,11.436.018Z" transform="translate(-349.86 -268.7)" fill="#a0616a"/><path d="M68.816,334.672l5.639,4.117L93.018,319,84.7,312.92Z" transform="translate(-29.624 -134.707)" fill="#a0616a"/><path d="M0,0H21.944V8.478H8.478A8.478,8.478,0,0,1,0,0H0Z" transform="matrix(-0.808, -0.59, 0.59, -0.808, 51.883, 217.256)" fill="#2f2e41"/><path d="M121.2,369.02h6.982l3.321-26.931H121.2Z" transform="translate(-52.174 -147.263)" fill="#a0616a"/><path d="M0,0H21.944V8.478H8.478A8.478,8.478,0,0,1,0,0H0Z" transform="translate(89.472 228.239) rotate(179.997)" fill="#2f2e41"/><path d="M414.242,391.119s3.417,33.032-5.126,55.813l-6.265,43.283H392.031l1.139-51.256L389.183,393.4S397.156,372.895,414.242,391.119Z" transform="translate(-324.246 -274.402)" fill="#2f2e41"/><path d="M84.842,205.927l11.39,39.3-22.211,35.31,11.106,9.4,25.343-39.581-7.4-48.409Z" transform="translate(-31.865 -86.932)" fill="#2f2e41"/><circle cx="13.988" cy="13.988" r="13.988" transform="translate(68.037 2.9)" fill="#a0616a"/><path d="M381.619,254.349s8.543-5.7,18.224,6.834l2.563,78.878s-7.4-10.251-22.781-.57-18.794-1.139-18.794-1.139S350.011,256.912,381.619,254.349Z" transform="translate(-311.272 -218.218)" fill="#ccc"/><path d="M421.53,266.964h0a9.97,9.97,0,0,1,9.418,9.431l1.807,34.335,11.96,32.462-6.834,5.7L415.67,310.161l-4.547-31.832a9.97,9.97,0,0,1,10.408-11.365Z" transform="translate(-333.648 -224.198)" fill="#ccc"/><path d="M396.714,219.265a3.959,3.959,0,0,0,6.831-2.2,4.019,4.019,0,0,0-.005-.776c-.154-1.474-1.005-2.812-.8-4.369a2.291,2.291,0,0,1,.419-1.072c1.822-2.44,6.1,1.091,7.82-1.118,1.055-1.355-.185-3.487.624-5,1.068-2,4.232-1.012,6.215-2.107,2.207-1.217,2.075-4.6.622-6.664a10.483,10.483,0,0,0-7.947-4.046,21.317,21.317,0,0,0-8.98,1.752c-3.255,1.268-6.482,3.021-8.485,5.883-2.436,3.48-2.67,8.159-1.452,12.228C392.318,214.251,394.846,217.275,396.714,219.265Z" transform="translate(-324.968 -191.884)" fill="#2f2e41"/><path d="M644.484,706.666H275.84a.678.678,0,0,1,0-1.356H644.484a.678.678,0,0,1,0,1.356Z" transform="translate(-275.162 -412.906)" fill="#fff"/></g></svg>