<svg xmlns="http://www.w3.org/2000/svg" width="51.6" height="51.6" viewBox="0 0 51.6 51.6"><path d="M107.629,120a16.629,16.629,0,1,0,16.629,16.629A16.648,16.648,0,0,0,107.629,120Zm1.512,25.7h-3.023v-3.023h3.023Zm.757-9.679a1.522,1.522,0,0,0-.757,1.311v2.321h-3.023v-2.321a4.55,4.55,0,0,1,2.266-3.927,1.512,1.512,0,1,0-2.266-1.311h-3.023a4.535,4.535,0,1,1,6.8,3.927Z" transform="translate(-81.829 -107.906)" fill="#fdb415"/><path d="M6.148,217.559A19.538,19.538,0,0,1,7.664,210H4.535A4.54,4.54,0,0,0,0,214.535v6.047a4.54,4.54,0,0,0,4.535,4.535H7.664A19.538,19.538,0,0,1,6.148,217.559Z" transform="translate(0 -188.836)" fill="#fdb415"/><path d="M439.085,210h-3.129a19.6,19.6,0,0,1,0,15.117h3.129a4.54,4.54,0,0,0,4.535-4.535v-6.047A4.54,4.54,0,0,0,439.085,210Z" transform="translate(-392.02 -188.836)" fill="#fdb415"/><path d="M76.709,18.141H78.77a7.451,7.451,0,0,1,1.071.108,22.671,22.671,0,0,0-44.471,0,7.451,7.451,0,0,1,1.071-.108H38.5a19.628,19.628,0,0,1,38.206,0Z" transform="translate(-31.806)" fill="#fdb415"/><path d="M263.676,388.76h-1.665a10.746,10.746,0,0,1-10.429,9.272H241v3.023h10.582a13.753,13.753,0,0,0,13.467-12.434A7.526,7.526,0,0,1,263.676,388.76Z" transform="translate(-216.712 -349.455)" fill="#fdb415"/></svg>