<svg xmlns="http://www.w3.org/2000/svg" xmlns:xlink="http://www.w3.org/1999/xlink" width="1170" height="898.991" viewBox="0 0 1170 898.991"><defs><linearGradient id="a" x1="0.459" y1="0.999" x2="0.459" y2="-0.006" gradientUnits="objectBoundingBox"><stop offset="0" stop-color="gray" stop-opacity="0.251"/><stop offset="0.54" stop-color="gray" stop-opacity="0.122"/><stop offset="1" stop-color="gray" stop-opacity="0.102"/></linearGradient></defs><ellipse cx="486.213" cy="37.753" rx="486.213" ry="37.753" transform="translate(49.914 718.314)" fill="#fdb415" opacity="0.1"/><g transform="translate(777.762 105.285)" opacity="0.1"><path d="M949.435,543.069c-2.906-8.82-14.689-12.882-26.313-9.061a28.315,28.315,0,0,0-4.839,2.094c-.744-.206-1.51-.389-2.288-.526a25.652,25.652,0,0,0,.721-7.768,28.143,28.143,0,0,0,12.47-24.562,28.177,28.177,0,0,0,12.424-24.562,27.183,27.183,0,0,0,9.415-10.662c5.606-11.1,3.283-23.567-5.194-27.857S925.925,441.4,920.32,452.5a27.1,27.1,0,0,0-3.009,13.9,28.177,28.177,0,0,0-12.424,24.562,28.177,28.177,0,0,0-12.424,24.562,28.189,28.189,0,0,0-12.47,24.574,27.181,27.181,0,0,0-9.415,10.662,29.128,29.128,0,0,0-2.38,6.567,24.226,24.226,0,0,0-5.079-5.411,29.037,29.037,0,0,0-1.144-5.148c-3.821-11.635-14.072-18.728-22.881-15.822s-12.882,14.678-9.061,26.313a26.393,26.393,0,0,0,8.649,12.676,29.041,29.041,0,0,0,1.144,5.148c2.219,6.75,6.6,11.967,11.612,14.586a26.575,26.575,0,0,0-.95,4.462,28.933,28.933,0,0,0-8.626,17.057,28.909,28.909,0,0,0-8.626,17.069,28.18,28.18,0,0,0-5.72,7.791c-5.617,11.1-3.295,23.578,5.182,27.857s19.906-1.224,25.523-12.333a28.167,28.167,0,0,0,2.86-9.255,28.932,28.932,0,0,0,8.626-17.057,28.909,28.909,0,0,0,8.626-17.069,28.842,28.842,0,0,0,8.523-17.058,28.842,28.842,0,0,0,8.649-17.092,27.592,27.592,0,0,0,3.878-4.576,26.839,26.839,0,0,0,14.037-.881,28.34,28.34,0,0,0,4.839-2.094,26.542,26.542,0,0,0,15.353-.549C945.2,562.151,952.33,551.9,949.435,543.069Z" transform="translate(-760.434 -107.41)" fill="#3f3d56"/><g transform="translate(65.24 362.131)" opacity="0.1"><path d="M916.425,499.53a24.6,24.6,0,0,1-3.936,3.146,26.308,26.308,0,0,1-1.27,9.644,29.952,29.952,0,0,0,2.4-3.924,28.193,28.193,0,0,0,2.8-8.866Z" transform="translate(-813.177 -460.782)"/><path d="M927.285,478.06a24.6,24.6,0,0,1-3.935,3.146,26.312,26.312,0,0,1-1.27,9.644,29.346,29.346,0,0,0,2.4-3.935,28.432,28.432,0,0,0,2.8-8.855Z" transform="translate(-811.612 -463.874)"/><path d="M902.883,470.705a25.071,25.071,0,0,1,.195-5.045,28.519,28.519,0,0,0-5.468,7.516,29.334,29.334,0,0,0-1.739,4.267A26.028,26.028,0,0,1,902.883,470.705Z" transform="translate(-815.388 -465.66)"/><path d="M833.07,601.063a26.987,26.987,0,0,1,3.375-3.867,26.212,26.212,0,0,1,1-4.576,28.7,28.7,0,0,0-2.62,4.244,29.313,29.313,0,0,0-1.75,4.2Z" transform="translate(-824.433 -447.374)"/><path d="M840.61,586.149a26.991,26.991,0,0,1,3.375-3.867,26.313,26.313,0,0,1,.949-4.462h0a29.372,29.372,0,0,0-2.517,4.107,30.609,30.609,0,0,0-1.807,4.221Z" transform="translate(-823.347 -449.506)"/><path d="M905.485,521.034a23.825,23.825,0,0,1-3.924,3.135,25.687,25.687,0,0,1-.721,7.768,21.441,21.441,0,0,1,2.288.526,28.333,28.333,0,0,1,4.839-2.094c11.646-3.821,23.418.24,26.313,9.061a13.363,13.363,0,0,1,.366,6.864c3.832-4.507,5.423-10,3.775-15.033-2.906-8.821-14.689-12.882-26.313-9.061a28.325,28.325,0,0,0-4.839,2.094c-.744-.206-1.51-.389-2.288-.526C905.2,522.853,905.359,521.949,905.485,521.034Z" transform="translate(-814.672 -457.723)"/><path d="M829.9,607.49a28.7,28.7,0,0,0-2.62,4.244,30.388,30.388,0,0,0-1.762,4.279,28.011,28.011,0,0,1,3.432-3.89A26.237,26.237,0,0,1,829.9,607.49Z" transform="translate(-825.52 -445.232)"/><path d="M891.973,492.175a25.17,25.17,0,0,1,.195-5.045,28.518,28.518,0,0,0-5.469,7.516,29.322,29.322,0,0,0-1.739,4.267A26.026,26.026,0,0,1,891.973,492.175Z" transform="translate(-816.959 -462.568)"/><path d="M875.544,579.541a27.789,27.789,0,0,1-1.144,5.011,30.528,30.528,0,0,0,2.391-3.935,29.157,29.157,0,0,0,1.865-4.576A27.723,27.723,0,0,1,875.544,579.541Z" transform="translate(-818.48 -449.762)"/><path d="M860.464,609.361a27.64,27.64,0,0,1-1.144,5.011,29.36,29.36,0,0,0,2.4-3.935,30.3,30.3,0,0,0,1.865-4.576,26.976,26.976,0,0,1-3.123,3.5Z" transform="translate(-820.652 -445.467)"/><path d="M868,594.432a27.58,27.58,0,0,1-1.144,5.011,30.513,30.513,0,0,0,2.448-3.867A29.168,29.168,0,0,0,871.173,591,27.717,27.717,0,0,1,868,594.432Z" transform="translate(-819.566 -447.607)"/><path d="M883.084,564.641a27.455,27.455,0,0,1-1.144,5,29.607,29.607,0,0,0,2.391-3.924,29.153,29.153,0,0,0,1.876-4.656A26.568,26.568,0,0,1,883.084,564.641Z" transform="translate(-817.394 -451.92)"/><path d="M834.287,527.6c8.832-2.894,19.082,4.187,22.881,15.822a29.388,29.388,0,0,1,1.144,5.16,24.233,24.233,0,0,1,5.08,5.411,29.2,29.2,0,0,1,2.38-6.578c.4-.778.835-1.522,1.281-2.288a24.1,24.1,0,0,0-4.576-4.782,29.03,29.03,0,0,0-1.144-5.148c-3.821-11.635-14.072-18.728-22.881-15.822-5.034,1.647-8.512,6.189-9.862,11.932a13.373,13.373,0,0,1,5.7-3.707Z" transform="translate(-825.078 -458.018)"/><path d="M870.253,535.114a24.991,24.991,0,0,1,.206-5.034,28.293,28.293,0,0,0-5.48,7.516,28.686,28.686,0,0,0-1.739,4.256,26.312,26.312,0,0,1,7.013-6.738Z" transform="translate(-820.087 -456.382)"/><path d="M881.113,513.634a24.986,24.986,0,0,1,.206-5.034,28.045,28.045,0,0,0-5.48,7.5,29.319,29.319,0,0,0-1.739,4.267,26.026,26.026,0,0,1,7.013-6.738Z" transform="translate(-818.523 -459.475)"/><path d="M852.924,624.277a27.742,27.742,0,0,1-1.144,5.022,29.44,29.44,0,0,0,4.267-8.569,26.968,26.968,0,0,1-3.123,3.546Z" transform="translate(-821.738 -443.325)"/></g><path d="M954.545,435.744a27.091,27.091,0,0,0,9.415-10.662c5.617-11.1,3.295-23.578-5.182-27.869s-19.906,1.236-25.523,12.344a27.09,27.09,0,0,0-3,13.934,28.177,28.177,0,0,0-12.424,24.562,27.01,27.01,0,0,0-9.415,10.662,28.241,28.241,0,0,0-1.728,4.221,23.853,23.853,0,0,1,12.321-9.152,14,14,0,0,0,17.778,8.969,23.852,23.852,0,0,1,0,15.342,29.162,29.162,0,0,0,2.38-3.89,27.092,27.092,0,0,0,3-13.9,28.109,28.109,0,0,0,12.424-24.562Z" transform="translate(-748.589 -113.596)" fill="#3f3d56"/><path d="M1094.21,312.722a82.365,82.365,0,0,0,9.976-5.526L1067.2,280.174l43.473,22.389a82.519,82.519,0,0,0,30.889-57.556l-73.881.755,74.042-12.378A82.37,82.37,0,1,0,978.606,254.3a82.464,82.464,0,0,0-15.17,9.152l38.611,53.689-46.356-47a82.462,82.462,0,0,0-23.075,75.06,82.37,82.37,0,1,0,115.6,58.46,82.37,82.37,0,0,0,45.99-90.939Z" transform="translate(-751.703 -148.039)" fill="#fdb415"/><path d="M939.9,274.8a82.107,82.107,0,0,0-7.265,53.438,82.37,82.37,0,1,0,115.6,58.46C1064.406,379.2,944.042,266.556,939.9,274.8Z" transform="translate(-751.7 -131.08)" opacity="0.1"/><circle cx="12.23" cy="12.23" r="12.23" transform="translate(268.797)" fill="#fdb415"/><circle cx="12.23" cy="12.23" r="12.23" transform="translate(340.231 7.848)" fill="#fdb415"/><circle cx="12.23" cy="12.23" r="12.23" transform="translate(367.779 117.744)" fill="#fdb415"/><circle cx="12.23" cy="12.23" r="12.23" transform="translate(330.598 172.623)" fill="#fdb415"/><circle cx="12.23" cy="12.23" r="12.23" transform="translate(279.803 286.603)" fill="#fdb415"/><circle cx="12.23" cy="12.23" r="12.23" transform="translate(279.803 286.603)" opacity="0.1"/><circle cx="12.23" cy="12.23" r="12.23" transform="translate(166.864 157.51)" fill="#fdb415"/><circle cx="12.23" cy="12.23" r="12.23" transform="translate(166.864 157.51)" opacity="0.1"/><path d="M914.853,476.653c-8.134-4.107-10.594-15.742-5.846-26.473-.252.435-.492.881-.721,1.35-5.617,11.1-3.295,23.567,5.182,27.857s19.906-1.236,25.512-12.333c.24-.458.446-.927.652-1.384C933.809,475.863,922.975,480.771,914.853,476.653Z" transform="translate(-748.801 -105.758)" opacity="0.1"/><path d="M904.293,497.534c-8.123-4.107-10.594-15.742-5.835-26.484-.252.446-.5.892-.732,1.35-5.617,11.1-3.295,23.578,5.182,27.857s19.906-1.224,25.523-12.333c.229-.458.446-.915.652-1.384C923.249,496.734,912.427,501.641,904.293,497.534Z" transform="translate(-750.322 -102.752)" opacity="0.1"/><path d="M893.732,518.4c-8.123-4.107-10.594-15.742-5.835-26.473-.252.435-.5.881-.732,1.35-5.617,11.1-3.283,23.567,5.194,27.857s19.895-1.236,25.512-12.333c.229-.458.446-.927.652-1.384C912.7,517.614,901.866,522.521,893.732,518.4Z" transform="translate(-751.842 -99.745)" opacity="0.1"/><path d="M883.213,539.333c-8.134-4.107-10.594-15.742-5.846-26.473-.252.435-.492.881-.732,1.339-5.606,11.1-3.283,23.578,5.194,27.868s19.906-1.236,25.512-12.344c.24-.458.446-.915.652-1.384C902.135,538.475,891.3,543.383,883.213,539.333Z" transform="translate(-753.358 -96.73)" opacity="0.1"/><path d="M872.623,560.153c-8.134-4.107-10.594-15.742-5.846-26.473-.252.435-.492.881-.721,1.35-5.617,11.1-3.295,23.567,5.182,27.857s19.906-1.236,25.523-12.333c.229-.458.446-.927.652-1.384C891.6,559.364,880.745,564.271,872.623,560.153Z" transform="translate(-754.883 -93.732)" opacity="0.1"/><path d="M862.063,581.033c-8.123-4.107-10.594-15.742-5.834-26.473-.252.435-.5.881-.732,1.339-5.617,11.1-3.295,23.578,5.194,27.869s19.849-1.247,25.569-12.344c.229-.458.446-.915.652-1.384C881.019,580.232,870.242,585.14,862.063,581.033Z" transform="translate(-756.404 -90.724)" opacity="0.1"/><path d="M851.5,601.9c-8.123-4.107-10.594-15.742-5.835-26.473-.252.446-.492.881-.732,1.35-5.606,11.1-3.283,23.567,5.194,27.857S870.035,603.4,875.64,592.3c.24-.458.446-.927.652-1.384C870.47,601.113,859.636,606.021,851.5,601.9Z" transform="translate(-757.924 -87.718)" opacity="0.1"/><path d="M840.953,622.783c-8.134-4.107-10.594-15.742-5.846-26.473q-.378.652-.721,1.339c-5.617,11.1-3.295,23.578,5.182,27.869s19.906-1.236,25.523-12.344c.229-.458.435-.915.641-1.384C859.909,621.982,849.075,626.844,840.953,622.783Z" transform="translate(-759.445 -84.711)" opacity="0.1"/><path d="M834.013,636.5c-8.123-4.119-10.594-15.742-5.835-26.484-.252.446-.5.892-.732,1.35-5.617,11.1-3.295,23.578,5.183,27.857s19.906-1.224,25.523-12.333c.229-.458.446-.915.652-1.384C852.969,635.7,842.135,640.611,834.013,636.5Z" transform="translate(-760.444 -82.736)" opacity="0.1"/><path d="M1038.736,547.962a42.789,42.789,0,0,0,2.288-11.2,6.109,6.109,0,1,0-.927-12.15,42.684,42.684,0,0,0-22.469-28.955,6.114,6.114,0,0,0-10.914-5.514,5.715,5.715,0,0,0-.549,1.636,42.89,42.89,0,0,0-37.6,11.269,43.071,43.071,0,0,0-11.234-.332l-4.954,22.549-.3-21.737a42.81,42.81,0,1,0,22.881,82.37,6.039,6.039,0,0,0,2.574,2.471A6.109,6.109,0,0,0,985.9,580.5a42.732,42.732,0,0,0,5.491-4.485,42.844,42.844,0,0,0,44.972-22.686l-23.052-3.878Z" transform="translate(-746.898 -100.486)" fill="#fdb415"/><g transform="translate(171.476 400.582)" opacity="0.1"><path d="M1003.13,557.112c-8.512-11.234-13.728-24.539-19.734-37.307a156.053,156.053,0,0,0-8.088-15.284L970.8,499.27c-.755.641-1.51,1.3-2.288,2a43.059,43.059,0,0,0-11.234-.332l-4.954,22.549-.3-21.737a42.81,42.81,0,1,0,22.881,82.37,6.039,6.039,0,0,0,2.574,2.471,6.109,6.109,0,0,0,8.374-7.871,42.734,42.734,0,0,0,5.491-4.484,42.89,42.89,0,0,0,25.672-3.8,60.3,60.3,0,0,1-13.888-13.328Z" transform="translate(-918.381 -499.27)"/></g><path d="M873.992,518.484a6.109,6.109,0,0,0-5.469-8.866,42.753,42.753,0,0,0-13.385-23.83A42.926,42.926,0,0,0,856.4,472.4l-22.48-3.833,21.828-1.373a43.48,43.48,0,0,0-1.613-6.041,6.246,6.246,0,0,0,2.013-2.288,6.121,6.121,0,0,0-7.539-8.512A42.81,42.81,0,0,0,772.2,485.73a6.007,6.007,0,0,0-3.043,2.86,6.109,6.109,0,0,0,7.722,8.432,42.934,42.934,0,0,0,8.111,9.9,42.787,42.787,0,0,0,1.991,27.182l30.145-7.825-26.885,14.14a42.81,42.81,0,0,0,78.835-18.6,6.1,6.1,0,0,0,4.919-3.329Z" transform="translate(-768.494 -108.337)" fill="#fdb415"/><path d="M872.085,512.017a6.109,6.109,0,0,0-5.469-8.866,42.753,42.753,0,0,0-13.385-23.83c.183-.721.343-1.43.48-2.151a15.082,15.082,0,0,0-2.208,1.956c-4.061,4.45-6.143,10.434-10.159,14.93-4.736,5.308-11.829,8.077-18.911,8.82s-14.209-.343-21.2-1.7c-5.789-1.144-11.658-2.471-17.527-1.911a9.8,9.8,0,0,0-1.67.217c.343.332.686.664,1.041.984a42.787,42.787,0,0,0,1.991,27.182l30.145-7.837-26.885,14.14a42.81,42.81,0,0,0,78.835-18.6,6.1,6.1,0,0,0,4.919-3.329Z" transform="translate(-766.586 -101.871)" opacity="0.1"/></g><g transform="translate(0 365.392)" opacity="0.1"><path d="M178.432,574.952c1.464-4.45,7.4-6.5,13.259-4.576a14.611,14.611,0,0,1,2.437,1.053c.378-.1.767-.195,1.144-.263a12.881,12.881,0,0,1-.366-3.913,14.255,14.255,0,0,1-6.258-12.378,14.216,14.216,0,0,1-6.258-12.367,13.729,13.729,0,0,1-4.736-5.377c-2.814-5.583-1.67-11.864,2.62-14.037s10.033.629,12.859,6.212a13.728,13.728,0,0,1,1.51,7.013,14.152,14.152,0,0,1,6.258,12.367,14.186,14.186,0,0,1,6.258,12.378,14.152,14.152,0,0,1,6.258,12.367,13.728,13.728,0,0,1,4.748,5.377,14.486,14.486,0,0,1,1.144,3.318,12.192,12.192,0,0,1,2.551-2.734,14.391,14.391,0,0,1,.595-2.6c1.933-5.857,7.093-9.427,11.543-8.008s6.487,7.4,4.576,13.259a13.351,13.351,0,0,1-4.359,6.4,14.493,14.493,0,0,1-.595,2.586,12.7,12.7,0,0,1-5.846,7.345,14.684,14.684,0,0,1,.48,2.288,14.38,14.38,0,0,1,2.894,3.924,14.094,14.094,0,0,1,1.441,4.668,14.358,14.358,0,0,1,2.906,3.924,14.175,14.175,0,0,1,1.441,4.668,14.243,14.243,0,0,1,2.906,3.935c2.826,5.583,1.659,11.875-2.608,14.026s-10.033-.618-12.859-6.212a14.277,14.277,0,0,1-1.441-4.668,14.529,14.529,0,0,1-4.347-8.592,14.529,14.529,0,0,1-4.347-8.592,14.415,14.415,0,0,1-2.906-3.924,14.561,14.561,0,0,1-1.441-4.667A14.378,14.378,0,0,1,207,595.224a14.094,14.094,0,0,1-1.442-4.668,13.307,13.307,0,0,1-1.956-2.288,13.613,13.613,0,0,1-7.07-.435,15.2,15.2,0,0,1-2.448-1.064,13.282,13.282,0,0,1-7.722-.275C180.56,584.562,176.979,579.4,178.432,574.952Z" transform="translate(-76.052 -355.469)" fill="#3f3d56"/><g transform="translate(102.108 182.439)" opacity="0.1"><path d="M187.17,553a12.266,12.266,0,0,0,1.991,1.59,12.939,12.939,0,0,0,.641,4.851,13.656,13.656,0,0,1-1.213-1.979A14.255,14.255,0,0,1,187.17,553Z" transform="translate(-176.568 -533.494)"/><path d="M181.7,542.2a12.825,12.825,0,0,0,1.991,1.579,13.03,13.03,0,0,0,.641,4.862A14.53,14.53,0,0,1,181.7,542.2Z" transform="translate(-177.356 -535.05)"/><path d="M194.142,538.49a12.708,12.708,0,0,0-.091-2.54,14.486,14.486,0,0,1,2.757,3.787,14.871,14.871,0,0,1,.869,2.151,13.065,13.065,0,0,0-3.535-3.4Z" transform="translate(-175.577 -535.95)"/><path d="M229.107,604.163a13.33,13.33,0,0,0-1.693-1.945,14.183,14.183,0,0,0-.5-2.288,15.131,15.131,0,0,1,1.316,2.128,14.868,14.868,0,0,1,.881,2.105Z" transform="translate(-170.844 -526.735)"/><path d="M225.274,596.653a13.333,13.333,0,0,0-1.693-1.945,13.438,13.438,0,0,0-.48-2.288h0a14.494,14.494,0,0,1,2.151,4.21Z" transform="translate(-171.393 -527.817)"/><path d="M194.774,563.86a11.571,11.571,0,0,0,1.979,1.567,12.469,12.469,0,0,0,.366,3.912,11.468,11.468,0,0,0-1.144.263,15.162,15.162,0,0,0-2.448-1.053c-5.857-1.922-11.795.126-13.248,4.576a6.659,6.659,0,0,0-.194,3.432,7.928,7.928,0,0,1-1.9-7.562c1.464-4.45,7.4-6.5,13.259-4.576a14.616,14.616,0,0,1,2.437,1.053c.378-.1.767-.195,1.144-.263A11.809,11.809,0,0,1,194.774,563.86Z" transform="translate(-177.902 -531.953)"/><path d="M230.71,607.4a14.634,14.634,0,0,1,1.316,2.139,14.869,14.869,0,0,1,.881,2.151,13.43,13.43,0,0,0-1.693-1.956A14.184,14.184,0,0,0,230.71,607.4Z" transform="translate(-170.297 -525.659)"/><path d="M199.612,549.32a12.676,12.676,0,0,0-.092-2.54,14.288,14.288,0,0,1,2.757,3.787,14.723,14.723,0,0,1,.869,2.139A13.019,13.019,0,0,0,199.612,549.32Z" transform="translate(-174.789 -534.39)"/><path d="M207.71,593.326a13.661,13.661,0,0,0,.561,2.517,14.447,14.447,0,0,1-2.151-4.313,13.4,13.4,0,0,0,1.59,1.8Z" transform="translate(-173.838 -527.945)"/><path d="M215.3,608.34a14.487,14.487,0,0,0,.572,2.517,13.643,13.643,0,0,1-1.213-1.979,14.732,14.732,0,0,1-.938-2.288A14.874,14.874,0,0,0,215.3,608.34Z" transform="translate(-172.744 -525.776)"/><path d="M211.51,600.83a13.659,13.659,0,0,0,.561,2.517,14.728,14.728,0,0,1-1.213-1.979,14.41,14.41,0,0,1-.938-2.288,13.412,13.412,0,0,0,1.59,1.75Z" transform="translate(-173.291 -526.857)"/><path d="M203.9,585.8a13.567,13.567,0,0,0,.561,2.528,14.223,14.223,0,0,1-1.144-1.979,13.987,13.987,0,0,1-.95-2.288A12.737,12.737,0,0,0,203.9,585.8Z" transform="translate(-174.378 -529.021)"/><path d="M230.661,567.151c-4.45-1.464-9.61,2.105-11.532,8.008a14.4,14.4,0,0,0-.595,2.6,12.161,12.161,0,0,0-2.563,2.723,14.675,14.675,0,0,0-1.2-3.318c-.194-.389-.412-.767-.641-1.144a12.162,12.162,0,0,1,2.288-2.4,14.394,14.394,0,0,1,.595-2.6c1.933-5.858,7.093-9.427,11.543-8.008a7.928,7.928,0,0,1,4.965,6.018,6.784,6.784,0,0,0-2.86-1.876Z" transform="translate(-172.685 -532.098)"/><path d="M210.552,570.94a12.708,12.708,0,0,0-.091-2.54,14.288,14.288,0,0,1,2.757,3.787,14.867,14.867,0,0,1,.869,2.151,12.9,12.9,0,0,0-3.535-3.4Z" transform="translate(-173.213 -531.276)"/><path d="M205.082,560.12a12.733,12.733,0,0,0-.092-2.54,14.679,14.679,0,0,1,2.757,3.787,14.874,14.874,0,0,1,.869,2.151,13.065,13.065,0,0,0-3.535-3.4Z" transform="translate(-174.001 -532.835)"/><path d="M219.1,615.85a13.615,13.615,0,0,0,.572,2.528,14.434,14.434,0,0,1-1.213-1.991,14.727,14.727,0,0,1-.938-2.288A14.87,14.87,0,0,0,219.1,615.85Z" transform="translate(-172.196 -524.694)"/></g><path d="M171.46,520.875a13.637,13.637,0,0,1-4.736-5.366c-2.826-5.594-1.659-11.875,2.608-14.037s10.033.618,12.859,6.212a13.648,13.648,0,0,1,1.51,7,14.186,14.186,0,0,1,6.258,12.378,13.729,13.729,0,0,1,4.748,5.366,15.134,15.134,0,0,1,.869,2.128,12.093,12.093,0,0,0-6.212-4.576,7.047,7.047,0,0,1-8.958,4.576,12.035,12.035,0,0,0,0,7.722,15.085,15.085,0,0,1-1.144-1.956,13.729,13.729,0,0,1-1.522-7,14.22,14.22,0,0,1-6.258-12.378Z" transform="translate(-77.627 -358.583)" fill="#3f3d56"/><path d="M113.562,458.965a42.1,42.1,0,0,1-5.022-2.78l18.625-13.614-21.9,11.269A41.574,41.574,0,0,1,89.72,424.85l37.227.389L89.64,418.992a41.517,41.517,0,1,1,82.153,10.525,42.022,42.022,0,0,1,7.642,4.576l-19.449,27.045,23.35-23.659a41.551,41.551,0,0,1,11.623,37.81,41.517,41.517,0,1,1-58.231,29.447,41.505,41.505,0,0,1-23.167-45.761Z" transform="translate(-88.507 -376)" fill="#fdb415"/><path d="M185.474,439.807a41.323,41.323,0,0,1,3.661,26.919A41.517,41.517,0,1,1,130.9,496.174C122.746,492.387,183.38,435.655,185.474,439.807Z" transform="translate(-82.683 -367.39)" opacity="0.1"/><circle cx="6.166" cy="6.166" r="6.166" transform="translate(49.857)" fill="#fdb415"/><circle cx="6.166" cy="6.166" r="6.166" transform="translate(13.866 3.958)" fill="#fdb415"/><circle cx="6.166" cy="6.166" r="6.166" transform="translate(0 59.318)" fill="#fdb415"/><circle cx="6.166" cy="6.166" r="6.166" transform="translate(18.728 86.969)" fill="#fdb415"/><circle cx="6.166" cy="6.166" r="6.166" transform="translate(44.308 144.388)" fill="#fdb415"/><circle cx="6.166" cy="6.166" r="6.166" transform="translate(44.308 144.388)" opacity="0.1"/><circle cx="6.166" cy="6.166" r="6.166" transform="translate(101.201 79.35)" fill="#fdb415"/><circle cx="6.166" cy="6.166" r="6.166" transform="translate(101.201 79.35)" opacity="0.1"/><path d="M189.823,541.489c4.1-2.071,5.331-7.928,2.94-13.339.126.229.252.446.366.675,2.826,5.594,1.659,11.875-2.62,14.037s-10.022-.618-12.847-6.212c-.114-.229-.229-.458-.332-.7C180.27,541.089,185.727,543.56,189.823,541.489Z" transform="translate(-75.877 -354.635)" opacity="0.1"/><path d="M195.131,552.01c4.1-2.071,5.343-7.94,2.952-13.339.126.217.252.446.366.675,2.826,5.594,1.659,11.875-2.62,14.037s-10.022-.618-12.847-6.212c-.126-.229-.229-.469-.332-.7C185.59,551.632,191.059,554.08,195.131,552.01Z" transform="translate(-75.111 -353.12)" opacity="0.1"/><path d="M200.451,562.519c4.1-2.071,5.343-7.928,2.94-13.339.137.229.252.446.378.686,2.826,5.583,1.647,11.875-2.62,14.026s-10.022-.618-12.847-6.212c-.126-.229-.229-.458-.332-.7C190.9,562.119,196.356,564.59,200.451,562.519Z" transform="translate(-74.345 -351.606)" opacity="0.1"/><path d="M205.771,573.039c4.1-2.071,5.343-7.928,2.94-13.339.126.217.252.446.366.675,2.837,5.594,1.659,11.875-2.608,14.037s-10.033-.618-12.859-6.212c-.114-.229-.217-.469-.32-.7C196.219,572.628,201.676,575.11,205.771,573.039Z" transform="translate(-73.579 -350.091)" opacity="0.1"/><path d="M211.093,583.548c4.1-2.071,5.331-7.928,2.94-13.328.126.217.252.446.366.675,2.826,5.594,1.659,11.875-2.608,14.037s-10.033-.629-12.859-6.212c-.114-.24-.217-.469-.332-.7C201.54,583.148,207,585.619,211.093,583.548Z" transform="translate(-72.814 -348.576)" opacity="0.1"/><path d="M216.413,594.069c4.1-2.071,5.331-7.928,2.94-13.339.126.229.252.446.366.675,2.826,5.594,1.659,11.875-2.608,14.037s-10.033-.618-12.859-6.212c-.114-.229-.229-.458-.332-.7C206.86,593.623,212.317,596.14,216.413,594.069Z" transform="translate(-72.048 -347.062)" opacity="0.1"/><path d="M221.733,604.589c4.084-2.071,5.331-7.94,2.94-13.339.126.217.252.446.366.675,2.826,5.594,1.659,11.875-2.62,14.037s-10.022-.629-12.847-6.212c-.114-.24-.229-.469-.332-.7C212.18,604.178,217.637,606.66,221.733,604.589Z" transform="translate(-71.281 -345.547)" opacity="0.1"/><path d="M227.041,615.1c4.1-2.071,5.343-7.928,2.94-13.339.137.229.252.446.378.686,2.826,5.583,1.647,11.875-2.62,14.026s-10.022-.618-12.847-6.212c-.126-.229-.229-.458-.332-.7C217.5,614.7,222.946,617.17,227.041,615.1Z" transform="translate(-70.515 -344.033)" opacity="0.1"/><path d="M230.573,622.01c4.1-2.071,5.331-7.928,2.94-13.339.126.229.252.446.366.686,2.826,5.583,1.659,11.875-2.608,14.026s-10.033-.618-12.859-6.212c-.114-.229-.229-.458-.332-.7C220.986,621.632,226.443,624.08,230.573,622.01Z" transform="translate(-70.008 -343.038)" opacity="0.1"/><path d="M133.39,577.41a21.243,21.243,0,0,1-1.144-5.64,3.077,3.077,0,1,1,.469-6.121,21.531,21.531,0,0,1,11.314-14.586,3.083,3.083,0,1,1,5.5-2.78,2.792,2.792,0,0,1,.275.824,21.645,21.645,0,0,1,18.945,5.72,21.368,21.368,0,0,1,5.72-.16l2.494,11.349.057-10.948a21.565,21.565,0,1,1-11.532,41.517,3.157,3.157,0,0,1-1.293,1.247,3.089,3.089,0,0,1-4.233-3.97,21.545,21.545,0,0,1-2.757-2.288,21.588,21.588,0,0,1-22.652-11.44l11.612-1.956Z" transform="translate(-82.813 -351.979)" fill="#fdb415"/><g transform="translate(61.457 201.807)" opacity="0.1"><path d="M149.429,582.018c4.29-5.72,6.921-12.356,9.942-18.785a76.319,76.319,0,0,1,4.073-7.711l2.288-2.643c.389.332.766.664,1.144,1.007a21.37,21.37,0,0,1,5.72-.16l2.494,11.349.034-10.914a21.565,21.565,0,1,1-11.532,41.517,3.158,3.158,0,0,1-1.293,1.247,3.089,3.089,0,0,1-4.233-3.97,21.544,21.544,0,0,1-2.757-2.288,21.736,21.736,0,0,1-12.939-1.911,30.418,30.418,0,0,0,7.059-6.738Z" transform="translate(-142.37 -552.88)"/></g><path d="M214.952,562.555a3.066,3.066,0,0,1,1.361-4.13,3.021,3.021,0,0,1,1.4-.332,21.565,21.565,0,0,1,6.738-12.012,21.4,21.4,0,0,1-.629-6.738l11.314-1.9-10.994-.7a21.33,21.33,0,0,1,.824-3.043,3.02,3.02,0,0,1-1.018-1.144,3.089,3.089,0,0,1,3.8-4.29,21.314,21.314,0,0,1,7.859-6.784,21.554,21.554,0,0,1,30.626,24.6,3.078,3.078,0,0,1-2.357,5.686,21.439,21.439,0,0,1-4.084,4.965,21.622,21.622,0,0,1-1,13.728l-15.135-3.981,13.534,7.127a21.576,21.576,0,0,1-37.559-1.762,21.863,21.863,0,0,1-2.219-7.608,3.055,3.055,0,0,1-2.46-1.682Z" transform="translate(-70.507 -355.931)" fill="#fdb415"/><path d="M214.952,559.3a3.066,3.066,0,0,1,1.361-4.13,3.021,3.021,0,0,1,1.4-.332,21.565,21.565,0,0,1,6.738-12.012c-.092-.355-.172-.721-.24-1.075a8.326,8.326,0,0,1,1.144.984c2.048,2.288,3.1,5.251,5.114,7.516a14.769,14.769,0,0,0,9.53,4.45,36.083,36.083,0,0,0,10.674-.858,31.291,31.291,0,0,1,8.832-.972l.847.114-.526.492a21.623,21.623,0,0,1-1,13.728l-15.17-3.981,13.534,7.127a21.576,21.576,0,0,1-37.559-1.762,21.862,21.862,0,0,1-2.219-7.608,3.055,3.055,0,0,1-2.46-1.682Z" transform="translate(-70.507 -352.676)" opacity="0.1"/></g><path d="M443.737,112.882a23.144,23.144,0,0,0-13.431,1.464,19.814,19.814,0,0,1-16.131,0,22.606,22.606,0,0,0-18.968.378,11.76,11.76,0,0,1-5.457,1.361c-7.688,0-14.083-7.745-15.41-17.961a14.953,14.953,0,0,0,3.844-4.141c4.508-7.265,11.44-11.932,19.323-11.932s14.747,4.576,19.254,11.795a14.873,14.873,0,0,0,12.767,7.024h.206C435.8,100.835,441.094,105.743,443.737,112.882Z" transform="translate(-47.502 -53.495)" fill="#fdb415" opacity="0.1"/><path d="M467.1,84.444,454.68,92.326,462.219,78.6a12.287,12.287,0,0,0-7.516-2.677h-.194a14.745,14.745,0,0,1-2.574-.194L447.712,78.4l1.808-3.283a15.09,15.09,0,0,1-7.368-5.549L434.59,74.3l4.759-8.66c-4.4-5.3-10.353-8.546-16.886-8.546-7.837,0-14.872,4.668-19.334,11.932a14.438,14.438,0,0,1-12.779,6.864h-.378c-8.649,0-15.673,9.8-15.673,21.92s7.024,21.908,15.673,21.908a11.761,11.761,0,0,0,5.457-1.361,22.56,22.56,0,0,1,18.968-.366,19.872,19.872,0,0,0,16.131,0,22.6,22.6,0,0,1,18.8.366,11.841,11.841,0,0,0,5.4,1.327c8.66,0,15.673-9.8,15.673-21.908A27.867,27.867,0,0,0,467.1,84.444Z" transform="translate(-47.508 -57.09)" fill="#fdb415" opacity="0.1"/><path d="M221.482,253.094a33.177,33.177,0,0,0-19.185,2.082,28.269,28.269,0,0,1-23.041-.057,32.284,32.284,0,0,0-27.091.538,16.875,16.875,0,0,1-7.8,1.945c-10.983,0-20.123-11.063-22.023-25.661a21.061,21.061,0,0,0,5.491-5.915c6.441-10.376,16.417-17.046,27.617-17.046s21.05,6.59,27.457,16.852a21.187,21.187,0,0,0,18.3,10.033h.286C210.167,235.853,217.741,242.866,221.482,253.094Z" transform="translate(-83.798 -35.213)" fill="#fdb415" opacity="0.1"/><path d="M254.9,212.409l-17.755,11.257,10.777-19.6a17.55,17.55,0,0,0-10.742-3.832h-.286a20.777,20.777,0,0,1-3.684-.275l-5.995,3.878,2.586-4.691a21.393,21.393,0,0,1-10.525-8.008L208.5,198.005l6.784-12.47c-6.3-7.562-14.792-12.2-24.128-12.2-11.2,0-21.176,6.658-27.617,17.035a20.65,20.65,0,0,1-18.3,9.85h-.606c-12.367,0-22.389,14.014-22.389,31.312s10.022,31.312,22.389,31.312a16.715,16.715,0,0,0,7.8-1.956,32.285,32.285,0,0,1,27.091-.526,28.269,28.269,0,0,0,23.041.057,32.319,32.319,0,0,1,26.862.515,16.76,16.76,0,0,0,7.711,1.911c12.367,0,22.389-14.026,22.389-31.312a39.766,39.766,0,0,0-4.622-19.128Z" transform="translate(-83.812 -40.346)" fill="#fdb415" opacity="0.1"/><path d="M836.62,151.889a23.155,23.155,0,0,1,13.431,1.464,19.781,19.781,0,0,0,16.12,0,22.606,22.606,0,0,1,18.968.378,11.794,11.794,0,0,0,5.457,1.361c7.688,0,14.094-7.745,15.422-17.961a14.794,14.794,0,0,1-3.844-4.141C897.688,125.7,890.675,121,882.816,121s-14.735,4.576-19.243,11.795a14.872,14.872,0,0,1-12.79,7.059h-.194C844.5,139.842,839.194,144.75,836.62,151.889Z" transform="translate(19.08 -47.885)" fill="#fdb415" opacity="0.1"/><path d="M816.547,123.437l12.424,7.859-7.551-13.728a12.31,12.31,0,0,1,7.516-2.677h.206a14.873,14.873,0,0,0,2.574-.194l4.21,2.677-1.808-3.283a15.113,15.113,0,0,0,7.436-5.526l7.539,4.782-4.771-8.66c4.416-5.3,10.3-8.546,16.9-8.546,7.837,0,14.872,4.668,19.334,11.932a14.426,14.426,0,0,0,12.779,6.864h.412c8.66,0,15.673,9.8,15.673,21.92s-7.013,21.908-15.673,21.908a11.83,11.83,0,0,1-5.457-1.361,22.56,22.56,0,0,0-18.968-.366,19.849,19.849,0,0,1-16.119,0,22.617,22.617,0,0,0-18.808.366,11.807,11.807,0,0,1-5.4,1.327c-8.649,0-15.673-9.8-15.673-21.908a27.87,27.87,0,0,1,3.226-13.385Z" transform="translate(15.724 -51.466)" fill="#fdb415" opacity="0.1"/><ellipse cx="131.564" cy="22.881" rx="131.564" ry="22.881" transform="translate(572.736 843.013)" fill="#fdb415" opacity="0.1"/><path d="M581.1,673.727l-203.855-2.62.606-5.228,9.85-86.249H566.736L579.9,665.879l1.007,6.544Z" transform="translate(54.335 83.484)" fill="#d0d2d5"/><path d="M580.91,661.564H479.183L377.25,660.248l.606-5.228H579.9Z" transform="translate(54.335 94.343)" opacity="0.1"/><rect width="270.506" height="6.532" transform="translate(397.608 750.678)" fill="#d0d2d5"/><path d="M997.61,186.069A17.012,17.012,0,0,0,980.678,169H225.252a17.012,17.012,0,0,0-16.932,17.092v457.9H997.61Z" transform="translate(-71.414 -40.972)" fill="#3f3d56"/><path d="M208.32,580.19v53.632a16.932,16.932,0,0,0,16.932,16.932H980.678a16.932,16.932,0,0,0,16.932-16.932V580.19Z" transform="translate(-71.414 18.252)" fill="#d0d2d5"/><g transform="translate(169 157)" fill="#fdb415" stroke="#707070" stroke-width="1"><rect width="728" height="409" stroke="none"/><rect x="0.5" y="0.5" width="727" height="408" fill="none"/></g><g transform="translate(201.944 274.418)"><path d="M161.918,22.962,146.479,7.523,84.721,69.282,22.962,7.523,7.523,22.962,69.282,84.721,7.523,146.479l15.438,15.438,61.759-61.759,61.759,61.759,15.438-15.438L100.159,84.721Z" transform="translate(-7.523 0.087)" fill="#fff"/><rect width="476" height="20" rx="10" transform="translate(182.057 -0.418)" fill="#fff"/><rect width="476" height="19" rx="9.5" transform="translate(182.057 40.582)" fill="#fff"/><rect width="476" height="19" rx="9.5" transform="translate(182.057 120.582)" fill="#fff"/><rect width="476" height="19" rx="9.5" transform="translate(182.057 79.582)" fill="#fff"/><rect width="476" height="20" rx="10" transform="translate(182.057 159.582)" fill="#fff"/></g><path d="M558.928,628.524a17.619,17.619,0,0,0,13.877-6.738h0a18.361,18.361,0,0,0,1.373-2.014l-9.69-1.636,10.468.069a17.64,17.64,0,0,0,.332-13.969l-14.037,7.276,12.95-9.518a17.641,17.641,0,1,0-29.138,19.746h0a17.618,17.618,0,0,0,13.866,6.784Z" transform="translate(-23.453 20.13)" fill="#fdb415"/><path d="M483.48,584.77l81.329,81.684L552.328,584.77Z" transform="translate(69.636 84.225)" opacity="0.1"/><rect width="728.656" height="24.048" transform="translate(169.008 156.789)" fill="#444053" opacity="0.1"/><rect width="219.539" height="14.632" rx="0.58" transform="translate(421.999 160.977)" fill="#fdb415" opacity="0.3"/><path d="M644.771,206.44h-.538l-.195-.172a4.45,4.45,0,0,0,1.03-2.849,4.324,4.324,0,1,0-4.313,4.359,4.462,4.462,0,0,0,2.848-1.041l.195.172v.538l3.352,3.352,1-1.007Zm-4.016,0a3,3,0,1,1,2.135-.882,3.02,3.02,0,0,1-2.135.882Z" transform="translate(-9.755 -36.632)" fill="#3f3d56"/><circle cx="4.405" cy="4.405" r="4.405" transform="translate(177.702 164.409)" fill="#fa5959" opacity="0.8"/><circle cx="4.405" cy="4.405" r="4.405" transform="translate(189.818 164.409)" fill="#fed253" opacity="0.8"/><circle cx="4.405" cy="4.405" r="4.405" transform="translate(201.944 164.409)" fill="#8ccf4d" opacity="0.8"/><path d="M794.045,846.536a10.938,10.938,0,0,0-2.482-2.757c-5-4.725-7.322-11.658-8.557-18.453s-1.59-13.728-3.569-20.375a67.194,67.194,0,0,0-4.027-9.919c-1.144-2.448-2.586-7.242-4.679-8.958a3.087,3.087,0,0,0-1.442-.7,16.99,16.99,0,0,0-4.141-5.514c-3.272-2.963-7.265-5.32-9.45-9.152a20.6,20.6,0,0,0-2.208-3.764c-1.476-1.625-3.81-2.288-5.171-4-1.773-2.219-1.373-5.4-1.144-8.226s0-6.212-2.448-7.7c-1.464-.9-3.352-.812-4.874-1.613-2.288-1.144-3.192-4.027-3.146-6.6s.847-5.08,1.052-7.654c.641-8.191-4.759-16.337-2.677-24.276.789-3.009,2.6-5.617,3.936-8.42a17.588,17.588,0,0,0,1.144-2.906,40.88,40.88,0,0,0,11.143,2.688c-6.3-14.14-4.7-30.568-7.642-45.761l.378-.515a23.842,23.842,0,0,0,4.828-13.568c0-5.652-2.643-10.937-3.832-16.474-1.018-4.7-.972-9.621-2.288-14.243a43.076,43.076,0,0,0-3.615-8.26q-2.139-3.97-4.5-7.814-2.2-7.276-4.4-14.552c-2.059-6.807-4.176-13.728-8.18-19.609-1.464-2.151-1.911-6.521-4.164-7.825a10.078,10.078,0,0,0-5.949-1.041c-3.18-1.785-5.972-4.359-6.372-7.882a7.643,7.643,0,0,1,.229-2.288h.389c5.034-.458,7.585-4.9,10.2-8.786,4.233-6.292,2.62-14.8,0-21.965a14.873,14.873,0,0,0-3.432-6.052c-3.672-3.432-9.484-2.677-14.22-4.336-1.59-.549-3.077-1.384-4.7-1.773-3.146-.732-6.441.3-9.324,1.75s-5.571,3.329-8.592,4.473-6.75,2.048-7.493,5.148a5.72,5.72,0,0,0,.252,3.123,11.647,11.647,0,0,0,3.535,5.1,20.375,20.375,0,0,0,12.436,28.395c.869,1.4,1.682,2.814,2.425,4.267,1.327,2.563,2.448,5.583,1.991,8.329a25.663,25.663,0,0,0-2.288,2.8c-3.283,4.576-5.148,9.942-6.864,15.3a162.048,162.048,0,0,0-5.526,20.9c-2.792,5.938-6.2,11.612-8.226,17.847a40.283,40.283,0,0,1-10.731-1.441l-9.656-2.185c-3.363-.766-6.864-1.59-9.5-3.81-1.4-1.144-2.482-2.666-3.9-3.8s-4.267-2.46-5.823-1.522a4.584,4.584,0,0,0-.789.606c-1.419-2.871-2.769-5.72-4.416-8.5-2.368-3.89-5.892-7.448-10.353-8.191a10.537,10.537,0,0,0-7.768,1.808c-2.608,1.853-4.244,5.72-2.288,8.329a15.2,15.2,0,0,0,1.59,1.624,33.418,33.418,0,0,1,3.535,4.908A25.066,25.066,0,0,0,621.7,610.774l-.4,1.144c-.812,2.38-2.54,5.251-2.105,7.722l42.947,14.7a26.46,26.46,0,0,0,8.649,1.911,13.966,13.966,0,0,0,3.432-.458v2.288c.114,15.09-2.288,30.077-2.734,45.155-.08,2.757,0,5.72,1.739,7.871,1.945,2.357,5.4,2.826,8.409,2.288a19.573,19.573,0,0,0,2.128-.48,79.3,79.3,0,0,1,2.2,11.566l2.837,20.432a31.048,31.048,0,0,1,.446,6.338c-.332,4.793-2.86,9.084-4.69,13.511s-2.917,9.724-.515,13.866c.755,1.281,1.8,2.368,2.471,3.7a15.034,15.034,0,0,1,1.144,6.5q.263,9.244.5,18.51a2.093,2.093,0,0,0-1.442.286c-2.38,1.853-2.116,10.674-2.288,13.408-.183,4.576,0,9.244-.252,13.866a82.618,82.618,0,0,1-2.986,18.408,11.771,11.771,0,0,1-2.62,5.274,11.14,11.14,0,0,1-4.656,2.414,53.184,53.184,0,0,1-17.63,2.4c-2.414-.08-4.931-.309-7.173.606s-4.05,3.432-3.238,5.72c.7,1.922,2.814,2.837,4.725,3.558a74.973,74.973,0,0,1,12.584,5.789,34.025,34.025,0,0,0,4.862,2.757,25.066,25.066,0,0,0,5.011,1.236l20.284,3.5c4.153.709,9.152,1.144,11.795-2.288,1.43-1.853,1.636-4.37,1.567-6.727-.114-4.576-1.03-9.232-.435-13.808a42.5,42.5,0,0,1,2.128-7.928q3.032-9,6.086-18c2.036-6.018,4.1-12.092,4.885-18.407.286-2.288.263-4.9-1.487-6.326a4.053,4.053,0,0,0-1.51-.778c-.069-5.514-.789-11.04-.48-16.554.08-1.373.217-2.746.332-4.13a20.148,20.148,0,0,1,2.826,3.341c1.956,3.066,2.677,7.116,5.663,9.152,2.54,1.739,6.3,1.647,8.088,4.164a11.74,11.74,0,0,1,1.281,3.1,22.1,22.1,0,0,0,4.576,7.265,36.611,36.611,0,0,0,2.826,7.253q2.528,5.343,5.034,10.651a124.232,124.232,0,0,0,5.72,11.177,31.522,31.522,0,0,1,3.832,7.391c1.613,5.651-1.018,11.852-5.182,16.016s-9.656,6.555-15.067,8.786a4.245,4.245,0,0,0-1.533.915,2.965,2.965,0,0,0-.7,1.991c0,2.643,2.174,4.908,4.668,5.72a17.458,17.458,0,0,0,7.814.286c14.621-1.773,29.2-5.343,42.123-12.447a14.87,14.87,0,0,0,5.022-3.878,5.869,5.869,0,0,0,.835-5.961Z" transform="translate(-14.96 6.018)" fill="url(#a)"/><path d="M717.232,579.5q3.661,5.617,6.864,11.509a42.329,42.329,0,0,1,3.627,8.2c1.327,4.576,1.293,9.461,2.288,14.129,1.144,5.491,3.821,10.731,3.821,16.36A23.522,23.522,0,0,1,729,643.157a63.857,63.857,0,0,1-10.09,10.411,214.641,214.641,0,0,1-14.278-70.026c-.114-3.318-.137-6.738,1.076-9.839.744-1.945,4.313-7.276,6.612-5.182.835.766,1.052,4.221,1.567,5.377a41.32,41.32,0,0,0,3.34,5.606Z" transform="translate(0.063 16.503)" fill="#2f2e41"/><path d="M717.232,579.5q3.661,5.617,6.864,11.509a42.329,42.329,0,0,1,3.627,8.2c1.327,4.576,1.293,9.461,2.288,14.129,1.144,5.491,3.821,10.731,3.821,16.36A23.522,23.522,0,0,1,729,643.157a63.857,63.857,0,0,1-10.09,10.411,214.641,214.641,0,0,1-14.278-70.026c-.114-3.318-.137-6.738,1.076-9.839.744-1.945,4.313-7.276,6.612-5.182.835.766,1.052,4.221,1.567,5.377a41.32,41.32,0,0,0,3.34,5.606Z" transform="translate(0.063 16.503)" opacity="0.1"/><path d="M466.2,445.676c-9.049,9.038-10.136,13.019-15.57,14.815s-24.986,11.921-18.842,23.144l16.52,10.914.481.32,2.528,7.6-24.986,44.48s-41.185-18.831-45.224,9.026-1.476,35.465-2.563,50.337.355,19.174-3.272,19.174-5.057-9.77-5.057-9.77-.229-.446-.629-1.281c-5.388-11.2-41.963-93.422,16.623-149.937,0,0,27.136-1.785,33.669-32.9,4.508-21.508,20.272-19.654,30.752-15.273a34.754,34.754,0,0,1,9.4,5.526,46.31,46.31,0,0,1,6.738,8.008C469.763,434.567,471.387,440.482,466.2,445.676Z" transform="translate(-50.521 -5.75)" fill="#d0d2d5"/><path d="M447.071,484.663l2.528,7.6-24.986,44.48s-41.185-18.831-45.224,9.026-1.476,35.465-2.563,50.337.355,19.174-3.272,19.174-5.057-9.77-5.057-9.77-.229-.446-.629-1.281c-1.819-13.911-11.04-95.286,22.389-90.962,0,0,27.125,12.676,31.461,7.619,3.432-4,18.671-27.034,24.871-36.483Z" transform="translate(-48.799 4.456)" opacity="0.1"/><path d="M458.772,429.442l-16.52,18.774s-19.185,25.672-23.167,24.585a18.564,18.564,0,0,0-3.627-.423,7.047,7.047,0,0,1-4.576-11.875c6.544-6.864,18.6-19.895,19.391-22.789s8.466-15.582,12.31-21.794a34.756,34.756,0,0,1,9.4,5.526,46.315,46.315,0,0,1,6.784,8Z" transform="translate(-42.517 -5.408)" opacity="0.1"/><path d="M925.087,688.821c-2.8,5.606-17.16,26.633-23.441,35.82l-2.94,4.324s-1.144,7.6-19.895-1.819S419.506,531.837,419.506,531.837l-2.986-8.969,21.737-32.548L921.118,676.877S928.714,681.579,925.087,688.821Z" transform="translate(-41.427 5.308)" fill="#454b69"/><path d="M901.646,720.543l-2.94,4.324s-1.144,7.6-19.895-1.819S419.506,527.739,419.506,527.739l-2.986-8.969Z" transform="translate(-41.427 9.406)" opacity="0.1"/><path d="M610.387,589.041c-4.473-.732-9.438-.378-12.916,2.528a10.628,10.628,0,0,0-3.707,7.047c-.3,3.169,1.544,6.933,4.725,7.173a15.054,15.054,0,0,0,2.288-.149,34.2,34.2,0,0,1,5.995.5,24.471,24.471,0,0,0,20.856-8.42c2.734-3.432-.869-4.919-4.1-5.606C619.116,591.18,614.8,589.75,610.387,589.041Z" transform="translate(-15.903 19.48)" fill="#fbbebe"/><path d="M675.721,682.957l2.837,20.158a30.71,30.71,0,0,1,.435,6.3c-.332,4.748-2.86,9-4.679,13.4s-2.929,9.656-.515,13.728c.744,1.27,1.785,2.357,2.46,3.672a14.78,14.78,0,0,1,1.144,6.441l.778,28.6a179.966,179.966,0,0,0,26.519-.149,1.476,1.476,0,0,0,.961-.3,1.556,1.556,0,0,0,.332-1.041c.389-6.693-.778-13.4-.4-20.089.137-2.448.48-4.885.526-7.345.137-9.965-4.782-19.723-3.295-29.573a65.221,65.221,0,0,1,1.831-7.356c4.7-17.16,3.707-35.19,2.666-52.911a1.246,1.246,0,0,0-.229-.8,1.213,1.213,0,0,0-.618-.332,32.548,32.548,0,0,0-29.493,5.606c-1.247,1.007-4.393,1.979-5.217,3.18-1.144,1.67.355,3.341,1.018,5.114a65.071,65.071,0,0,1,2.94,13.694Z" transform="translate(-4.724 28.882)" fill="#3f3d56"/><path d="M675.721,682.957l2.837,20.158a30.71,30.71,0,0,1,.435,6.3c-.332,4.748-2.86,9-4.679,13.4s-2.929,9.656-.515,13.728c.744,1.27,1.785,2.357,2.46,3.672a14.78,14.78,0,0,1,1.144,6.441l.778,28.6a179.966,179.966,0,0,0,26.519-.149,1.476,1.476,0,0,0,.961-.3,1.556,1.556,0,0,0,.332-1.041c.389-6.693-.778-13.4-.4-20.089.137-2.448.48-4.885.526-7.345.137-9.965-4.782-19.723-3.295-29.573a65.221,65.221,0,0,1,1.831-7.356c4.7-17.16,3.707-35.19,2.666-52.911a1.246,1.246,0,0,0-.229-.8,1.213,1.213,0,0,0-.618-.332,32.548,32.548,0,0,0-29.493,5.606c-1.247,1.007-4.393,1.979-5.217,3.18-1.144,1.67.355,3.341,1.018,5.114a65.071,65.071,0,0,1,2.94,13.694Z" transform="translate(-4.724 28.882)" opacity="0.1"/><path d="M726.9,677.762c-1.339,2.78-3.135,5.366-3.936,8.351-2.082,7.882,3.306,16.017,2.666,24.093-.206,2.551-1,5.034-1.052,7.585s.881,5.388,3.146,6.567c1.522.778,3.432.7,4.862,1.59,2.414,1.476,2.688,4.828,2.448,7.642s-.641,5.96,1.144,8.157c1.361,1.7,3.7,2.368,5.16,3.981a19.637,19.637,0,0,1,2.208,3.73c2.185,3.821,6.178,6.155,9.45,9.152s6.041,7.391,4.576,11.543c-1.075,3.043-4.1,4.919-7,6.349a74.292,74.292,0,0,1-16.669,5.892,4.027,4.027,0,0,1-1.91.1,4.084,4.084,0,0,1-1.67-1.144c-3.375-3.306-6.864-6.773-8.42-11.223a11.525,11.525,0,0,0-1.281-3.066c-1.785-2.505-5.549-2.414-8.088-4.141-2.974-2.025-3.7-6.04-5.64-9.072s-4.793-4.839-6.864-7.5c-3.5-4.439-4.359-10.365-6.864-15.433-1.064-2.151-2.425-4.164-3.272-6.407a34.987,34.987,0,0,1-1.567-8.283c-1.613-13.362-5.72-26.816-3.135-40.041.572-2.906,1.453-5.72,1.819-8.717.629-5.182-.366-10.491.4-15.662a4.313,4.313,0,0,1,1.727-3.329,4.577,4.577,0,0,1,1.968-.4,134.155,134.155,0,0,1,20.341.458c3.432.332,7.276,1.03,9.335,3.833,1.75,2.4,1.659,5.617,2.219,8.534.7,3.592,2.517,5.549,4.427,8.363S728.3,674.856,726.9,677.762Z" transform="translate(-2.851 28.002)" fill="#3f3d56"/><path d="M706.9,755.858c1.808,0,3.81-.114,5.205,1.03,1.739,1.43,1.762,4.05,1.487,6.281-.8,6.269-2.849,12.3-4.9,18.3l-6.086,17.858a41.943,41.943,0,0,0-2.128,7.871c-.595,4.576.32,9.152.435,13.728,0,2.288-.149,4.828-1.579,6.67-2.586,3.329-7.631,2.94-11.784,2.288L667.3,826.457a24.1,24.1,0,0,1-5.011-1.224,35.009,35.009,0,0,1-4.862-2.734,74.831,74.831,0,0,0-12.584-5.72c-1.9-.709-4.027-1.613-4.713-3.524-.812-2.288,1-4.8,3.238-5.72s4.748-.686,7.173-.618a53.772,53.772,0,0,0,17.618-2.38,11.143,11.143,0,0,0,4.645-2.4,11.441,11.441,0,0,0,2.677-5.388,80.275,80.275,0,0,0,3.066-18.3c.24-4.576.08-9.152.263-13.728.114-2.711-.149-11.44,2.231-13.305,1.819-1.4,9.3,2.46,11.761,3.02A57.2,57.2,0,0,0,706.9,755.858Z" transform="translate(-9.249 42.869)" fill="#2f2e41"/><path d="M762.583,768.831c1.979,6.555,2.288,13.488,3.569,20.226s3.546,13.614,8.546,18.3a11.288,11.288,0,0,1,2.483,2.746,5.789,5.789,0,0,1-.858,5.983,15.018,15.018,0,0,1-5.022,3.855c-12.916,7.047-27.457,10.605-42.112,12.367a17.745,17.745,0,0,1-7.8-.286c-2.494-.847-4.7-3.089-4.656-5.72a2.918,2.918,0,0,1,.686-1.979,4.269,4.269,0,0,1,1.544-.9c5.4-2.219,10.88-4.633,15.055-8.729s6.8-10.3,5.182-15.856a31.367,31.367,0,0,0-3.855-7.333,123.964,123.964,0,0,1-5.72-11.086l-5.034-10.56c-1.476-3.089-2.963-6.269-3.215-9.678a46.445,46.445,0,0,0,18.556-2.975,29.178,29.178,0,0,0,7.631-4.576c1.945-1.625,3.718-4.656,6.338-2.54,2.105,1.693,3.432,6.464,4.668,8.878a65.2,65.2,0,0,1,4.016,9.861Z" transform="translate(1.812 42.619)" fill="#2f2e41"/><path d="M695.251,538.217c.5,4.393,4.759,7.288,8.82,9.026l-25.706,8.2c1.659-3.18.32-7.07-1.327-10.3a58.273,58.273,0,0,0-4.576-7.333c-.252-.355-.538-.8-.355-1.213a1.282,1.282,0,0,1,.721-.561c5.285-2.357,10.731-4.793,16.508-5.652,1.67-.24,4.828-.9,6.075.789S695.011,536.192,695.251,538.217Z" transform="translate(-4.623 11.032)" fill="#fbbebe"/><path d="M695.251,538.217c.5,4.393,4.759,7.288,8.82,9.026l-25.706,8.2c1.659-3.18.32-7.07-1.327-10.3a58.273,58.273,0,0,0-4.576-7.333c-.252-.355-.538-.8-.355-1.213a1.282,1.282,0,0,1,.721-.561c5.285-2.357,10.731-4.793,16.508-5.652,1.67-.24,4.828-.9,6.075.789S695.011,536.192,695.251,538.217Z" transform="translate(-4.623 11.032)" opacity="0.1"/><circle cx="20.158" cy="20.158" r="20.158" transform="translate(655.53 512.491)" fill="#fbbebe"/><path d="M664.217,685.5c1.956,2.345,5.4,2.8,8.409,2.288,7.036-1.144,12.79-6.327,19.677-8.191,8.443-2.288,17.378.652,25.352,4.256s15.9,8.008,24.62,8.626c-7.882-17.572-3.375-38.714-10.914-56.435-1.842-4.336-4.416-8.512-4.828-13.2-.515-5.823,2.391-11.44,2.837-17.229.412-5.16-1.144-10.3-2.631-15.216l-5.514-18.121c-2.059-6.761-4.176-13.637-8.168-19.449-1.476-2.139-1.922-6.475-4.164-7.768-4.9-2.826-12.321.732-17.63.927s-10.147,3.97-13.248,8.237c-3.283,4.507-5.148,9.873-6.864,15.181a144.319,144.319,0,0,0-6.1,24.288c-.172,1.236-.32,2.471-.435,3.718-1.144,11.749.526,23.567.618,35.373v.08c.114,14.975-2.288,29.859-2.734,44.823C662.456,680.419,662.524,683.4,664.217,685.5Z" transform="translate(-5.999 13.036)" fill="#2f2e41"/><path d="M665.048,631.3c3.947-1,7.516-3.546,10.582-6.338a44.245,44.245,0,0,0,7.024-8.008,57.049,57.049,0,0,0,6.052-12.664,147.992,147.992,0,0,0,8.008-36.918c.3-3.432.389-7.116-1.659-9.839a8.283,8.283,0,0,0-10.01-2.425c-2.7,1.316-4.45,3.981-6.075,6.532-3.215,5.057-6.452,10.182-8.523,15.81-.915,2.494-1.59,5.057-2.482,7.562a69.777,69.777,0,0,1-3.135,7.242c-.172,1.236-.32,2.471-.435,3.718C663.331,607.72,664.956,619.492,665.048,631.3Z" transform="translate(-5.777 14.529)" opacity="0.1"/><path d="M701.8,555.6c2.048,2.723,1.956,6.441,1.67,9.827a147.786,147.786,0,0,1-8.008,36.918,56.557,56.557,0,0,1-6.052,12.767,44.7,44.7,0,0,1-7.024,8.008c-3.89,3.546-8.626,6.715-13.9,6.761A26.5,26.5,0,0,1,659.837,628l-42.958-14.621c-.435-2.448,1.293-5.308,2.105-7.665l2.288-6.784c.652-1.876,1.407-3.9,3.112-4.919s4.4.378,5.823,1.51,2.494,2.62,3.89,3.775c2.643,2.2,6.132,3.02,9.5,3.775l9.644,2.162a40.27,40.27,0,0,0,10.731,1.43c2.688-8.214,7.8-15.444,10.7-23.59.892-2.494,1.567-5.068,2.494-7.562,2.059-5.629,5.308-10.742,8.523-15.81,1.613-2.54,3.363-5.205,6.075-6.532A8.271,8.271,0,0,1,701.8,555.6Z" transform="translate(-12.579 14.248)" fill="#2f2e41"/><path d="M688.477,530.82a10.167,10.167,0,0,0-1.213-3.775,3.169,3.169,0,0,0-3.432-1.51c-2.013.629-2.688,3.741-4.794,3.844-1.419.069-2.437-1.373-2.883-2.723s-.686-2.894-1.75-3.844a6.521,6.521,0,0,0-2.494-1.144c-4.885-1.545-9.93-4.393-11.555-9.255a5.536,5.536,0,0,1-.263-3.1c.744-3.077,4.576-4,7.493-5.114s5.72-3.009,8.58-4.45,6.178-2.46,9.324-1.727a48.6,48.6,0,0,1,4.7,1.75c4.736,1.647,10.536.881,14.209,4.3a14.679,14.679,0,0,1,3.432,5.995c2.563,7.116,4.187,15.559-.057,21.805-2.62,3.855-5.16,8.26-10.193,8.729C691.726,541.093,689.4,535.785,688.477,530.82Z" transform="translate(-6.361 6.382)" fill="#2f2e41"/><g transform="translate(653.669 511.908)" opacity="0.1"><path d="M679.525,523.255c-.446-1.35-.686-2.894-1.739-3.844a6.522,6.522,0,0,0-2.494-1.144c-4.9-1.544-9.93-4.393-11.566-9.255a5.642,5.642,0,0,1-.252-3.1,3.881,3.881,0,0,1,.606-1.362c-1.865.812-3.489,1.888-3.947,3.787a5.538,5.538,0,0,0,.263,3.1c1.625,4.862,6.67,7.711,11.555,9.255a6.52,6.52,0,0,1,2.494,1.144c1.064.95,1.293,2.483,1.75,3.844s1.464,2.791,2.883,2.723,2.105-1.361,3.009-2.448C680.841,525.795,679.937,524.513,679.525,523.255Z" transform="translate(-660.023 -504.55)"/><path d="M697.837,534.962c-5.88.538-8.2-4.816-9.152-9.747a9.952,9.952,0,0,0-1.144-3.775,3.18,3.18,0,0,0-3.432-1.51,6.086,6.086,0,0,0-2.528,2.288,3.432,3.432,0,0,1,2.586,1.6,10.172,10.172,0,0,1,1.213,3.775c.927,4.931,3.249,10.3,9.152,9.747a9.438,9.438,0,0,0,6.041-3.135A8.531,8.531,0,0,1,697.837,534.962Z" transform="translate(-656.919 -502.346)"/></g><ellipse cx="36.941" cy="7.104" rx="36.941" ry="7.104" transform="translate(893.282 743.128)" fill="#fdb415"/><ellipse cx="4.302" cy="5.629" rx="4.302" ry="5.629" transform="translate(925.303 741.583)" fill="#3f3d56"/><ellipse cx="4.302" cy="5.629" rx="4.302" ry="5.629" transform="translate(925.303 734.696)" fill="#3f3d56"/><ellipse cx="4.302" cy="5.629" rx="4.302" ry="5.629" transform="translate(925.303 727.821)" fill="#3f3d56"/><ellipse cx="4.302" cy="5.629" rx="4.302" ry="5.629" transform="translate(925.303 720.934)" fill="#3f3d56"/><ellipse cx="4.302" cy="5.629" rx="4.302" ry="5.629" transform="translate(925.303 714.047)" fill="#3f3d56"/><ellipse cx="4.302" cy="5.629" rx="4.302" ry="5.629" transform="translate(925.303 707.171)" fill="#3f3d56"/><ellipse cx="4.302" cy="5.629" rx="4.302" ry="5.629" transform="translate(925.303 700.284)" fill="#3f3d56"/><path d="M919.92,637.194a20.828,20.828,0,0,0,1.6-2.357l-11.3-1.853,12.23.08a20.718,20.718,0,0,0,.389-16.325l-16.405,8.512,15.124-11.12a20.593,20.593,0,1,0-34,23.064,20.5,20.5,0,0,0-2.357,3.753l14.678,7.631-15.65-5.251a20.593,20.593,0,0,0,3.329,19.311,20.593,20.593,0,1,0,32.387,0,20.593,20.593,0,0,0,0-25.478Z" transform="translate(25.782 21.665)" fill="#fdb415"/><path d="M883.12,644.138a20.488,20.488,0,0,0,4.439,12.744,20.593,20.593,0,1,0,32.388,0C922.681,653.37,883.12,641.827,883.12,644.138Z" transform="translate(25.778 27.419)" opacity="0.1"/><ellipse cx="53.186" cy="10.228" rx="53.186" ry="10.228" transform="translate(116.611 878.535)" fill="#fdb415"/><ellipse cx="6.189" cy="8.111" rx="6.189" ry="8.111" transform="translate(162.715 876.304)" fill="#3f3d56"/><ellipse cx="6.189" cy="8.111" rx="6.189" ry="8.111" transform="translate(162.715 866.397)" fill="#3f3d56"/><ellipse cx="6.189" cy="8.111" rx="6.189" ry="8.111" transform="translate(162.715 856.49)" fill="#3f3d56"/><ellipse cx="6.189" cy="8.111" rx="6.189" ry="8.111" transform="translate(162.715 846.583)" fill="#3f3d56"/><ellipse cx="6.189" cy="8.111" rx="6.189" ry="8.111" transform="translate(162.715 836.675)" fill="#3f3d56"/><ellipse cx="6.189" cy="8.111" rx="6.189" ry="8.111" transform="translate(162.715 826.757)" fill="#3f3d56"/><ellipse cx="6.189" cy="8.111" rx="6.189" ry="8.111" transform="translate(162.715 816.849)" fill="#3f3d56"/><path d="M263.23,724.981a31.169,31.169,0,0,0,2.288-3.432l-16.268-2.677,17.6.137a29.745,29.745,0,0,0,.561-23.51l-23.59,12.287,21.737-16.016a29.665,29.665,0,1,0-49,33.177,29.546,29.546,0,0,0-3.432,5.4l21.13,10.983-22.526-7.562a29.664,29.664,0,0,0,4.874,27.9,29.665,29.665,0,1,0,46.631,0,29.653,29.653,0,0,0,0-36.678Z" transform="translate(-71.147 32.184)" fill="#fdb415"/><path d="M210.24,735.057a29.57,29.57,0,0,0,6.346,18.3,29.665,29.665,0,1,0,46.634,0C267.167,748.3,210.24,731.682,210.24,735.057Z" transform="translate(-71.138 40.493)" opacity="0.1"/></svg>