<svg xmlns="http://www.w3.org/2000/svg" width="46.928" height="46.925" viewBox="0 0 46.928 46.925"><g transform="translate(-5 -5)"><path d="M51.925,25.334V36.8H49.839V25.334a1.043,1.043,0,0,1,2.086,0ZM7.086,15.949h7.821a1.043,1.043,0,1,0,0-2.086H6.043A1.046,1.046,0,0,0,5,14.906V36.8H7.086ZM45.668,36.8V33.676h1.043a1.046,1.046,0,0,0,1.043-1.043V28.462a1.046,1.046,0,0,0-1.043-1.043H37.326a1.046,1.046,0,0,0-1.043,1.043v4.171a1.046,1.046,0,0,0,1.043,1.043h1.043V36.8ZM36.6,21.893A9.881,9.881,0,1,1,50.569,7.92a7.519,7.519,0,0,1,1.147,1.408,1.054,1.054,0,0,1-.209,1.408L46.5,14.906,51.56,19.13a1.113,1.113,0,0,1,.209,1.408,15,15,0,0,1-1.147,1.408,10.166,10.166,0,0,1-7.039,2.868A9.78,9.78,0,0,1,36.6,21.893Zm4.9-11.158a1.069,1.069,0,0,0,1.043,1.043h.209c.052,0,.1-.052.209-.052.052,0,.1-.052.156-.1s.1-.052.156-.1a1.252,1.252,0,0,0,.313-.782,1.029,1.029,0,0,0-.313-.73c-.052-.052-.1-.1-.156-.1s-.1-.052-.156-.1c-.052,0-.1-.052-.209-.052a1.185,1.185,0,0,0-.938.261A1.029,1.029,0,0,0,41.5,10.735ZM30.548,13.864A10.458,10.458,0,0,0,20.12,24.291v5.214a1.043,1.043,0,0,0,2.086,0V24.291a8.367,8.367,0,0,1,8.342-8.342,1.043,1.043,0,1,0,0-2.086ZM14.906,27.42a1.043,1.043,0,1,0,2.086,0V24.813A13.6,13.6,0,0,1,30.548,11.257a1.043,1.043,0,1,0,0-2.086A15.688,15.688,0,0,0,14.906,24.813ZM27.42,24.291a3.138,3.138,0,0,1,3.128-3.128,1.043,1.043,0,1,0,0-2.086,5.229,5.229,0,0,0-5.214,5.214v1.043a1.043,1.043,0,1,0,2.086,0Zm-.156,4.64c-.052-.052-.052-.1-.1-.156a.933.933,0,0,0-.938-.261c-.052,0-.1.052-.209.052-.052,0-.1.052-.156.1s-.1.052-.156.1-.1.1-.1.156c-.052.052-.052.1-.1.156s-.052.1-.052.209v.417c0,.052.052.156.052.209s.052.1.1.156l.156.156a.683.683,0,0,0,.626.313,1.029,1.029,0,0,0,.73-.313c.052-.052.1-.1.1-.156.052-.052.052-.1.1-.156s.052-.1.052-.209V29.3c0-.052-.052-.156-.052-.209S27.263,28.984,27.263,28.932ZM21.736,32.79c-.052-.052-.1-.052-.156-.1-.052,0-.1-.052-.209-.052a1.242,1.242,0,0,0-.938.261c-.052.052-.1.1-.1.156-.052.052-.052.1-.1.156s-.052.1-.052.209v.209a1.029,1.029,0,0,0,.313.73.76.76,0,0,0,.678.365,1.032,1.032,0,0,0,.73-1.773Zm-4.9-1.773c-.052-.052-.052-.1-.1-.156s-.1-.1-.156-.1-.1-.052-.156-.1c-.052,0-.1-.052-.209-.052a1.242,1.242,0,0,0-.938.261c-.052.052-.1.1-.1.156-.052.052-.052.1-.1.156s-.052.1-.052.209v.209a1.029,1.029,0,0,0,.313.73.683.683,0,0,0,.626.313,1.069,1.069,0,0,0,1.043-1.043v-.209c0-.052-.052-.1-.052-.209C16.888,31.121,16.835,31.069,16.835,31.017ZM5,44.1a1.046,1.046,0,0,0,1.043,1.043h18.77v4.692H20.642a1.043,1.043,0,1,0,0,2.086H36.283a1.043,1.043,0,0,0,0-2.086H32.112V45.147h18.77A1.046,1.046,0,0,0,51.925,44.1V38.89H5Z" fill="#fdb415"/></g></svg>