<svg xmlns="http://www.w3.org/2000/svg" width="45.867" height="51.391" viewBox="0 0 45.867 51.391"><g transform="translate(-11.634 -11.309)"><g transform="translate(11.634 11.309)"><g transform="translate(7.889 3.921)"><path d="M134.754,75.639a21.167,21.167,0,0,0-6.556,8.524H111.538c-.921-2.945-3.08-5.746-6.54-8.516a.782.782,0,0,1-.214-.976l14.31-28.62a.729.729,0,0,1,.389-.365V66.4a3.1,3.1,0,1,0,.794,0V45.686a.684.684,0,0,1,.373.357l14.3,28.628A.791.791,0,0,1,134.754,75.639Z" transform="translate(-104.697 -45.686)" fill="#fdb415"/></g><g transform="translate(12.969 43.986)"><path d="M169.419,397.769v5.818a.791.791,0,0,1-.794.794h-18.6a.8.8,0,0,1-.794-.794v-5.818a.8.8,0,0,1,.794-.794h18.6A.791.791,0,0,1,169.419,397.769Z" transform="translate(-149.236 -396.975)" fill="#fdb415"/></g><g transform="translate(0 0)"><path d="M76.193,14.324H64.034A19.14,19.14,0,0,1,77.487,30.008a2.617,2.617,0,1,1-.794.056A18.319,18.319,0,0,0,61.01,14.491a2.562,2.562,0,0,1-.167.492l-.047-.1a2.491,2.491,0,0,0-4.4,0l-.183.365a2.759,2.759,0,0,1-.294-.722A18.369,18.369,0,0,0,40.478,30.063a2.621,2.621,0,1,1-.794-.056A19.2,19.2,0,0,1,53.145,14.325H40.732a2.619,2.619,0,1,1,0-.794H55.883a2.615,2.615,0,0,1,5.167,0H76.193a2.619,2.619,0,1,1,0,.794Z" transform="translate(-35.525 -11.309)" fill="#fdb415"/></g></g></g></svg>