<svg xmlns="http://www.w3.org/2000/svg" xmlns:xlink="http://www.w3.org/1999/xlink" width="614.031" height="586.665" viewBox="0 0 614.031 586.665"><defs><linearGradient id="a" y1="0.5" x2="1" y2="0.5" gradientUnits="objectBoundingBox"><stop offset="0" stop-color="#69aeeb"/><stop offset="1" stop-color="#69aeeb"/></linearGradient><filter id="d" x="0" y="103.28" width="381.636" height="401.66" filterUnits="userSpaceOnUse"><feOffset dy="3" input="SourceAlpha"/><feGaussianBlur stdDeviation="49.5" result="e"/><feFlood flood-color="#e3ac2a"/><feComposite operator="in" in2="e"/><feComposite in="SourceGraphic"/></filter><clipPath id="f"><rect width="265.912" height="283.639" fill="none"/></clipPath></defs><g transform="translate(8310.431 -879.167)"><rect width="472.674" height="543.992" transform="translate(-8169.657 879.167)" fill="none"/><rect width="472.674" height="44.384" transform="translate(-8169.073 1421.448)" fill="#c5e1f9"/><g transform="translate(-7986.096 1438.292)"><circle cx="5.704" cy="5.704" r="5.704" fill="#7eb3ff"/><path d="M3552.511,1154.225l-3.2-3.239,3.207-3.172.7.711-2.5,2.469,2.5,2.528Z" transform="translate(-3546.022 -1145.317)" fill="#fff"/></g><g transform="translate(-7965.494 1441.63)"><path d="M3579.135,1154.692v-5.67h2.4a1.615,1.615,0,0,1,.719.16,1.846,1.846,0,0,1,.571.431,2.052,2.052,0,0,1,.379.607,1.807,1.807,0,0,1,.135.687,1.952,1.952,0,0,1-.223.91,1.909,1.909,0,0,1-.615.7,1.584,1.584,0,0,1-.926.271h-1.342v1.9Zm1.1-2.867h1.278a.61.61,0,0,0,.359-.111.771.771,0,0,0,.255-.323,1.158,1.158,0,0,0,.1-.483,1.077,1.077,0,0,0-.108-.5.763.763,0,0,0-.28-.312.706.706,0,0,0-.371-.1h-1.23Z" transform="translate(-3579.135 -1149.022)" fill="#0561fc"/><path d="M3589.257,1154.692v-5.67h2.507a1.639,1.639,0,0,1,.723.16,1.834,1.834,0,0,1,.575.431,1.991,1.991,0,0,1,.375.607,1.865,1.865,0,0,1,.132.687,1.976,1.976,0,0,1-.124.691,1.719,1.719,0,0,1-.355.579,1.62,1.62,0,0,1-.543.383l1.294,2.132h-1.214l-1.166-1.9h-1.1v1.9Zm1.1-2.867h1.382a.584.584,0,0,0,.367-.123.866.866,0,0,0,.256-.331,1.091,1.091,0,0,0,.1-.463.974.974,0,0,0-.112-.475.927.927,0,0,0-.284-.323.636.636,0,0,0-.371-.12h-1.334Z" transform="translate(-3583.483 -1149.022)" fill="#0561fc"/><path d="M3603.9,1153.725v.967h-3.937v-5.67h3.865v.967h-2.763v1.365h2.388v.894h-2.388v1.477Z" transform="translate(-3588.085 -1149.022)" fill="#0561fc"/><path d="M3609.931,1149.022l1.533,4.361,1.517-4.361h1.158l-2.148,5.67h-1.062l-2.156-5.67Z" transform="translate(-3591.868 -1149.022)" fill="#0561fc"/><path d="M3654.589,1151.051v3.641h-1.1v-5.67h.879l2.93,3.738v-3.729h1.1v5.662h-.918Z" transform="translate(-3611.078 -1149.022)" fill="#0561fc"/><path d="M3669.506,1153.725v.967h-3.937v-5.67h3.865v.967h-2.763v1.365h2.388v.894h-2.388v1.477Z" transform="translate(-3616.268 -1149.022)" fill="#0561fc"/><path d="M3675.511,1149.022l1.406,2.092,1.4-2.092h1.2l-1.964,2.875,1.9,2.8h-1.2l-1.333-2.013-1.342,2.013h-1.206l1.9-2.8-1.964-2.875Z" transform="translate(-3620.022 -1149.022)" fill="#0561fc"/><path d="M3689.707,1149.989h-1.813v4.7H3686.8v-4.7h-1.813v-.967h4.72Z" transform="translate(-3624.61 -1149.022)" fill="#0561fc"/></g><g transform="translate(-7890.785 1438.292)"><circle cx="5.704" cy="5.704" r="5.704" fill="#7eb3ff"/><path d="M3718.467,1154.229l-.7-.711,2.5-2.469-2.5-2.528.711-.7,3.2,3.239Z" transform="translate(-3713.552 -1145.317)" fill="#fff"/></g><g transform="translate(-7905.079 1061.811)"><path d="M3690.856,602.466l-5.8-23.053,11.688-5.752a75.559,75.559,0,0,1,.634-10.214l-11.486-6.1,6.509-22.87,14.38.958a75.212,75.212,0,0,1,4.934-7.557l-7.558-12.088,17.073-16.547L3734,507.783a76.518,76.518,0,0,1,7.289-3.81l-.525-15.049,23.056-5.8,6.893,14.007a75.346,75.346,0,0,1,8.067.208l7.1-13.376,22.868,6.512-1.005,15.111a75.332,75.332,0,0,1,7.378,4.347l12.319-7.7,16.55,17.072-7.843,11.715a76.2,76.2,0,0,1,4.8,8.283l13.353-.469,5.8,23.054-11.374,5.6a75.6,75.6,0,0,1,.029,10.885l10.509,5.586-6.506,22.864-11.3-.749a75.532,75.532,0,0,1-6.07,10.468l5.613,8.976-17.071,16.549-8.6-5.761a76.624,76.624,0,0,1-11.27,6.269l.345,9.8-23.055,5.792-4.424-8.988a75.574,75.574,0,0,1-13.08-.435l-4.562,8.583-22.87-6.506.692-10.456a75.387,75.387,0,0,1-10.585-6.8l-8.8,5.5L3701.161,622l6.454-9.643a76.751,76.751,0,0,1-5.173-10.295Zm71.046,9.14a39.938,39.938,0,1,0-27.483-49.344A39.936,39.936,0,0,0,3761.9,611.606Z" transform="translate(-3685.054 -483.123)" fill="#c5e1f9"/><path d="M3811.439,542.635a57.37,57.37,0,1,1-70.884,39.471A57.373,57.373,0,0,1,3811.439,542.635Zm-28.153,98.9A45.461,45.461,0,1,0,3752,585.368,45.459,45.459,0,0,0,3783.286,641.536Z" transform="translate(-3707.95 -507.742)" fill="#eaf4fe" style="mix-blend-mode:multiply;isolation:isolate"/></g><path d="M3668.106,539.495s2.164,5.663,33.271,14.2c17.379,4.772,28.127,8.142,33.464,2.24,9.145-10.119,12.3-52.738,12.3-52.738l-16.813-5.233s-5.5,29.28-13.155,33.425c-1.79.968-20.78-1.981-39.274-9.274C3670.09,519.022,3668.453,537.343,3668.106,539.495Z" transform="translate(-11582.852 572.314)" fill="#f49e00"/><path d="M3563.218,675.4s-34.58-5.673-26.967-56.148,1.83-56.015,13.837-70.488c26.556-32.01,49.645-23.037,49.645-23.037l29.632,10.387s16.709,16.715,16.3,28.316-5.852,51.856-3.823,60.671,10.349,38.272,10.349,38.272Z" transform="translate(-11525.734 560.881)" fill="#f5ac00"/><g transform="translate(-7996.804 1161.751)"><rect width="277.624" height="220.338" fill="#fff"/><rect width="277.624" height="26.255" fill="#9ac7f7"/><path d="M3977.211,677.409a5.255,5.255,0,1,0,5.257-5.253A5.258,5.258,0,0,0,3977.211,677.409Z" transform="translate(-3718.844 -664.274)" fill="#387bff"/><path d="M3948.063,677.409a5.246,5.246,0,1,0,5.252-5.253A5.253,5.253,0,0,0,3948.063,677.409Z" transform="translate(-3706.322 -664.274)" fill="#fbd260"/><path d="M3918.907,677.409a5.25,5.25,0,1,0,5.249-5.253A5.254,5.254,0,0,0,3918.907,677.409Z" transform="translate(-3693.796 -664.274)" fill="#eaf4fe"/></g><path d="M3786.611,497.923l.865-12.727-6.812-.464-.866,12.734Z" transform="translate(-11630.837 577.996)" fill="#f7b68b"/><g transform="translate(-7853.008 1040.802)"><path d="M3782.364,473.239s-5.972-5.16-6.014-7.376.308-10.285.308-10.285l.278-2.046s2.372-.776,2.074,4.641,1.253,2.955,1.253,2.955l2.1-4.674,3.01-5.507,1.028-2.636s.469-1.548.887-1.8c1.226-.72,1.369.551,1.369.551l-3.11,10.658,5.522-8.848s.895-1,1.568-.7c.642.283.43.666.43.666l-3.855,11.691,3.366-4.2s.909-.958,1.573-.694c.732.283.938.337.938.337l-10.677,18.183Z" transform="translate(-3776.345 -446.29)" fill="#f7b68b"/><path d="M3795.865,461.3l4.255-5.971a5.565,5.565,0,0,1,1.595-1.854,1.019,1.019,0,0,1,1.39.36l-5.509,9.713Z" transform="translate(-3784.731 -449.317)" fill="#f7b68b"/></g><g transform="translate(-7794.74 1205.689)"><path d="M38.8,2.957H0V-2.957H38.8Z" transform="translate(25.302 8.998)" fill="#0561fc"/><path d="M23.615,2.957H0V-2.957H23.615Z" transform="translate(38.797 29.24)" fill="#9ac7f7"/><path d="M13.495,2.957H0V-2.957H13.495Z" transform="translate(38.797 35.987)" fill="#9ac7f7"/><path d="M23.615,2.957H0V-2.957H23.615Z" transform="translate(38.797 44.421)" fill="#9ac7f7"/><path d="M13.495,2.957H0V-2.957H13.495Z" transform="translate(38.797 51.168)" fill="#9ac7f7"/><path d="M23.615,2.957H0V-2.957H23.615Z" transform="translate(38.797 59.602)" fill="#9ac7f7"/><path d="M13.495,2.957H0V-2.957H13.495Z" transform="translate(38.797 66.35)" fill="#9ac7f7"/><path d="M32.05,2.957H0V-2.957H32.05Z" transform="translate(25.302 15.745)" fill="#0561fc"/><rect width="6.747" height="6.747" transform="translate(26.989 29.24)" fill="url(#a)"/><rect width="6.747" height="6.747" transform="translate(26.989 44.421)" fill="url(#a)"/><rect width="6.747" height="6.748" transform="translate(26.989 59.602)" fill="url(#a)"/><rect width="22.492" height="22.492" fill="#9fc400"/><path d="M3891.59,759.534l-6.308-6.308,4.182-4.182,2.126,2.126,8.03-8.029,4.182,4.182Z" transform="translate(-3882.313 -739.607)" fill="#fff"/></g><g transform="translate(-8161.931 1127.947)" style="mix-blend-mode:multiply;isolation:isolate"><path d="M3319.229,640.662c-2.161-24.88-18.9-43.749-46.045-41.39s-40.377,23.831-38.213,48.714c1.685,19.408,15.879,24.964,28.827,40.058,2.563,2.987,1.364,15.688,1.364,15.688l33.942-2.95s-3.375-12.3-1.363-15.687C3307.891,667.99,3320.917,660.073,3319.229,640.662Z" transform="translate(-3234.742 -599.073)" fill="#fec12f"/><g transform="matrix(1, 0, 0, 1, -148.5, -248.78)" filter="url(#d)"><path d="M3319.229,640.662c-2.161-24.88-18.9-43.749-46.045-41.39s-40.377,23.831-38.213,48.714c1.685,19.408,15.879,24.964,28.827,40.058,2.563,2.987,1.364,15.688,1.364,15.688l33.942-2.95s-3.375-12.3-1.363-15.687C3307.891,667.99,3320.917,660.073,3319.229,640.662Z" transform="translate(-3086.24 -350.29)" fill="#fec12f"/></g><path d="M3278.611,711.5c-17.893-20.86-37.508-28.536-39.838-55.358a79.036,79.036,0,0,1,.286-16.8,51.135,51.135,0,0,0-4.088,25.944c1.685,19.408,15.879,24.964,28.827,40.058,2.563,2.987,1.364,15.688,1.364,15.688l15.568-1.352C3280.479,716.182,3279.881,712.98,3278.611,711.5Z" transform="translate(-3234.742 -616.373)" fill="#ffab01"/><path d="M3287.054,780.354l.406,4.679a14.1,14.1,0,0,0,15.265,12.825l7.021-.61a14.1,14.1,0,0,0,12.823-15.265l-.406-4.677Z" transform="translate(-3257.216 -675.644)" fill="#0450cf"/><path d="M3287.372,675.051l-5.989-6.551-2.593,4.082-5.215-3.313,6.921-10.9,5.994,6.556,4.765-7.488,6,6.556,4.775-7.491,5.995,6.556,4.778-7.485,8.729,9.516-4.553,4.177-3.294-3.591-4.785,7.5-5.992-6.553-4.775,7.49-5.99-6.551Z" transform="translate(-3252.545 -625.518)" fill="#f4da80"/><path d="M3297.273,740.757l-2.558-29.456-9.553-21.565,5.666-2.464,9.8,22.53,2.8,30.421Z" transform="translate(-3257.62 -637.493)" fill="#f4da80"/><path d="M3323.541,738.1l-2.56-29.46,5.839-24.873,6.006,1.45-5.764,23.88,2.635,28.467Z" transform="translate(-3273.114 -635.77)" fill="#f4da80"/><rect width="22.026" height="3.661" transform="translate(39.604 106.295) rotate(-4.963)" fill="#0561fc"/><rect width="15.857" height="3.66" transform="translate(40.176 112.879) rotate(-4.964)" fill="#0561fc"/></g><g transform="translate(-8219.343 1137.705)"><g clip-path="url(#f)"><g transform="translate(84.529 46.758)"><path d="M3339.877,1569.808c3.386,0,6.129,4.438,6.129,9.91a15.5,15.5,0,0,1-.32,3.016h-8.65c-1.085,0-1.974-1.749-1.974-3.887v-5.192C3336.185,1571.33,3337.914,1569.808,3339.877,1569.808Z" transform="translate(-3304.958 -1072.632)" fill="#387bff"/><path d="M3420.286,1283.33c-2.257-1.39-9.971,7.2-13.245,14.8-6.425,14.9-8.075,23.143-10.568,39.576-3.951,26.066-10.634,67.46-12.842,85.08-1.991,15.883-8.381,34.664,1.169,32.013-.147-21.8,9.878-54.668,15.689-71.93C3420.34,1323.93,3427.232,1287.58,3420.286,1283.33Z" transform="translate(-3324.13 -949.492)" fill="#e9d6b8"/><path d="M3358.8,1292.207q1.266-6.276,2.585-12.347c2.954-5.9,5.536-9.007,7.506-8.543,7.449,1.749,14.194,35.437-9.209,115.45-1.174,4.023-14.566,64.648-16.755,64.648C3339.831,1451.415,3346.268,1354.212,3358.8,1292.207Z" transform="translate(-3308.005 -944.376)" fill="#e9d6b8"/><path d="M3400.62,1570.424a45.127,45.127,0,0,0-8.139-2.063c-3.49-.657-6.141-.639-7.4-1.95-2.072-2.164-.923-7.41-1.935-7.172-4.946,1.136-6.656,12.7-3.77,14.137s19.183-.481,20.523-.585S3401.029,1570.114,3400.62,1570.424Z" transform="translate(-3323.393 -1068.088)" fill="#e9d6b8"/><path d="M3397.047,1577.01c.921,3.892-11.022,2.324-14.109,1.306a36.321,36.321,0,0,0-4.838-1.267c-.124,0-.243-.024-.371-.027a2.633,2.633,0,0,0-.042.283c0,2.135-.939,4.981,2.478,4.981h21.413C3419.081,1582.287,3397.025,1576.918,3397.047,1577.01Z" transform="translate(-3323.219 -1075.725)" fill="#387bff"/><path d="M3432.725,738.423l-4.595-31.749c-5.821-6.134-13.286-9.4-20.876-8.307-14.647,2.122-24.221,19.674-21.391,39.209s16.989,33.648,31.627,31.534c10.25-1.489,18-10.535,20.777-22.511A11.57,11.57,0,0,1,3432.725,738.423Z" transform="translate(-3326.569 -698.158)" fill="#163f59"/><path d="M3366.415,760.1c-.554,5.076,4.79,9.823,11.944,10.607l16.311,1.8c7.155.783,13.407-2.686,13.958-7.765l5.1-46.273c.565-5.076-4.783-9.82-11.936-10.614l-16.315-1.792c-7.152-.794-13.4,2.689-13.959,7.76Z" transform="translate(-3318.41 -701.505)" fill="#163f59"/><path d="M3407.634,812.214c9.677,4.182,14.516,2.879,7.126,6-3.553,4.349-48.971-1.709-51.443-7.342-.409-.953,18.03-3.658,18.129-4.361,1.133-8.173,1.572-15.084-.709-24.221a1.362,1.362,0,0,1,1.212-1.27c3.443.1,6.909.128,10.368.226.573.03,7.335,1.519,5.833,4.766C3397.41,794.914,3397.4,807.782,3407.634,812.214Z" transform="translate(-3317.094 -733.756)" fill="#e9d6b8"/><path d="M3424.222,759.735c.154-.319.305-.65.456-.979.036-.1.091-.193.136-.3.18-.406.354-.827.525-1.267.047-.117.087-.229.127-.344.12-.325.24-.653.351-.986.064-.179.13-.368.188-.548.091-.283.179-.568.27-.86.064-.2.118-.4.176-.594.108-.378.2-.758.311-1.148.068-.282.14-.571.206-.874.064-.26.131-.533.19-.8s.11-.541.164-.822c.046-.23.1-.465.136-.71.035-.191.075-.376.116-.57l0-.009c.562-3.292-.557-18.8-3.172-26.2a2.371,2.371,0,0,0-2.6-1.457c-7.981.893-32.3-.236-26.019,21.926v.022c.014.054.368,1.961.557,2.834.017.083.035.153.054.224.2.882.4,1.75.638,2.59.019.062.03.114.047.167.238.856.49,1.7.766,2.513a.242.242,0,0,0,.027.086c3.482,10.447,9.578,17.344,16.034,16.894,3.766-.261,7.068-2.983,9.555-7.352l.009,0a.709.709,0,0,0,.052-.1c.188-.331.376-.674.551-1.023C3424.122,759.941,3424.172,759.832,3424.222,759.735Z" transform="translate(-3330.6 -708.079)" fill="#e9d6b8"/><path d="M3287.736,827.365s-.173,10.634-.193,14.977c-.027,6.093.2,34.157,1.27,35.906,1.9,3.1,12.524-2.712,12.524-2.712s-4.746-21.824-4.872-28.657-2.436-15.955-2.381-18.636C3294.163,823.665,3287.736,827.365,3287.736,827.365Z" transform="translate(-3284.542 -753.061)" fill="#e9d6b8"/><path d="M3353.134,891.655l60.613-.512,7.412-69.321-71.928,6.831Z" transform="translate(-3311.045 -751.286)" fill="#fec00f"/><path d="M3407.987,1149.323c-29.807,4.672-35.193.706-69.445-4.183-3.241.051-17.121-33.288-7.351-121.226,2.013-18.122,15.712-32.676,12.577-81.866q30.563-.6,61.121-1.181C3396.775,985.583,3445.211,992.527,3407.987,1149.323Z" transform="translate(-3301.822 -802.429)" fill="#fec00f"/><path d="M3465.506,909.666l-8.6-60.777,2.091-24.509a8.978,8.978,0,0,1,5.25-2.628l1.369-.171c5.307-.643,10.076,3.822,10.656,9.983l6.764,83.215Z" transform="translate(-3357.302 -751.156)" fill="#387bff"/><path d="M3303.712,923.094l25.144-54.735,3.692-32.678a9.494,9.494,0,0,0-4.993-2.826l-1.347-.294a9.733,9.733,0,0,0-11.465,7.67l-25.766,65.249Z" transform="translate(-3285.159 -755.81)" fill="#387bff"/><path d="M3397.026,746.873a11.578,11.578,0,0,1-5.539-8.183l-4.6-31.744c-.279-.292-.573-.545-.86-.82l-.557-.065c-7.153-.794-13.4,2.689-13.96,7.76l-5.1,46.275c-.432,3.917,2.673,7.615,7.393,9.471a19.206,19.206,0,0,0,2.445-.189C3386.494,767.9,3394.255,758.852,3397.026,746.873Z" transform="translate(-3318.41 -701.505)" fill="#163f59"/><path d="M3448.148,821.927l-18.588.368s-10.123,58.4-10.123,75.532,11.682,63.849,10.9,85.651-.272,104.491-.272,104.491h33.1s5.325-109.942-7.133-151.99C3446.093,902.424,3448.148,821.927,3448.148,821.927Z" transform="translate(-3341.206 -751.331)" fill="#387bff"/><path d="M3430.286,821.984l9.344-.78-.03,14.273-5.42,6.753,2.336,7.007-7.786,31.147V941.9s-10.122-54.5-7.008-65.407S3430.286,821.984,3430.286,821.984Z" transform="translate(-3341.932 -751.02)" fill="#0063cb"/><path d="M3352.784,829.4l-19.021,2.509s2.669,55.889,3.449,72.242-8.566,45.944-14.016,65.409c-9.563,34.145-9.97,117.609-9.97,117.609a251.5,251.5,0,0,0,44.133,4.012s5.545-52.322,4.768-131.744S3352.784,829.4,3352.784,829.4Z" transform="translate(-3295.577 -754.541)" fill="#387bff"/><path d="M3381.971,825.3l7.786,52.951-3.892,84.1-6.229-89.547-7.786-19.467,2.336-7.008-3.9-3.894,3.118-17.131Z" transform="translate(-3320.092 -752.78)" fill="#0063cb"/><path d="M3373.285,860.307l63.407-6.341-21.65,82.54-58.4,6.228Z" transform="translate(-3314.229 -765.096)" fill="#163f59"/><g transform="translate(86.527 121.591)"><path d="M3466.177,948.694c-9.28-11.136-20.421-27.69-27.865-35.623-5.048-5.379-4.291,3.432-4.291,3.432l24.273,40.762S3473.963,958.035,3466.177,948.694Z" transform="translate(-3433.982 -911.332)" fill="#e9d6b8"/><path d="M3478.848,957.335s10.041,13.5.993,18.5c-5.136,2.839-9.265,1.056-12.221-3.08-5.49-7.681-11.293-16.691-11.293-16.691l9.781-12.8Z" transform="translate(-3443.582 -925.05)" fill="#387bff"/></g><g transform="translate(77.09 107.513)"><path d="M3432.322,897.606l-3.964-5.337-6.027-5.619s-.77.842.165,2.232,4.445,5.475,4.445,5.475l1.724,2.868.349.581S3431.462,900.322,3432.322,897.606Z" transform="translate(-3419.411 -886.65)" fill="#e9d6b8"/><path d="M3427.16,900.633s.043,1.83-.357,1.961-.957-.5-1.821-1.173-3.41-2.79-3.41-2.79l-3.949-2.392s-.438,1.077.032,1.66c.665.825,3.155,3.047,3.155,3.047l3.563,3.773s2.894,2.3,3.218,1.673.039-1.561.664-1.914S3430.32,902.841,3427.16,900.633Z" transform="translate(-3417.437 -890.77)" fill="#e9d6b8"/><path d="M3422.987,908.132l-2.134-2.013s-2.5-1.865-2.685-1.509l-.186.355s.517.777,1.254,1.668c.279.338,1.557,1.784,1.89,2.113a36.723,36.723,0,0,1,2.4,3.168C3423.755,912.033,3426.6,911.932,3422.987,908.132Z" transform="translate(-3417.671 -894.346)" fill="#e9d6b8"/><path d="M3440.042,898.173l.085-5.265-3.287-6s-.815.931-.117,2.989.692,2.28.907,2.505-.661,3.61-.661,3.61S3439.794,899.286,3440.042,898.173Z" transform="translate(-3425.601 -886.76)" fill="#e9d6b8"/><path d="M3431.532,907.166l2.719-3.105s1.715.1,1.633,3.447c-.029,1.19,0,2.353.045,3.357.085,1.818.236,3.116.236,3.116s-.844,2.047-2.251,1.992-3.656.019-5.251-1.375a10.4,10.4,0,0,1-2.572-4.614c-.274-.9,1.127-.542,1.7-.925.7-.471.67-1.588,1.232-1.732A9.845,9.845,0,0,1,3431.532,907.166Z" transform="translate(-3421.139 -894.13)" fill="#e9d6b8"/></g><path d="M3283.767,879.11s13.533-1.347,14.843,4.168,9.278,50.033,3.127,58.072c-7.794,10.187-16.416-.609-18.619-2.944S3283.767,879.11,3283.767,879.11Z" transform="translate(-3282.283 -775.835)" fill="#387bff"/><path d="M3340.832,1564.772c2.438,0,4.412,5.424,4.412,12.113a31.7,31.7,0,0,1-.23,3.686h-6.228c-.781,0-1.421-2.138-1.421-4.751v-6.346C3338.174,1566.633,3339.419,1564.772,3340.832,1564.772Z" transform="translate(-3305.947 -1070.468)" fill="#e9d6b8"/><path d="M3339.877,1580.959c3.386,0,6.129,2.254,6.129,5.034a4.219,4.219,0,0,1-.32,1.531h-8.65a1.98,1.98,0,0,1-1.974-1.974v-2.637A6.631,6.631,0,0,1,3339.877,1580.959Z" transform="translate(-3304.958 -1077.422)" fill="#387bff"/><path d="M3283.73,801.8V786.7l11.162-5.909,4.6,3.939-1.313,7.879-6.566,3.939.837,12.294-6.348-.878Z" transform="translate(-3282.905 -733.657)" fill="#e9d6b8"/><path d="M3445.4,901.824l-.566,2.245-2.052,6.525-.644-5.488S3445.2,900.749,3445.4,901.824Z" transform="translate(-3350.959 -785.583)" fill="#e9d6b8"/><path d="M3306.874,792.588l7.386,3.283s-.656,1.477-3.611.492a23.535,23.535,0,0,1-4.76-2.134Z" transform="translate(-3292.424 -738.727)" fill="#e9d6b8"/><path d="M3308.217,787.408l4.1,2.462s-1.014,1.511-3.544.837S3308.217,787.408,3308.217,787.408Z" transform="translate(-3293.111 -736.501)" fill="#e9d6b8"/><path d="M3305.395,795.465l5.909,3.775s-.821,1.642-2.134,1.149a28.673,28.673,0,0,1-4.432-2.955Z" transform="translate(-3291.93 -739.962)" fill="#e9d6b8"/></g></g></g><g transform="translate(-7968.56 1220.323)"><path d="M3576.388,815.1l-2.628-10.451,5.3-2.609a34.347,34.347,0,0,1,.287-4.626l-5.2-2.766,2.95-10.362,6.515.434a34.261,34.261,0,0,1,2.235-3.424l-3.424-5.479,7.734-7.5,5.789,3.874a34.514,34.514,0,0,1,3.3-1.727l-.239-6.819,10.447-2.626,3.123,6.344a34.419,34.419,0,0,1,3.656.094l3.221-6.06,10.361,2.95-.455,6.849a34.227,34.227,0,0,1,3.342,1.969l5.584-3.49,7.5,7.736-3.554,5.308a34.586,34.586,0,0,1,2.173,3.751l6.052-.212,2.628,10.448-5.157,2.538a34.22,34.22,0,0,1,.014,4.931l4.762,2.529-2.95,10.362-5.118-.338a34.151,34.151,0,0,1-2.75,4.743l2.542,4.065-7.735,7.5-3.9-2.609a34.652,34.652,0,0,1-5.107,2.84l.156,4.44-10.448,2.631-2.006-4.078a34.224,34.224,0,0,1-5.923-.2l-2.069,3.9-10.362-2.948.316-4.743a34.184,34.184,0,0,1-4.8-3.081l-3.99,2.494-7.5-7.735,2.926-4.371a34.614,34.614,0,0,1-2.342-4.661Zm33.1.938a14.772,14.772,0,1,0-10.163-18.251A14.771,14.771,0,0,0,3609.49,816.043Z" transform="translate(-3573.76 -761.026)" fill="#9ac7f7"/><path d="M3632.543,793.4a22.837,22.837,0,1,1-28.216,15.712A22.838,22.838,0,0,1,3632.543,793.4Zm-11.209,39.372a18.1,18.1,0,1,0-12.45-22.361A18.1,18.1,0,0,0,3621.334,832.776Z" transform="translate(-3586.514 -774.559)" fill="#c5e1f9"/></g><g transform="translate(-7926.609 1211.74)"><path d="M3830.719,1017.8c.756-3.679,1.4-7.712,1.888-12.146,6.019-54.174,12.269-75.376,5.834-89.534-4.526-9.957-25.741-28.316-25.741-28.316l-21.866,2.278s-17.6,11.878-24.04,36.332c-1.915,7.277,1.047,69.361,2.17,91.387Z" transform="translate(-3698.37 -806.909)" fill="#0561fc"/><path d="M3679.136,914.63l-5.694-26.767-1.047-4.922s-12.663,3.037-15.365,10.38,9.918,25.606,12.975,27.619S3679.136,914.63,3679.136,914.63Z" transform="translate(-3651.323 -804.82)" fill="#f7b68b"/><path d="M3656.622,871.03l-9.314,12.706,5.018,8.754,16.055-14.666Z" transform="translate(-3647.308 -799.702)" fill="#ec9568"/><path d="M3755.844,921.065s22.625-2.254,18.764,29.924c-.812,6.761-19.43,31.011-31.769,42.554s-22.026,20.267-31.463,12.7c-32.95-26.434-40.866-66.6-40.866-66.6l18.984-16.055s33.272,34.941,33.467,40.044S3744.453,935.128,3755.844,921.065Z" transform="translate(-3657.276 -821.184)" fill="#0450cf"/><path d="M3826.14,770.75s-14.373-.029-18.359-5.845,8.949-2.913,2.7.495-18.819-4.784-14.727-11.071,9.88-8.633,14.9-4.309.447,6.124-1.242,2.182,7.242-12.4,12.963,1.263,1.925,14.348.332,5.491,4.372-13.846,7.569-3.32-3.51,15-4.678,10.312,12.991-13.111,13.262-4.342.188,19.232-6.424,18.787,10.769-21.853,15.185-2.728-7.243,12.4-7.346,8.178,21.892,5.536,3.772,10.1-10.862-2.294-11.974-6.666,14.212,8.223,4.594,16.482-17.892,5.826-15.313-3.453,12.109-3.482,8.24,4.069.635,12.623,2.444,13.6-12.718,5.549-14.772-2.246S3814.692,772.48,3826.14,770.75Z" transform="translate(-3710.739 -745.978)" fill="#212a54"/><path d="M3790.578,787.964l.267-3.966,9.017-9.784s.309,3.537,13.239,6.439c19.276,4.326,1.737,7.851,0,16.329-.954,4.632-.26,8.077.987,9.653a66.923,66.923,0,0,1-16.216,16.583l-.033-.308-8.688,2.539c-8.687,2.54-6.683-6.309-6.683-6.309l2.907-16.523-2.66-5.727Z" transform="translate(-3705.287 -758.108)" fill="#f7b68b"/><path d="M3790.577,787.964l.268-3.966,9.017-9.784s.309,3.537,13.239,6.439c19.275,4.326,1.737,7.851-.005,16.328s2.014,13.026,4.608,9.294,9.556-4.982,12.3-.578-7.207,10.767-9.367,11.48a4.973,4.973,0,0,1-3.594-.006s5.046,21.358,7.713,31.926c-2.292,1.23-18.628.562-24.711-2.9.056-8.789-2.216-23.292-2.216-23.292l-8.688,2.539c-8.687,2.54-6.684-6.31-6.684-6.31l2.909-16.523-2.661-5.727Z" transform="translate(-3705.286 -758.108)" fill="#f7b68b"/></g><path d="M3600.941,747.1l21.952,5.716,4.037,1.051s-3.021,10.247-9.215,12.17-20.821-9.128-22.368-11.712S3600.941,747.1,3600.941,747.1Z" transform="translate(-11551.5 465.279)" fill="#f7b68b"/><path d="M3646.409,768.859l-10.9,7.124-7.054-4.453,12.793-12.565Z" transform="translate(-11565.817 460.182)" fill="#ec9568"/><path d="M3556.785,592.451s2.574-30.89-16.3-32.606c-5.626-.512-15.446,12.871-22.309,27.458-5.934,12.61-27,46.834-21.1,54.858,20.589,28.017,53.554,36.08,53.554,36.08l14.061-14.908s-27.625-28.617-31.847-28.977S3551.574,607.039,3556.785,592.451Z" transform="translate(-11508.93 545.733)" fill="#f49e00"/><path d="M3618.1,507.2c-3.572,4.7-10,13.149-13.843,18.061,1.336,1.673,13.985,6.513,19.757,5.9A132.8,132.8,0,0,1,3631.9,516.8Z" transform="translate(-11555.423 568.342)" fill="#f7b68b"/><g transform="translate(-7950.126 1043.055)"><path d="M3640.172,504.761a4.58,4.58,0,0,1-4.928,4.213l-20.575-1.638a4.588,4.588,0,0,1-4.205-4.935l2.428-30.466a4.585,4.585,0,0,1,4.937-4.211l20.563,1.648a4.578,4.578,0,0,1,4.208,4.929Z" transform="translate(-3607.957 -457.745)" fill="#f7b68b"/><path d="M3663.657,482.026s3-2.724,3.646-4.5a6.831,6.831,0,0,0-2.464-5.945c-2.182-1.51-4.277.809-4.277.809s3.486,2.321,3.615,3.1S3663.657,482.026,3663.657,482.026Z" transform="translate(-3629.486 -459.188)" fill="#163f59"/><path d="M3607.994,477.966s-2.172-11.951-1.334-15.332,1.42-5.736,5.632-5.784c6.314-.066,6.289,1.268,9.487-.4s9.043-5.809,10.961-6.115c3.208-.517,8.037.925,7.759,6.845a6.585,6.585,0,0,0,2.371,5.815c-.289.509-1.471.918-3.543,1.756-5.947,2.4-9.42,2.7-13.7,1.207s-12.247-4.616-13.459-1.453-1.618,13.1-2.054,13.826S3608.713,478.609,3607.994,477.966Z" transform="translate(-3606.245 -450.24)" fill="#194866"/><path d="M3613.579,508.16a1.537,1.537,0,0,1-1.649,1.4l-4.442-.357a1.53,1.53,0,0,1-1.406-1.642l.645-8.122a1.542,1.542,0,0,1,1.647-1.411l4.443.36a1.517,1.517,0,0,1,1.4,1.639Z" transform="translate(-3606.078 -470.77)" fill="#f7b68b"/><path d="M3660.031,511.848a1.52,1.52,0,0,1-1.639,1.408l-4.44-.351a1.534,1.534,0,0,1-1.408-1.652l.65-8.119a1.53,1.53,0,0,1,1.641-1.4l4.447.35a1.537,1.537,0,0,1,1.4,1.65Z" transform="translate(-3626.038 -472.359)" fill="#f7b68b"/><path d="M3611.237,503.817l-1.274,15.988c-.289,3.617.525,11.669,20.95,13.284,12.088.973,12.356-7.949,12.586-10.872.177-2.221-1.809-9.078-2.982-10.455-.041-.042-.4,4.952-.4,4.952a9.69,9.69,0,0,0-7.876-5.479c-9.271-.741-11.81,4.519-15.889,4.1C3613.209,515.008,3611.26,509.7,3611.237,503.817Z" transform="translate(-3607.73 -473.257)" fill="#194866"/><path d="M3640.213,528.18l6.344.5a1.528,1.528,0,0,0,1.645-1.405l.07-.889-9.395-.741-.069.887A1.534,1.534,0,0,0,3640.213,528.18Z" transform="translate(-3620.138 -482.636)" fill="#f7b68b"/></g><g transform="translate(-8000.648 1314.497)"><path d="M20.434,3.756H0V-3.756H20.434Z" transform="translate(58.555 12.143)" fill="#0561fc"/><path d="M16.881,3.756H0V-3.756H16.881Z" transform="translate(58.555 20.713)" fill="#0561fc"/><rect width="17.139" height="17.14" transform="translate(33.563 7.858)" fill="#4e99ff"/><path d="M20.434,3.756H0V-3.756H20.434Z" transform="translate(58.555 42.138)" fill="#9ac7f7"/><path d="M16.881,3.756H0V-3.756H16.881Z" transform="translate(58.555 50.707)" fill="#9ac7f7"/><rect width="17.139" height="17.139" transform="translate(33.563 37.853)" fill="url(#a)"/><path d="M20.434,3.756H0V-3.756H20.434Z" transform="translate(58.555 72.131)" fill="#9ac7f7"/><path d="M16.881,3.756H0V-3.756H16.881Z" transform="translate(58.555 80.701)" fill="#9ac7f7"/><rect width="17.139" height="17.14" transform="translate(33.563 67.847)" fill="url(#a)"/><rect width="28.567" height="28.567" fill="#9fc400"/><path d="M3534.127,958.076l-8.012-8.012,5.312-5.312,2.7,2.7,10.2-10.2,5.312,5.312Z" transform="translate(-3522.343 -932.051)" fill="#fff"/></g><path d="M3290.043,417.124l-5.8-23.053,11.689-5.753a75.637,75.637,0,0,1,.633-10.214l-11.486-6.1,6.509-22.87,14.38.958a75.13,75.13,0,0,1,4.933-7.557l-7.557-12.087,17.073-16.548,12.768,8.545a76.474,76.474,0,0,1,7.29-3.81l-.526-15.049,23.056-5.8,6.893,14.006a75.338,75.338,0,0,1,8.066.208l7.105-13.376,22.867,6.512-1,15.111a75.471,75.471,0,0,1,7.378,4.347l12.319-7.7,16.55,17.072-7.843,11.715a76.287,76.287,0,0,1,4.8,8.283l13.353-.469,5.8,23.055-11.374,5.6a75.632,75.632,0,0,1,.029,10.885l10.508,5.586-6.506,22.864-11.3-.749a75.583,75.583,0,0,1-6.07,10.468l5.613,8.976-17.071,16.549-8.6-5.761a76.624,76.624,0,0,1-11.27,6.269l.344,9.8-23.055,5.792-4.424-8.988a75.587,75.587,0,0,1-13.081-.435l-4.562,8.583-22.87-6.506.693-10.456a75.358,75.358,0,0,1-10.585-6.8l-8.8,5.5-16.547-17.066,6.455-9.643a76.785,76.785,0,0,1-5.173-10.295Zm71.046,9.14a39.938,39.938,0,1,0-27.483-49.344A39.936,39.936,0,0,0,3361.089,426.264Z" transform="translate(-11417.938 658.313)" fill="#c5e1f9"/><path d="M3410.627,357.293a57.37,57.37,0,1,1-70.884,39.47A57.373,57.373,0,0,1,3410.627,357.293Zm-28.153,98.9a45.461,45.461,0,1,0-31.283-56.168A45.459,45.459,0,0,0,3382.474,456.194Z" transform="translate(-11440.834 633.694)" fill="#eaf4fe" style="mix-blend-mode:multiply;isolation:isolate"/></g></svg>