<svg xmlns="http://www.w3.org/2000/svg" width="150.302" height="39" viewBox="0 0 150.302 39"><g transform="translate(0 3.177)"><g transform="translate(0)"><path d="M1080.705,552.809a1.371,1.371,0,0,1-1.371-1.371V538.566a1.765,1.765,0,0,0-1.762-1.763H1070.7a4.5,4.5,0,0,1,0-9.009h13.746a4.5,4.5,0,0,1,0,9.009,1.371,1.371,0,0,1,0-2.742,1.763,1.763,0,0,0,0-3.525H1070.7a1.763,1.763,0,1,0,0,3.525h6.873a4.51,4.51,0,0,1,4.5,4.5v12.872A1.371,1.371,0,0,1,1080.705,552.809Z" transform="translate(-1066.194 -527.794)" fill="#fff"/></g><g transform="translate(0 10.64)"><path d="M1084.445,649.887H1070.7a4.5,4.5,0,1,1,0-9.009,1.371,1.371,0,1,1,0,2.742,1.763,1.763,0,0,0,0,3.526h13.746a1.763,1.763,0,0,0,0-3.526h-6.873a4.51,4.51,0,0,1-4.5-4.5V626.243a1.371,1.371,0,1,1,2.742,0v12.872a1.765,1.765,0,0,0,1.763,1.763h6.873a4.5,4.5,0,0,1,0,9.009Z" transform="translate(-1066.194 -624.872)" fill="#fff"/></g><text transform="translate(89.302 31.823)" fill="#fff" font-size="16" font-family="Roboto-Regular, Roboto"><tspan x="-60.914" y="0">International App</tspan></text><text transform="translate(89.302 13.823)" fill="#fff" font-size="16" font-family="SegoeUI-Bold, Segoe UI" font-weight="700"><tspan x="-60.32" y="0">التطبيقات العالمية</tspan></text></g></svg>