<svg xmlns="http://www.w3.org/2000/svg" width="48" height="48" viewBox="0 0 48 48"><g transform="translate(6 -3)"><g transform="translate(-6 3)"><path d="M29.6,35.7l-.3-1.2a8.651,8.651,0,0,1-1.7-.7V39H4V6H27.6V9.8a8.651,8.651,0,0,1,1.7-.7l.3-1.2a3.32,3.32,0,0,1,2-2.3V3a2.946,2.946,0,0,0-3-3H3A3.009,3.009,0,0,0,0,3V45a3.009,3.009,0,0,0,3,3H28.6a2.946,2.946,0,0,0,3-3V38A3.135,3.135,0,0,1,29.6,35.7ZM14.1,2.2h3.5a1.075,1.075,0,0,1,1,1,1,1,0,0,1-1,1H14.1a.945.945,0,0,1-1-1A.945.945,0,0,1,14.1,2.2Zm1.7,43.5A2.2,2.2,0,1,1,18,43.5,2.22,2.22,0,0,1,15.8,45.7Z" fill="#fdb415"/><path d="M47,19.8l-1.6-.4a1.182,1.182,0,0,1-.9-.9,6.667,6.667,0,0,0-.9-2.1,1.483,1.483,0,0,1,0-1.3l.9-1.4a1.376,1.376,0,0,0-.2-1.6L43.2,11a1.358,1.358,0,0,0-1.6-.2l-1.4.9a1.483,1.483,0,0,1-1.3,0,9.494,9.494,0,0,0-2.1-.9,1.352,1.352,0,0,1-.9-.9l-.4-1.6a1.188,1.188,0,0,0-1.2-1H32.8a1.188,1.188,0,0,0-1.2,1L31.2,10a1.182,1.182,0,0,1-.9.9,6.667,6.667,0,0,0-2.1.9,1.483,1.483,0,0,1-1.3,0l-1.4-.9a1.376,1.376,0,0,0-1.6.2l-1.1,1.1a1.358,1.358,0,0,0-.2,1.6l.9,1.4a1.483,1.483,0,0,1,0,1.3,9.493,9.493,0,0,0-.9,2.1,1.182,1.182,0,0,1-.9.9l-1.6.4a1.188,1.188,0,0,0-1,1.2v1.5a1.188,1.188,0,0,0,1,1.2l1.6.4a1.182,1.182,0,0,1,.9.9,6.667,6.667,0,0,0,.9,2.1,1.483,1.483,0,0,1,0,1.3l-.9,1.4a1.376,1.376,0,0,0,.2,1.6l1.1,1.1a1.358,1.358,0,0,0,1.6.2l1.4-.9a1.483,1.483,0,0,1,1.3,0,9.494,9.494,0,0,0,2.1.9,1.352,1.352,0,0,1,.9.9l.4,1.6a1.188,1.188,0,0,0,1.2,1h1.5a1.188,1.188,0,0,0,1.2-1l.4-1.6a1.182,1.182,0,0,1,.9-.9,6.667,6.667,0,0,0,2.1-.9,1.483,1.483,0,0,1,1.3,0l1.4.9a1.376,1.376,0,0,0,1.6-.2l1.1-1.1a1.358,1.358,0,0,0,.2-1.6l-.9-1.4a1.483,1.483,0,0,1,0-1.3,9.493,9.493,0,0,0,.9-2.1,1.352,1.352,0,0,1,.9-.9l1.6-.4a1.188,1.188,0,0,0,1-1.2V21.1A1.381,1.381,0,0,0,47,19.8Zm-13.4,10a7.9,7.9,0,1,1,7.9-7.9A7.917,7.917,0,0,1,33.6,29.8Z" fill="#fdb415"/><path d="M33.6,17.1a4.8,4.8,0,1,0,4.8,4.8A4.866,4.866,0,0,0,33.6,17.1Z" fill="#fdb415"/></g></g></svg>