<svg width="631" height="364" viewBox="0 0 631 364" fill="none" xmlns="http://www.w3.org/2000/svg">
<g id="product">
<g id="Group 11">
<g id="shop">
<g id="shop_2">
<path id="Vector" d="M107.4 184.257H57.6949V221.208H107.4V184.257Z" fill="#FFD15C"/>
<path id="Vector_2" d="M103.824 194.508H85.7059V221.208H103.824V194.508Z" fill="#415A6B"/>
<path id="Vector_3" d="M102.036 196.296H87.494V219.42H102.036V196.296Z" fill="#8AD7F8"/>
<path id="Vector_4" d="M54 180.443V185.807C53.9902 186.561 54.1315 187.309 54.4155 188.008C54.6995 188.706 55.1206 189.341 55.6538 189.874C56.187 190.407 56.8216 190.828 57.5201 191.112C58.2186 191.397 58.967 191.538 59.721 191.528C60.475 191.538 61.2233 191.397 61.9219 191.112C62.6204 190.828 63.255 190.407 63.7882 189.874C64.3214 189.341 64.7425 188.706 65.0265 188.008C65.3105 187.309 65.4518 186.561 65.442 185.807V180.443H54Z" fill="#F05540"/>
<path id="Vector_5" d="M65.443 180.443V185.807C65.443 187.324 66.0458 188.78 67.1188 189.853C68.1918 190.926 69.6471 191.528 71.1645 191.528C72.6819 191.528 74.1372 190.926 75.2102 189.853C76.2832 188.78 76.886 187.324 76.886 185.807V180.443H65.443Z" fill="#E8EAE9"/>
<path id="Vector_6" d="M76.886 180.443V185.807C76.886 187.324 77.4888 188.78 78.5618 189.853C79.6348 190.926 81.09 191.528 82.6075 191.528C84.1249 191.528 85.5802 190.926 86.6532 189.853C87.7262 188.78 88.329 187.324 88.329 185.807V180.443H76.886Z" fill="#F05540"/>
<path id="Vector_7" d="M88.328 180.443V185.807C88.328 187.324 88.9308 188.78 90.0038 189.853C91.0768 190.926 92.5321 191.528 94.0495 191.528C95.5669 191.528 97.0222 190.926 98.0952 189.853C99.1682 188.78 99.771 187.324 99.771 185.807V180.443H88.328Z" fill="#E8EAE9"/>
<path id="Vector_8" d="M99.771 180.443V185.807C99.771 187.324 100.374 188.78 101.447 189.853C102.52 190.926 103.975 191.528 105.492 191.528C107.01 191.528 108.465 190.926 109.538 189.853C110.611 188.78 111.214 187.324 111.214 185.807V180.443H99.771Z" fill="#F05540"/>
<path id="Vector_9" d="M67.946 169H58.172L54 180.443H65.443L67.946 169Z" fill="#F3705A"/>
<path id="Vector_10" d="M77.72 169H67.943L65.443 180.443H76.886L77.72 169Z" fill="#F3F3F3"/>
<path id="Vector_11" d="M87.494 169H77.72L76.886 180.443H88.329L87.494 169Z" fill="#F3705A"/>
<path id="Vector_12" d="M97.268 169H87.494L88.328 180.443H99.771L97.268 169Z" fill="#F3F3F3"/>
<path id="Vector_13" d="M107.042 169H97.2679L99.7679 180.443H111.211L107.042 169Z" fill="#F3705A"/>
<path id="Vector_14" d="M111.214 221.208H54V226.214H111.214V221.208Z" fill="#CED6E0"/>
<g id="Group">
<path id="Vector_15" d="M89.759 209.408C90.615 209.408 91.309 208.714 91.309 207.858C91.309 207.002 90.615 206.308 89.759 206.308C88.9029 206.308 88.209 207.002 88.209 207.858C88.209 208.714 88.9029 209.408 89.759 209.408Z" fill="#415A6B"/>
<path id="Vector_16" d="M81.415 194.508H61.271V212.626H81.415V194.508Z" fill="#415A6B"/>
</g>
<path id="Vector_17" d="M79.627 196.296H63.059V210.838H79.627V196.296Z" fill="#8AD7F8"/>
<g id="Group_2">
<path id="Vector_18" d="M71.76 198.561C71.6052 198.445 71.417 198.382 71.2235 198.382C71.03 198.382 70.8418 198.445 70.687 198.561L64.846 204.402C64.71 204.546 64.6353 204.737 64.638 204.934C64.6407 205.132 64.7204 205.321 64.8602 205.461C65.0001 205.601 65.189 205.68 65.3867 205.683C65.5845 205.686 65.7755 205.611 65.919 205.475L71.76 199.634C71.8438 199.572 71.9118 199.491 71.9587 199.398C72.0056 199.305 72.03 199.202 72.03 199.098C72.03 198.993 72.0056 198.89 71.9587 198.797C71.9118 198.704 71.8438 198.623 71.76 198.561V198.561Z" fill="#55C0EB"/>
<path id="Vector_19" d="M73.071 202.018C72.9163 201.902 72.728 201.839 72.5345 201.839C72.3411 201.839 72.1528 201.902 71.998 202.018L68.298 205.718C68.162 205.862 68.0874 206.052 68.09 206.25C68.0927 206.448 68.1724 206.637 68.3123 206.777C68.4521 206.917 68.641 206.996 68.8388 206.999C69.0365 207.002 69.2275 206.927 69.371 206.791L73.071 203.091C73.1548 203.029 73.2228 202.948 73.2697 202.855C73.3166 202.762 73.3411 202.659 73.3411 202.554C73.3411 202.45 73.3166 202.347 73.2697 202.254C73.2228 202.161 73.1548 202.08 73.071 202.018Z" fill="#55C0EB"/>
</g>
</g>
<path id="Vector_20" d="M76.1262 115.409L1.40855 204.454L90.4536 279.171L165.171 190.126L76.1262 115.409ZM76.0029 114L166.58 190.003L90.5768 280.58L-0.00027894 204.577L76.0029 114Z" fill="#C5C5C5"/>
</g>
<g id="beauty">
<g id="beauty_2">
<path id="Vector_21" d="M182.737 306.025H174.247C171.947 306.025 169.67 305.572 167.545 304.692C165.42 303.812 163.49 302.522 161.864 300.896C160.237 299.269 158.947 297.339 158.067 295.214C157.187 293.089 156.734 290.812 156.734 288.512V268.338C156.734 262.567 159.026 257.033 163.107 252.953C167.187 248.872 172.722 246.58 178.492 246.58V246.58C184.263 246.58 189.797 248.872 193.877 252.953C197.958 257.033 200.25 262.567 200.25 268.338V288.512C200.25 293.157 198.405 297.611 195.121 300.896C191.836 304.18 187.382 306.025 182.737 306.025V306.025Z" fill="#606572"/>
<path id="Vector_22" d="M178.491 246.58C177.919 246.58 177.352 246.602 176.791 246.646C182.251 247.074 187.349 249.545 191.067 253.566C194.785 257.587 196.85 262.862 196.85 268.339V288.512C196.85 293.157 195.005 297.611 191.721 300.896C188.436 304.18 183.982 306.025 179.337 306.025H182.737C185.037 306.025 187.314 305.572 189.439 304.692C191.564 303.812 193.495 302.522 195.121 300.896C196.748 299.27 198.038 297.339 198.918 295.214C199.798 293.089 200.251 290.812 200.251 288.512V268.339C200.251 265.482 199.689 262.652 198.595 260.012C197.501 257.372 195.899 254.973 193.878 252.952C191.857 250.932 189.459 249.329 186.818 248.236C184.178 247.142 181.349 246.58 178.491 246.58V246.58Z" fill="#3B4254"/>
<path id="Vector_23" d="M197.129 308.961H159.794L160.109 303.961C160.223 302.155 160.91 300.432 162.07 299.043C163.23 297.654 164.803 296.671 166.56 296.237L171.985 294.896C172.115 294.864 172.231 294.789 172.313 294.684C172.396 294.578 172.441 294.448 172.441 294.314V282.176H184.541V294.334C184.541 294.468 184.586 294.598 184.669 294.704C184.752 294.809 184.867 294.884 184.997 294.916L190.361 296.242C192.118 296.676 193.691 297.659 194.851 299.048C196.011 300.437 196.698 302.16 196.812 303.966L197.129 308.961Z" fill="#F9C295"/>
<path id="Vector_24" d="M196.814 303.966C196.7 302.16 196.014 300.437 194.853 299.048C193.693 297.659 192.12 296.676 190.363 296.242L184.999 294.916C184.869 294.884 184.754 294.809 184.671 294.704C184.588 294.598 184.543 294.468 184.543 294.334V282.176H181.465V294.334C181.465 294.468 181.51 294.598 181.593 294.704C181.676 294.809 181.791 294.884 181.921 294.916L187.285 296.242C189.042 296.676 190.615 297.659 191.775 299.048C192.935 300.437 193.622 302.16 193.736 303.966L194.051 308.966H197.129L196.814 303.966Z" fill="#E8A26A"/>
<path id="Vector_25" d="M172.442 292.327C174.27 293.421 176.361 293.999 178.492 293.999C180.623 293.999 182.714 293.421 184.542 292.327V282.176H172.442V292.327Z" fill="#E8A26A"/>
<path id="Vector_26" d="M194.098 275.709C192.22 285.336 184.44 290.877 178.498 290.877C172.898 290.877 165.667 285.962 163.279 277.344C173.923 275.828 182.896 265.959 185.141 260.233C185.136 260.232 185.136 272.847 194.098 275.709Z" fill="#F9C295"/>
<path id="Vector_27" d="M190.03 273.299C189.53 283.829 182.877 290.208 177.514 290.826C177.844 290.858 178.171 290.876 178.492 290.876C184.438 290.876 192.219 285.336 194.092 275.708C192.573 275.225 191.183 274.401 190.03 273.299V273.299Z" fill="#E8A26A"/>
<g id="Group_3">
<path id="Vector_28" d="M196.574 251.245C195.835 253.967 194.807 254.995 192.085 255.734C191.964 255.767 191.857 255.84 191.78 255.94C191.704 256.04 191.662 256.163 191.662 256.289C191.662 256.415 191.704 256.537 191.78 256.637C191.857 256.737 191.964 256.81 192.085 256.843C194.807 257.582 195.835 258.61 196.574 261.332C196.608 261.454 196.68 261.561 196.78 261.637C196.88 261.714 197.003 261.755 197.129 261.755C197.255 261.755 197.377 261.714 197.477 261.637C197.578 261.561 197.65 261.454 197.683 261.332C198.422 258.61 199.45 257.582 202.172 256.843C202.294 256.81 202.401 256.737 202.477 256.637C202.554 256.537 202.595 256.415 202.595 256.289C202.595 256.163 202.554 256.04 202.477 255.94C202.401 255.84 202.294 255.767 202.172 255.734C199.45 254.995 198.422 253.967 197.683 251.245C197.65 251.124 197.578 251.016 197.477 250.94C197.377 250.864 197.255 250.822 197.129 250.822C197.003 250.822 196.88 250.864 196.78 250.94C196.68 251.016 196.608 251.124 196.574 251.245V251.245Z" fill="#FEE9A1"/>
</g>
<g id="Group_4">
<path id="Vector_29" d="M201.495 294.043L194.395 287.479C194.084 287.191 193.851 286.828 193.721 286.424C193.59 286.02 193.565 285.59 193.649 285.174C193.732 284.758 193.922 284.37 194.198 284.048C194.475 283.727 194.829 283.481 195.228 283.336L203.983 280.15C204.382 280.005 204.811 279.965 205.23 280.034C205.648 280.103 206.042 280.278 206.373 280.543C206.705 280.808 206.962 281.154 207.122 281.547C207.281 281.94 207.337 282.367 207.283 282.788L206.062 292.381L201.495 294.043Z" fill="#FEE9A1"/>
<path id="Vector_30" d="M203.98 280.149L201.761 280.957C203.154 280.45 204.723 281.966 204.649 283.746L204.261 293.036L206.061 292.381L207.282 282.788C207.336 282.367 207.281 281.939 207.121 281.546C206.962 281.152 206.704 280.806 206.372 280.541C206.041 280.276 205.646 280.101 205.228 280.032C204.809 279.964 204.379 280.004 203.98 280.149V280.149Z" fill="#FDCA67"/>
<g id="Group_5">
<path id="Vector_31" d="M204.363 283.541C204.161 282.443 203.762 281.39 203.186 280.434L201.275 281.134C201.853 281.956 202.242 282.896 202.415 283.886L202.863 286.451C202.914 286.704 203.061 286.928 203.274 287.074C203.487 287.22 203.749 287.277 204.003 287.232C204.258 287.188 204.485 287.046 204.636 286.836C204.787 286.627 204.85 286.366 204.811 286.111L204.363 283.541Z" fill="#DDA84A"/>
<path id="Vector_32" d="M197.114 286.183L198.42 288.436C198.555 288.655 198.771 288.813 199.021 288.876C199.27 288.939 199.535 288.902 199.758 288.773C199.981 288.644 200.145 288.433 200.214 288.185C200.284 287.937 200.254 287.671 200.131 287.445L198.825 285.192C198.322 284.322 198.016 283.352 197.93 282.351L196.02 283.051C196.193 284.152 196.564 285.213 197.114 286.183V286.183Z" fill="#DDA84A"/>
</g>
<path id="Vector_33" d="M201.134 294.725L205.076 305.555C205.211 305.926 205.417 306.266 205.683 306.557C205.95 306.847 206.271 307.083 206.628 307.249C206.985 307.416 207.372 307.511 207.766 307.528C208.159 307.545 208.553 307.484 208.923 307.349V307.349C209.294 307.214 209.634 307.008 209.924 306.742C210.215 306.476 210.45 306.155 210.617 305.798C210.784 305.441 210.878 305.054 210.895 304.66C210.913 304.267 210.852 303.873 210.717 303.503L206.775 292.673C206.731 292.549 206.662 292.435 206.573 292.337C206.484 292.24 206.377 292.161 206.257 292.105C206.138 292.05 206.008 292.018 205.876 292.013C205.745 292.007 205.613 292.028 205.489 292.073L201.735 293.439C201.611 293.484 201.497 293.552 201.399 293.641C201.302 293.73 201.223 293.837 201.167 293.957C201.111 294.076 201.079 294.206 201.074 294.338C201.068 294.47 201.089 294.601 201.134 294.725Z" fill="#FD7BA2"/>
<path id="Vector_34" d="M210.716 303.501L206.77 292.672C206.726 292.548 206.657 292.434 206.568 292.336C206.479 292.239 206.371 292.16 206.252 292.104C206.132 292.048 206.003 292.017 205.871 292.011C205.739 292.006 205.607 292.026 205.483 292.072L203.525 292.785C203.825 292.674 204.225 293.007 204.418 293.528L208.36 304.358C208.603 304.859 208.71 305.414 208.67 305.969C208.631 306.524 208.446 307.059 208.135 307.52C208.403 307.498 208.666 307.441 208.918 307.349C209.289 307.215 209.63 307.009 209.921 306.743C210.212 306.476 210.448 306.155 210.615 305.798C210.782 305.441 210.877 305.054 210.895 304.66C210.912 304.265 210.851 303.872 210.716 303.501V303.501Z" fill="#E9488E"/>
<path id="Vector_35" d="M208.31 296.894L207.634 295.036L201.994 297.089L202.67 298.947L208.31 296.894Z" fill="#606572"/>
<path id="Vector_36" d="M207.635 295.036L205.284 295.892L205.96 297.75L208.311 296.894L207.635 295.036Z" fill="#3B4254"/>
</g>
<g id="Group_6">
<path id="Vector_37" d="M163.518 289.611V299.346H154.549V285.482C154.547 285.322 154.586 285.165 154.664 285.025C155.221 284.061 157.627 284.41 160.039 285.803C162.118 287 163.518 288.579 163.518 289.611Z" fill="#FF7870"/>
<path id="Vector_38" d="M160.512 286.09V299.346H163.518V289.611C163.518 288.659 162.323 287.243 160.512 286.09Z" fill="#D7352E"/>
<path id="Vector_39" d="M163.527 299.346H154.541C154.187 299.346 153.848 299.487 153.597 299.737C153.347 299.987 153.206 300.327 153.206 300.681V312.727C153.206 313.081 153.347 313.421 153.597 313.671C153.848 313.921 154.187 314.062 154.541 314.062H163.527C163.881 314.062 164.221 313.921 164.471 313.671C164.722 313.421 164.862 313.081 164.862 312.727V300.681C164.862 300.327 164.722 299.987 164.471 299.737C164.221 299.487 163.881 299.346 163.527 299.346Z" fill="#78BAF6"/>
<path id="Vector_40" d="M163.527 299.346H160.521C160.875 299.346 161.215 299.487 161.465 299.737C161.715 299.987 161.856 300.327 161.856 300.681V312.727C161.856 313.081 161.715 313.421 161.465 313.671C161.215 313.921 160.875 314.062 160.521 314.062H163.527C163.881 314.062 164.221 313.921 164.471 313.671C164.721 313.421 164.862 313.081 164.862 312.727V300.681C164.862 300.327 164.721 299.987 164.471 299.737C164.221 299.487 163.881 299.346 163.527 299.346Z" fill="#1885DA"/>
<path id="Vector_41" d="M163.518 289.611C163.521 289.772 163.481 289.93 163.401 290.07C162.845 291.034 160.438 290.685 158.026 289.292C155.952 288.092 154.55 286.515 154.55 285.482C154.548 285.322 154.587 285.165 154.665 285.025C155.222 284.061 157.628 284.41 160.04 285.803C162.118 287 163.518 288.579 163.518 289.611Z" fill="#FF9794"/>
<path id="Vector_42" d="M164.861 302.383H153.206V304.36H164.861V302.383Z" fill="#606572"/>
<path id="Vector_43" d="M164.862 302.383H161.856V304.36H164.862V302.383Z" fill="#3B4254"/>
</g>
</g>
<path id="Vector_44" d="M175.126 198.409L100.409 287.454L189.454 362.171L264.171 273.126L175.126 198.409ZM175.003 197L265.58 273.003L189.577 363.58L99 287.577L175.003 197Z" fill="#C5C5C5"/>
</g>
<g id="clothes">
<g id="clothes_2">
<path id="Vector_45" d="M163.646 121.616H188.617V126.156H163.646V121.616Z" fill="#C48669"/>
<path id="Vector_46" d="M164.781 126.156H187.481V131.831H164.781V126.156Z" fill="#FFE76C"/>
<g id="Group_7">
<path id="Vector_47" d="M177.266 126.156H179.536V131.831H177.266V126.156Z" fill="#E6BE5E"/>
<path id="Vector_48" d="M172.726 126.156H174.996V131.831H172.726V126.156Z" fill="#E6BE5E"/>
<path id="Vector_49" d="M181.806 126.156H184.076V131.831H181.806V126.156Z" fill="#E6BE5E"/>
<path id="Vector_50" d="M168.186 126.156H170.456V131.831H168.186V126.156Z" fill="#E6BE5E"/>
</g>
<path id="Vector_51" d="M192.021 86.43H185.211C184.91 86.43 184.621 86.3104 184.408 86.0975C184.196 85.8847 184.076 85.596 184.076 85.295C184.076 84.9939 184.196 84.7053 184.408 84.4924C184.621 84.2795 184.91 84.16 185.211 84.16H192.021C192.322 84.16 192.611 84.2795 192.824 84.4924C193.036 84.7053 193.156 84.9939 193.156 85.295C193.156 85.596 193.036 85.8847 192.824 86.0975C192.611 86.3104 192.322 86.43 192.021 86.43V86.43Z" fill="#DADCDE"/>
<path id="Vector_52" d="M192.021 90.97H185.211C184.91 90.97 184.621 90.8504 184.408 90.6376C184.196 90.4247 184.076 90.136 184.076 89.835C184.076 89.534 184.196 89.2453 184.408 89.0324C184.621 88.8196 184.91 88.7 185.211 88.7H192.021C192.322 88.7 192.611 88.8196 192.824 89.0324C193.036 89.2453 193.156 89.534 193.156 89.835C193.156 90.136 193.036 90.4247 192.824 90.6376C192.611 90.8504 192.322 90.97 192.021 90.97V90.97Z" fill="#DADCDE"/>
<path id="Vector_53" d="M192.021 95.511H185.211C184.91 95.511 184.621 95.3914 184.408 95.1786C184.196 94.9657 184.076 94.677 184.076 94.376C184.076 94.075 184.196 93.7863 184.408 93.5735C184.621 93.3606 184.91 93.241 185.211 93.241H192.021C192.322 93.241 192.611 93.3606 192.824 93.5735C193.036 93.7863 193.156 94.075 193.156 94.376C193.156 94.677 193.036 94.9657 192.824 95.1786C192.611 95.3914 192.322 95.511 192.021 95.511V95.511Z" fill="#DADCDE"/>
<path id="Vector_54" d="M188.616 70.54C186.509 70.54 184.488 71.377 182.998 72.867C181.508 74.357 180.671 76.3778 180.671 78.485V107.996H196.561V78.485C196.561 76.3778 195.724 74.357 194.234 72.867C192.744 71.377 190.723 70.54 188.616 70.54V70.54ZM188.616 76.215C190.496 76.215 192.021 77.231 192.021 78.485C192.021 79.739 190.496 80.755 188.616 80.755C186.736 80.755 185.211 79.739 185.211 78.485C185.211 77.231 186.736 76.215 188.616 76.215Z" fill="#9AA3A8"/>
<path id="Vector_55" d="M138.675 66L133 83.025L144.35 86.43L142.08 69.405L138.675 66Z" fill="#FFDB8D"/>
<path id="Vector_56" d="M170.456 66L176.131 83.025L164.781 86.43L167.051 69.405L170.456 66Z" fill="#FFDB8D"/>
<path id="Vector_57" d="M147.755 66H161.375V83.025H147.755V66Z" fill="#FFDB8D"/>
<path id="Vector_58" d="M170.456 66V106.861H138.675V66C139.985 66.9823 141.578 67.5133 143.215 67.5133C144.852 67.5133 146.445 66.9823 147.755 66C147.755 69.761 150.804 80.755 154.565 80.755C158.326 80.755 161.375 69.761 161.375 66C162.685 66.9823 164.278 67.5133 165.915 67.5133C167.552 67.5133 169.145 66.9823 170.455 66H170.456Z" fill="#FDB415"/>
<path id="Vector_59" d="M197.696 105.726C197.696 106.93 197.218 108.085 196.366 108.936C195.515 109.788 194.36 110.266 193.156 110.266C191.922 110.305 190.715 109.903 189.751 109.131C189.217 110.171 188.402 111.042 187.399 111.643C186.397 112.245 185.245 112.554 184.076 112.536C182.901 112.583 181.739 112.285 180.73 111.68C179.722 111.075 178.913 110.189 178.401 109.131C176.981 115.137 171.219 119.346 164.781 119.346C162.176 119.276 159.639 118.501 157.44 117.102C155.241 115.704 153.463 113.735 152.295 111.406C150.435 113.929 147.724 115.946 144.35 115.946C141.641 115.946 139.043 114.87 137.127 112.954C135.211 111.038 134.135 108.44 134.135 105.731C134.135 103.022 135.211 100.424 137.127 98.5079C139.043 96.5922 141.641 95.516 144.35 95.516C147.724 95.516 150.435 97.533 152.295 100.056C153.462 97.7248 155.239 95.754 157.438 94.3539C159.637 92.9538 162.175 92.1769 164.781 92.106C171.219 92.106 176.981 96.316 178.401 102.321C178.913 101.263 179.722 100.377 180.73 99.7717C181.739 99.1669 182.901 98.8695 184.076 98.916C185.245 98.8977 186.397 99.2069 187.399 99.8086C188.402 100.41 189.217 101.281 189.751 102.321C190.715 101.549 191.922 101.147 193.156 101.186C194.36 101.186 195.515 101.664 196.366 102.516C197.218 103.367 197.696 104.522 197.696 105.726Z" fill="#99C7E8"/>
<path id="Vector_60" d="M173.106 102.321C172.908 102.321 172.713 102.27 172.541 102.171C172.37 102.073 172.226 101.932 172.126 101.761C171.343 100.526 170.257 99.5115 168.972 98.8148C167.686 98.1181 166.243 97.7622 164.781 97.781C164.118 97.784 163.458 97.8789 162.821 98.063C162.678 98.1038 162.528 98.1159 162.38 98.0987C162.231 98.0815 162.088 98.0353 161.958 97.9627C161.695 97.8162 161.501 97.5711 161.419 97.2815C161.336 96.9919 161.372 96.6814 161.519 96.4184C161.665 96.1554 161.91 95.9613 162.2 95.879C163.038 95.6379 163.906 95.514 164.778 95.511C166.637 95.4821 168.472 95.9371 170.102 96.8311C171.733 97.7252 173.103 99.0278 174.078 100.611C174.179 100.783 174.233 100.979 174.234 101.179C174.236 101.379 174.184 101.576 174.085 101.749C173.985 101.923 173.842 102.067 173.669 102.168C173.496 102.268 173.3 102.321 173.1 102.321H173.106Z" fill="#8FBAD9"/>
<path id="Vector_61" d="M138.675 106.861C138.374 106.861 138.085 106.741 137.872 106.529C137.66 106.316 137.54 106.027 137.54 105.726C137.542 103.921 138.26 102.19 139.537 100.913C140.814 99.6363 142.545 98.9181 144.35 98.916C144.651 98.916 144.94 99.0356 145.153 99.2484C145.365 99.4613 145.485 99.75 145.485 100.051C145.485 100.352 145.365 100.641 145.153 100.854C144.94 101.066 144.651 101.186 144.35 101.186C143.146 101.187 141.992 101.666 141.141 102.517C140.29 103.368 139.811 104.522 139.81 105.726C139.81 105.875 139.781 106.023 139.724 106.16C139.667 106.298 139.583 106.423 139.478 106.529C139.372 106.634 139.247 106.718 139.109 106.775C138.972 106.832 138.824 106.861 138.675 106.861V106.861Z" fill="#8FBAD9"/>
<path id="Vector_62" d="M197.696 106.861L195.426 127.291C195.426 127.887 195.309 128.478 195.08 129.028C194.852 129.579 194.518 130.08 194.096 130.501C193.675 130.923 193.174 131.257 192.623 131.485C192.073 131.714 191.482 131.831 190.886 131.831H140.945C139.741 131.831 138.586 131.353 137.735 130.501C136.883 129.65 136.405 128.495 136.405 127.291L134.135 106.861H197.696Z" fill="#DADCDE"/>
<path id="Vector_63" d="M133 105.726H198.831V110.266H133V105.726Z" fill="#9AA3A8"/>
<path id="Vector_64" d="M146.62 107.996C146.586 109.167 146.887 110.323 147.489 111.329C148.09 112.334 148.966 113.147 150.014 113.671C150.702 114.071 151.149 114.011 151.149 114.806V122.751C151.149 123.353 151.388 123.93 151.814 124.356C152.24 124.782 152.817 125.021 153.419 125.021C154.021 125.021 154.598 124.782 155.024 124.356C155.45 123.93 155.689 123.353 155.689 122.751V119.346C156.285 119.346 156.876 119.229 157.426 119C157.977 118.772 158.478 118.438 158.899 118.016C159.321 117.595 159.655 117.094 159.883 116.543C160.112 115.993 160.229 115.402 160.229 114.806V107.996C160.26 107.618 160.26 107.239 160.229 106.861C159.971 105.252 159.139 103.791 157.887 102.748C156.636 101.705 155.049 101.15 153.42 101.186C151.628 101.229 149.922 101.96 148.656 103.229C147.389 104.497 146.66 106.204 146.62 107.996Z" fill="#A3D4F7"/>
<path id="Vector_65" d="M151.178 109.131C150.877 109.131 150.588 109.011 150.375 108.799C150.163 108.586 150.043 108.297 150.043 107.996C150.044 107.093 150.403 106.228 151.041 105.589C151.68 104.951 152.545 104.592 153.448 104.591C153.749 104.591 154.038 104.711 154.251 104.923C154.463 105.136 154.583 105.425 154.583 105.726C154.583 106.027 154.463 106.316 154.251 106.529C154.038 106.741 153.749 106.861 153.448 106.861C153.147 106.861 152.859 106.981 152.646 107.194C152.433 107.407 152.313 107.695 152.313 107.996C152.313 108.145 152.284 108.293 152.227 108.43C152.17 108.568 152.086 108.693 151.981 108.799C151.875 108.904 151.75 108.988 151.612 109.045C151.475 109.102 151.327 109.131 151.178 109.131V109.131Z" fill="#8FBAD9"/>
</g>
<path id="Vector_66" d="M159.126 17.4088L84.4086 106.454L173.454 181.171L248.171 92.1265L159.126 17.4088ZM159.003 16L249.58 92.0032L173.577 182.58L82.9997 106.577L159.003 16Z" fill="#C5C5C5"/>
</g>
<g id="meds">
<g id="meds_2">
<path id="Vector_67" d="M248.978 205.927V170.571C248.988 169.315 249.495 168.114 250.388 167.231C251.281 166.347 252.488 165.854 253.744 165.857C254.986 165.846 256.174 165.345 257.049 164.462C257.923 163.578 258.413 162.386 258.411 161.143V149.357H279.625V161.143C279.625 162.393 280.122 163.592 281.006 164.476C281.89 165.36 283.09 165.857 284.34 165.857C284.959 165.856 285.573 165.978 286.145 166.214C286.717 166.451 287.237 166.798 287.675 167.236C288.113 167.674 288.46 168.194 288.697 168.766C288.933 169.338 289.055 169.952 289.054 170.571V210.641C289.054 211.891 288.557 213.09 287.673 213.974C286.789 214.858 285.59 215.355 284.34 215.355H248.978V205.927Z" fill="#FDB415"/>
<path id="Vector_68" d="M256.047 178.816H281.975C282.6 178.816 283.2 179.064 283.642 179.506C284.084 179.948 284.332 180.548 284.332 181.173V195.316C284.332 195.941 284.084 196.541 283.642 196.983C283.2 197.425 282.6 197.673 281.975 197.673H256.047C255.422 197.673 254.822 197.425 254.38 196.983C253.938 196.541 253.69 195.941 253.69 195.316V181.178C253.689 180.868 253.75 180.561 253.868 180.274C253.986 179.988 254.16 179.727 254.379 179.508C254.597 179.289 254.858 179.115 255.144 178.996C255.43 178.877 255.737 178.816 256.047 178.816V178.816Z" fill="#F5EFCA"/>
<g id="Group_8">
<path id="Vector_69" d="M260.763 184.716H258.406C258.099 184.707 257.808 184.579 257.594 184.359C257.381 184.139 257.261 183.844 257.261 183.538C257.261 183.231 257.381 182.936 257.594 182.716C257.808 182.496 258.099 182.368 258.406 182.359H260.763C260.921 182.354 261.078 182.382 261.225 182.439C261.372 182.496 261.506 182.582 261.619 182.692C261.732 182.802 261.822 182.933 261.883 183.078C261.945 183.224 261.976 183.38 261.976 183.538C261.976 183.695 261.945 183.851 261.883 183.997C261.822 184.142 261.732 184.273 261.619 184.383C261.506 184.493 261.372 184.579 261.225 184.636C261.078 184.694 260.921 184.721 260.763 184.716V184.716Z" fill="#7F6E5D"/>
<path id="Vector_70" d="M279.62 184.716H265.478C265.32 184.721 265.163 184.694 265.016 184.636C264.869 184.579 264.735 184.493 264.622 184.383C264.509 184.273 264.419 184.142 264.358 183.997C264.296 183.851 264.265 183.695 264.265 183.538C264.265 183.38 264.296 183.224 264.358 183.078C264.419 182.933 264.509 182.802 264.622 182.692C264.735 182.582 264.869 182.496 265.016 182.439C265.163 182.382 265.32 182.354 265.478 182.359H279.62C279.778 182.354 279.934 182.382 280.081 182.439C280.228 182.496 280.362 182.582 280.476 182.692C280.589 182.802 280.679 182.933 280.74 183.078C280.802 183.224 280.833 183.38 280.833 183.538C280.833 183.695 280.802 183.851 280.74 183.997C280.679 184.142 280.589 184.273 280.476 184.383C280.362 184.493 280.228 184.579 280.081 184.636C279.934 184.694 279.778 184.721 279.62 184.716V184.716Z" fill="#7F6E5D"/>
<path id="Vector_71" d="M260.763 194.142H258.406C258.099 194.133 257.808 194.005 257.594 193.785C257.381 193.565 257.261 193.27 257.261 192.964C257.261 192.657 257.381 192.362 257.594 192.142C257.808 191.922 258.099 191.794 258.406 191.785H260.763C260.921 191.78 261.078 191.808 261.225 191.865C261.372 191.922 261.506 192.008 261.619 192.118C261.732 192.228 261.822 192.359 261.883 192.504C261.945 192.65 261.976 192.806 261.976 192.964C261.976 193.121 261.945 193.277 261.883 193.423C261.822 193.568 261.732 193.699 261.619 193.809C261.506 193.919 261.372 194.005 261.225 194.062C261.078 194.12 260.921 194.147 260.763 194.142V194.142Z" fill="#7F6E5D"/>
<path id="Vector_72" d="M279.62 194.142H265.478C265.32 194.147 265.163 194.12 265.016 194.062C264.869 194.005 264.735 193.919 264.622 193.809C264.509 193.699 264.419 193.568 264.358 193.423C264.296 193.277 264.265 193.121 264.265 192.964C264.265 192.806 264.296 192.65 264.358 192.504C264.419 192.359 264.509 192.228 264.622 192.118C264.735 192.008 264.869 191.922 265.016 191.865C265.163 191.808 265.32 191.78 265.478 191.785H279.62C279.778 191.78 279.934 191.808 280.081 191.865C280.228 191.922 280.362 192.008 280.476 192.118C280.589 192.228 280.679 192.359 280.74 192.504C280.802 192.65 280.833 192.806 280.833 192.964C280.833 193.121 280.802 193.277 280.74 193.423C280.679 193.568 280.589 193.699 280.476 193.809C280.362 193.919 280.228 194.005 280.081 194.062C279.934 194.12 279.778 194.147 279.62 194.142V194.142Z" fill="#7F6E5D"/>
<path id="Vector_73" d="M279.62 189.428H277.263C276.956 189.419 276.665 189.291 276.452 189.071C276.238 188.851 276.118 188.556 276.118 188.25C276.118 187.943 276.238 187.648 276.452 187.428C276.665 187.208 276.956 187.08 277.263 187.071H279.62C279.778 187.066 279.935 187.094 280.082 187.151C280.229 187.208 280.363 187.294 280.476 187.404C280.589 187.514 280.679 187.645 280.74 187.79C280.802 187.936 280.833 188.092 280.833 188.25C280.833 188.407 280.802 188.563 280.74 188.709C280.679 188.854 280.589 188.985 280.476 189.095C280.363 189.205 280.229 189.291 280.082 189.348C279.935 189.406 279.778 189.433 279.62 189.428V189.428Z" fill="#7F6E5D"/>
<path id="Vector_74" d="M272.548 189.428H258.406C258.099 189.419 257.808 189.291 257.594 189.071C257.381 188.851 257.261 188.556 257.261 188.25C257.261 187.943 257.381 187.648 257.594 187.428C257.808 187.208 258.099 187.08 258.406 187.071H272.548C272.706 187.066 272.863 187.094 273.01 187.151C273.157 187.208 273.291 187.294 273.404 187.404C273.517 187.514 273.607 187.645 273.668 187.79C273.73 187.936 273.761 188.092 273.761 188.25C273.761 188.407 273.73 188.563 273.668 188.709C273.607 188.854 273.517 188.985 273.404 189.095C273.291 189.205 273.157 189.291 273.01 189.348C272.863 189.406 272.706 189.433 272.548 189.428V189.428Z" fill="#7F6E5D"/>
</g>
<path id="Vector_75" d="M256.605 147H281.42C282.818 147 284.159 147.555 285.147 148.544C286.136 149.532 286.691 150.873 286.691 152.271V158.508C286.691 158.854 286.623 159.197 286.491 159.517C286.358 159.837 286.164 160.127 285.919 160.372C285.674 160.617 285.384 160.811 285.064 160.944C284.744 161.076 284.401 161.144 284.055 161.144H253.97C253.624 161.144 253.281 161.076 252.961 160.943C252.642 160.811 252.351 160.617 252.106 160.372C251.862 160.127 251.668 159.836 251.535 159.517C251.403 159.197 251.335 158.854 251.335 158.508V152.271C251.335 150.873 251.89 149.532 252.879 148.544C253.867 147.555 255.208 147 256.606 147H256.605Z" fill="#BDC3C7"/>
<path id="Vector_76" d="M251.336 215.355H257.229C258.241 215.355 259.226 215.029 260.038 214.426C260.851 213.824 261.449 212.976 261.743 212.008C261.875 211.564 261.943 211.104 261.943 210.641C261.94 209.68 261.644 208.742 261.094 207.954C260.941 207.72 260.763 207.503 260.564 207.306C259.677 206.425 258.479 205.929 257.229 205.927H247.8V215.355H251.336Z" fill="#C03A2B"/>
<path id="Vector_77" d="M248.978 203.063C248.977 204.098 248.637 205.104 248.011 205.927L246.621 208.284C245.321 208.284 246.303 209.793 245.442 210.641C245.242 210.841 240.881 211.584 240.728 211.82L234.838 207.106L236.838 203.146L241.238 199.457C241.925 198.881 242.762 198.513 243.651 198.395C244.54 198.278 245.444 198.417 246.257 198.796C247.07 199.174 247.758 199.777 248.24 200.533C248.723 201.289 248.98 202.166 248.981 203.063H248.978Z" fill="#F0C419"/>
<path id="Vector_78" d="M240.728 210.641C240.728 211.104 240.796 211.564 240.928 212.008L238.265 214.248C237.795 214.675 237.245 215.003 236.645 215.212C236.046 215.42 235.411 215.506 234.778 215.464C234.145 215.421 233.526 215.251 232.961 214.964C232.395 214.677 231.893 214.278 231.484 213.793C231.076 213.307 230.77 212.743 230.585 212.136C230.4 211.529 230.339 210.891 230.406 210.26C230.473 209.629 230.667 209.018 230.977 208.464C231.286 207.91 231.703 207.424 232.205 207.035L236.837 203.146L237.19 203.57L241.574 207.954C241.025 208.743 240.729 209.68 240.726 210.641H240.728Z" fill="#C03A2B"/>
<path id="Vector_79" d="M257.228 157.603C256.915 157.603 256.615 157.479 256.394 157.258C256.173 157.037 256.049 156.737 256.049 156.424V152.893C256.044 152.735 256.071 152.578 256.129 152.431C256.186 152.284 256.272 152.15 256.382 152.037C256.492 151.924 256.623 151.834 256.768 151.773C256.914 151.711 257.07 151.68 257.227 151.68C257.385 151.68 257.541 151.711 257.687 151.773C257.832 151.834 257.963 151.924 258.073 152.037C258.183 152.15 258.269 152.284 258.326 152.431C258.383 152.578 258.411 152.735 258.406 152.893V156.428C258.405 156.74 258.281 157.039 258.06 157.259C257.839 157.479 257.54 157.603 257.228 157.603V157.603Z" fill="#A5A5A4"/>
<path id="Vector_80" d="M261.942 157.603C261.629 157.603 261.329 157.479 261.108 157.258C260.887 157.037 260.763 156.737 260.763 156.424V152.893C260.763 152.58 260.887 152.28 261.108 152.059C261.329 151.838 261.629 151.714 261.942 151.714C262.255 151.714 262.555 151.838 262.776 152.059C262.997 152.28 263.121 152.58 263.121 152.893V156.428C263.12 156.74 262.995 157.039 262.774 157.259C262.553 157.479 262.254 157.603 261.942 157.603V157.603Z" fill="#A5A5A4"/>
<path id="Vector_81" d="M266.652 157.603C266.497 157.603 266.344 157.573 266.201 157.513C266.058 157.454 265.928 157.367 265.819 157.258C265.709 157.148 265.622 157.018 265.563 156.875C265.504 156.732 265.474 156.579 265.474 156.424V152.893C265.469 152.735 265.496 152.578 265.554 152.431C265.611 152.284 265.697 152.15 265.807 152.037C265.917 151.924 266.048 151.834 266.193 151.773C266.339 151.711 266.495 151.68 266.652 151.68C266.81 151.68 266.966 151.711 267.111 151.773C267.257 151.834 267.388 151.924 267.498 152.037C267.608 152.15 267.694 152.284 267.751 152.431C267.808 152.578 267.836 152.735 267.831 152.893V156.428C267.83 156.74 267.705 157.039 267.484 157.259C267.263 157.479 266.964 157.603 266.652 157.603V157.603Z" fill="#A5A5A4"/>
<path id="Vector_82" d="M271.37 157.603C271.057 157.603 270.758 157.478 270.537 157.257C270.316 157.036 270.192 156.737 270.192 156.424V152.893C270.187 152.735 270.214 152.578 270.272 152.431C270.329 152.284 270.415 152.15 270.525 152.037C270.635 151.924 270.766 151.834 270.911 151.773C271.057 151.711 271.213 151.68 271.37 151.68C271.528 151.68 271.684 151.711 271.83 151.773C271.975 151.834 272.106 151.924 272.216 152.037C272.326 152.15 272.412 152.284 272.469 152.431C272.526 152.578 272.553 152.735 272.549 152.893V156.428C272.548 156.74 272.423 157.039 272.202 157.259C271.981 157.479 271.682 157.603 271.37 157.603V157.603Z" fill="#A5A5A4"/>
<path id="Vector_83" d="M276.085 157.603C275.772 157.603 275.472 157.479 275.251 157.258C275.03 157.037 274.906 156.737 274.906 156.424V152.893C274.901 152.735 274.928 152.578 274.986 152.431C275.043 152.284 275.129 152.15 275.239 152.037C275.349 151.924 275.48 151.834 275.625 151.773C275.771 151.711 275.927 151.68 276.084 151.68C276.242 151.68 276.398 151.711 276.543 151.773C276.689 151.834 276.82 151.924 276.93 152.037C277.04 152.15 277.126 152.284 277.183 152.431C277.24 152.578 277.267 152.735 277.263 152.893V156.428C277.262 156.74 277.138 157.039 276.917 157.259C276.696 157.479 276.397 157.603 276.085 157.603V157.603Z" fill="#A5A5A4"/>
<path id="Vector_84" d="M280.799 157.603C280.486 157.603 280.186 157.479 279.965 157.258C279.744 157.037 279.62 156.737 279.62 156.424V152.893C279.62 152.58 279.744 152.28 279.965 152.059C280.186 151.838 280.486 151.714 280.799 151.714C281.112 151.714 281.412 151.838 281.633 152.059C281.854 152.28 281.978 152.58 281.978 152.893V156.428C281.977 156.74 281.852 157.039 281.631 157.259C281.41 157.479 281.111 157.603 280.799 157.603V157.603Z" fill="#A5A5A4"/>
<path id="Vector_85" d="M251.34 215.355H245.44C244.428 215.355 243.443 215.029 242.631 214.426C241.818 213.824 241.22 212.976 240.926 212.008C240.794 211.564 240.726 211.104 240.726 210.641C240.729 209.68 241.025 208.743 241.574 207.954C241.728 207.72 241.906 207.503 242.105 207.306C242.992 206.426 244.19 205.931 245.44 205.929H251.34V215.355Z" fill="#2FA8CC"/>
</g>
<path id="Vector_86" d="M258.126 99.4088L183.409 188.454L272.454 263.171L347.171 174.126L258.126 99.4088ZM258.003 98L348.58 174.003L272.577 264.58L182 188.577L258.003 98Z" fill="#C5C5C5"/>
</g>
<g id="food">
<path id="Vector_87" d="M340.126 1.40883L265.409 90.4538L354.454 165.171L429.171 76.1265L340.126 1.40883ZM340.003 0L430.58 76.0032L354.577 166.58L264 90.5771L340.003 0Z" fill="#C5C5C5"/>
<g id="food_2">
<path id="Vector_88" d="M360.401 64.89L365.984 83.872C366.045 84.0799 366.076 84.2954 366.076 84.512V117.101H347.916V64.89H360.401Z" fill="#93573D"/>
<path id="Vector_89" d="M354.726 117.101H315V84.744C315 84.3732 315.045 84.0038 315.135 83.644L320.675 64.89H360.4L354.86 83.643C354.77 84.0028 354.725 84.3722 354.725 84.743L354.726 117.101Z" fill="#AB6647"/>
<path id="Vector_90" d="M319.54 58.08C318.286 58.08 317.27 59.604 317.27 61.485C317.27 63.366 318.286 64.89 319.54 64.89H360.401V58.08H319.54Z" fill="#93573D"/>
<path id="Vector_91" d="M367.211 61.027C367.211 62.3531 366.684 63.6249 365.747 64.5626C364.809 65.5002 363.537 66.027 362.211 66.027H359.421C359.319 66.0281 359.22 66.0633 359.14 66.127L352.06 71.631C351.284 72.2295 350.309 72.5104 349.333 72.4169C348.357 72.3233 347.453 71.8622 346.805 71.1271C346.156 70.392 345.811 69.4378 345.84 68.4579C345.869 67.478 346.269 66.5457 346.96 65.85L353.949 58.861C354.013 58.7969 354.056 58.7154 354.074 58.6267C354.091 58.5379 354.082 58.446 354.047 58.3625C354.013 58.279 353.954 58.2076 353.879 58.1573C353.804 58.1071 353.715 58.0802 353.625 58.08H333.16L344.526 51.88C345.26 51.4796 346.084 51.2699 346.92 51.27H375.833C375.955 51.27 376.071 51.3183 376.157 51.4042C376.243 51.4901 376.291 51.6066 376.291 51.728V59.893C376.291 60.0145 376.243 60.131 376.157 60.2169C376.071 60.3028 375.955 60.351 375.833 60.351H367.888C367.708 60.351 367.536 60.4223 367.409 60.5493C367.282 60.6763 367.211 60.8485 367.211 61.028V61.027Z" fill="#F5CBAA"/>
<path id="Vector_92" d="M371.751 49H380.831V63.755H371.751V49Z" fill="#155384"/>
<path id="Vector_93" d="M360.401 113.697C360.1 113.697 359.811 113.577 359.598 113.365C359.386 113.152 359.266 112.863 359.266 112.562V88.726C359.266 88.4249 359.386 88.1362 359.598 87.9234C359.811 87.7105 360.1 87.5909 360.401 87.5909C360.702 87.5909 360.991 87.7105 361.204 87.9234C361.416 88.1362 361.536 88.4249 361.536 88.726V112.562C361.536 112.863 361.416 113.152 361.204 113.365C360.991 113.577 360.702 113.697 360.401 113.697V113.697Z" fill="#794832"/>
<path id="Vector_94" d="M329.588 109.156H327.653C327.341 109.156 327.033 109.092 326.747 108.967C326.461 108.843 326.204 108.661 325.992 108.433C325.779 108.205 325.616 107.935 325.512 107.641C325.409 107.347 325.367 107.035 325.389 106.724L326.35 93.266H330.89L331.851 106.725C331.873 107.036 331.831 107.348 331.727 107.642C331.624 107.936 331.461 108.206 331.248 108.434C331.036 108.662 330.779 108.844 330.493 108.968C330.207 109.093 329.899 109.157 329.587 109.157L329.588 109.156Z" fill="#E74444"/>
<path id="Vector_95" d="M342.002 109.156H340.209C339.891 109.156 339.577 109.09 339.287 108.961C338.997 108.832 338.737 108.644 338.524 108.408C338.311 108.172 338.15 107.895 338.051 107.593C337.952 107.291 337.918 106.972 337.95 106.656L338.835 97.802H343.375L344.26 106.656C344.292 106.972 344.258 107.291 344.159 107.593C344.06 107.895 343.899 108.172 343.686 108.408C343.473 108.644 343.213 108.832 342.923 108.961C342.633 109.09 342.318 109.156 342.001 109.156H342.002Z" fill="#E74444"/>
<path id="Vector_96" d="M354.726 117.101L360.401 111.426L366.076 117.101H354.726Z" fill="#794832"/>
<g id="Group_9">
<path id="Vector_97" d="M333.16 84.186C332.859 84.186 332.57 84.3055 332.357 84.5184C332.145 84.7313 332.025 85.02 332.025 85.321V88.726H329.755V85.321C329.755 85.1719 329.726 85.0243 329.669 84.8866C329.612 84.7489 329.528 84.6238 329.423 84.5184C329.317 84.413 329.192 84.3294 329.054 84.2724C328.917 84.2153 328.769 84.186 328.62 84.186C328.471 84.186 328.323 84.2153 328.186 84.2724C328.048 84.3294 327.923 84.413 327.817 84.5184C327.712 84.6238 327.628 84.7489 327.571 84.8866C327.514 85.0243 327.485 85.1719 327.485 85.321V88.726H325.215V85.321C325.215 85.02 325.095 84.7313 324.883 84.5184C324.67 84.3055 324.381 84.186 324.08 84.186C323.779 84.186 323.49 84.3055 323.277 84.5184C323.065 84.7313 322.945 85.02 322.945 85.321V88.726L326.35 93.266H330.89L334.295 88.726V85.321C334.295 85.1719 334.266 85.0243 334.209 84.8866C334.152 84.7489 334.068 84.6238 333.963 84.5184C333.857 84.413 333.732 84.3294 333.594 84.2724C333.457 84.2153 333.309 84.186 333.16 84.186V84.186Z" fill="#D9DBDD"/>
<path id="Vector_98" d="M338.835 97.806V96.671L336.565 95.536C336.565 95.536 337.416 84.186 343.375 84.186V97.806H338.835Z" fill="#D9DBDD"/>
</g>
</g>
</g>
<g id="car">
<g id="car_2">
<path id="Vector_99" d="M477.329 173.508L460.864 174.114C460.85 173.914 460.841 173.714 460.841 173.508C460.829 172.418 461.033 171.336 461.442 170.325C461.851 169.315 462.456 168.395 463.223 167.62C463.99 166.845 464.903 166.229 465.909 165.809C466.915 165.389 467.994 165.173 469.085 165.173C470.175 165.173 471.254 165.389 472.26 165.809C473.266 166.229 474.179 166.845 474.946 167.62C475.713 168.395 476.318 169.315 476.727 170.325C477.136 171.336 477.34 172.418 477.328 173.508H477.329Z" fill="#32373A"/>
<path id="Vector_100" d="M469.09 180.41C472.902 180.41 475.993 177.319 475.993 173.507C475.993 169.695 472.902 166.604 469.09 166.604C465.278 166.604 462.187 169.695 462.187 173.507C462.187 177.319 465.278 180.41 469.09 180.41Z" fill="#3E4347"/>
<path id="Vector_101" d="M469.09 177.624C471.363 177.624 473.206 175.781 473.206 173.508C473.206 171.235 471.363 169.392 469.09 169.392C466.817 169.392 464.974 171.235 464.974 173.508C464.974 175.781 466.817 177.624 469.09 177.624Z" fill="#DAE5EF"/>
<path id="Vector_102" d="M482.642 172.265C482.654 172.618 482.55 172.966 482.344 173.254C482.139 173.542 481.845 173.755 481.507 173.859C480.129 174.228 478.668 174.137 477.346 173.6H477.33C477.345 172.515 477.146 171.438 476.744 170.431C476.342 169.423 475.745 168.505 474.987 167.729C474.229 166.952 473.326 166.333 472.328 165.907C471.331 165.48 470.259 165.255 469.174 165.243C468.089 165.232 467.013 165.435 466.007 165.84C465.001 166.246 464.085 166.846 463.311 167.606C462.537 168.366 461.921 169.272 461.498 170.271C461.075 171.27 460.853 172.342 460.845 173.427C460.845 173.602 460.845 173.777 460.856 173.947C460.871 174.202 460.834 174.457 460.747 174.697C460.66 174.937 460.525 175.157 460.35 175.343C460.175 175.529 459.964 175.677 459.73 175.778C459.496 175.88 459.243 175.932 458.988 175.933H430.615C430.295 175.933 429.979 175.869 429.684 175.745C429.39 175.622 429.123 175.44 428.899 175.212C428.676 174.983 428.5 174.713 428.382 174.415C428.265 174.118 428.208 173.8 428.215 173.481V173.395C428.225 171.228 427.374 169.146 425.849 167.607C424.323 166.068 422.249 165.197 420.082 165.187C417.916 165.178 415.834 166.029 414.294 167.554C412.755 169.079 411.885 171.153 411.875 173.32V173.395C411.416 174.532 410.302 174.314 410.363 173.295V169.195C410.363 169.195 409.391 165.826 410.635 163.611C411.879 161.396 413.4 161.765 413.4 161.765C413.4 161.765 414.067 157.904 428.332 157.295L436.041 148.614C436.041 148.614 435.403 147.309 438.622 146.551C441.841 145.793 459.534 145.518 464.755 147.734C469.976 149.95 474.437 158.508 474.437 158.508C474.437 158.508 482.25 159.174 482.642 172.265Z" fill="#FFD93B"/>
<path id="Vector_103" d="M467.828 158.288H456.514C456.104 158.288 455.709 158.129 455.413 157.845C455.118 157.561 454.943 157.173 454.927 156.763L454.704 150.963C454.695 150.739 454.734 150.516 454.818 150.309C454.901 150.101 455.028 149.913 455.189 149.758C455.35 149.603 455.542 149.484 455.753 149.408C455.964 149.332 456.188 149.302 456.411 149.319C458.838 149.403 461.242 149.809 463.562 150.527C465.503 151.351 467.525 153.601 469.108 155.762C469.282 155.998 469.387 156.278 469.411 156.571C469.435 156.863 469.378 157.157 469.245 157.419C469.113 157.681 468.91 157.901 468.66 158.054C468.409 158.207 468.121 158.288 467.828 158.288V158.288Z" fill="#3E4347"/>
<path id="Vector_104" d="M452.576 156.639C452.584 156.852 452.549 157.065 452.473 157.264C452.397 157.463 452.282 157.645 452.134 157.799C451.986 157.953 451.809 158.075 451.613 158.159C451.416 158.242 451.205 158.286 450.992 158.286H434.672C434.374 158.286 434.083 158.202 433.831 158.044C433.578 157.886 433.376 157.66 433.245 157.393C433.115 157.125 433.063 156.826 433.094 156.53C433.126 156.234 433.24 155.953 433.423 155.719C435.148 153.439 437.12 151.357 439.302 149.51H439.313C442.294 149.127 445.3 148.97 448.305 149.04C449.152 149.04 449.983 149.049 450.791 149.065C451.196 149.073 451.582 149.236 451.871 149.52C452.16 149.804 452.329 150.188 452.344 150.593L452.576 156.639Z" fill="#3E4347"/>
<path id="Vector_105" d="M441.196 164.16H439.902V165.454H441.196V164.16Z" fill="#3E4347"/>
<path id="Vector_106" d="M441.196 161.597H439.902V162.891H441.196V161.597Z" fill="#3E4347"/>
<path id="Vector_107" d="M442.49 162.891H441.196V164.185H442.49V162.891Z" fill="#3E4347"/>
<path id="Vector_108" d="M443.759 164.16H442.465V165.454H443.759V164.16Z" fill="#3E4347"/>
<path id="Vector_109" d="M443.759 161.597H442.465V162.891H443.759V161.597Z" fill="#3E4347"/>
<path id="Vector_110" d="M445.052 162.891H443.758V164.185H445.052V162.891Z" fill="#3E4347"/>
<path id="Vector_111" d="M446.321 164.16H445.027V165.454H446.321V164.16Z" fill="#3E4347"/>
<path id="Vector_112" d="M446.321 161.597H445.027V162.891H446.321V161.597Z" fill="#3E4347"/>
<path id="Vector_113" d="M447.615 162.891H446.321V164.185H447.615V162.891Z" fill="#3E4347"/>
<path id="Vector_114" d="M448.884 164.16H447.59V165.454H448.884V164.16Z" fill="#3E4347"/>
<path id="Vector_115" d="M448.884 161.597H447.59V162.891H448.884V161.597Z" fill="#3E4347"/>
<path id="Vector_116" d="M450.18 162.891H448.886V164.185H450.18V162.891Z" fill="#3E4347"/>
<path id="Vector_117" d="M451.447 164.16H450.153V165.454H451.447V164.16Z" fill="#3E4347"/>
<path id="Vector_118" d="M451.447 161.597H450.153V162.891H451.447V161.597Z" fill="#3E4347"/>
<path id="Vector_119" d="M452.741 162.891H451.447V164.185H452.741V162.891Z" fill="#3E4347"/>
<path id="Vector_120" d="M454.01 164.16H452.716V165.454H454.01V164.16Z" fill="#3E4347"/>
<path id="Vector_121" d="M454.01 161.597H452.716V162.891H454.01V161.597Z" fill="#3E4347"/>
<path id="Vector_122" d="M455.304 162.891H454.01V164.185H455.304V162.891Z" fill="#3E4347"/>
<path id="Vector_123" d="M456.573 164.16H455.279V165.454H456.573V164.16Z" fill="#3E4347"/>
<path id="Vector_124" d="M456.573 161.597H455.279V162.891H456.573V161.597Z" fill="#3E4347"/>
<path id="Vector_125" d="M457.867 162.891H456.573V164.185H457.867V162.891Z" fill="#3E4347"/>
<path id="Vector_126" d="M459.124 164.16H457.83V165.454H459.124V164.16Z" fill="#3E4347"/>
<path id="Vector_127" d="M459.124 161.597H457.83V162.891H459.124V161.597Z" fill="#3E4347"/>
<path id="Vector_128" d="M460.43 162.891H459.136V164.185H460.43V162.891Z" fill="#3E4347"/>
<path id="Vector_129" d="M461.69 164.16H460.396V165.454H461.69V164.16Z" fill="#3E4347"/>
<path id="Vector_130" d="M461.69 161.597H460.396V162.891H461.69V161.597Z" fill="#3E4347"/>
<g id="Group_10">
<path id="Vector_131" d="M440.085 172.348V168.857H438.839V168.146H442.178V168.857H440.934V172.348H440.085Z" fill="#E24B4B"/>
<path id="Vector_132" d="M446.078 172.348H445.156L444.788 171.395H443.108L442.761 172.348H441.861L443.498 168.148H444.398L446.078 172.348ZM444.516 170.686L443.937 169.126L443.369 170.686H444.516Z" fill="#E24B4B"/>
<path id="Vector_133" d="M446.101 172.348L447.536 170.155L446.236 168.146H447.228L448.07 169.497L448.896 168.146H449.879L448.571 170.187L450.006 172.348H448.982L448.051 170.895L447.116 172.348H446.101Z" fill="#E24B4B"/>
<path id="Vector_134" d="M450.416 172.348V168.148H451.265V172.348H450.416Z" fill="#E24B4B"/>
</g>
<g id="Group_11">
<path id="Vector_135" d="M441.3 149.268L434.524 158.28C434.574 158.285 434.624 158.287 434.674 158.287H438.061L444.982 149.087C443.5 149.125 442.256 149.193 441.3 149.268Z" fill="#5A5F63"/>
<path id="Vector_136" d="M447.45 149.041C446.933 149.041 446.436 149.048 445.959 149.061L439.019 158.289H440.497L447.45 149.041Z" fill="#5A5F63"/>
<path id="Vector_137" d="M459.867 149.686L454.909 156.278L454.927 156.762C454.943 157.172 455.117 157.56 455.413 157.844C455.709 158.129 456.104 158.287 456.514 158.287H456.941L462.941 150.308C461.934 150.023 460.906 149.815 459.867 149.686Z" fill="#5A5F63"/>
<path id="Vector_138" d="M464.723 151.177C464.396 150.952 464.05 150.755 463.69 150.587L457.899 158.287H459.377L464.723 151.177Z" fill="#5A5F63"/>
</g>
<path id="Vector_139" d="M481.191 165.165L481.427 165.192C480.775 163.232 479.595 161.49 478.015 160.159C477.938 160.202 477.863 160.243 477.786 160.288C477.277 160.488 476.921 160.86 476.921 161.232V161.75C476.919 163.513 478.612 164.866 481.191 165.165Z" fill="#E24B4B"/>
<g id="Group_12">
<path id="Vector_140" d="M428.213 173.322L411.878 173.383C411.877 173.388 411.877 173.392 411.878 173.397V173.322C411.878 172.249 412.089 171.187 412.5 170.195C412.91 169.204 413.512 168.304 414.271 167.545C415.03 166.786 415.93 166.184 416.921 165.774C417.913 165.363 418.975 165.152 420.048 165.152C421.121 165.152 422.183 165.363 423.174 165.774C424.166 166.184 425.066 166.786 425.825 167.545C426.584 168.304 427.185 169.204 427.596 170.195C428.007 171.187 428.218 172.249 428.218 173.322H428.213Z" fill="#32373A"/>
</g>
<path id="Vector_141" d="M420.043 180.41C423.855 180.41 426.946 177.319 426.946 173.507C426.946 169.695 423.855 166.604 420.043 166.604C416.23 166.604 413.14 169.695 413.14 173.507C413.14 177.319 416.23 180.41 420.043 180.41Z" fill="#3E4347"/>
<path id="Vector_142" d="M420.043 177.624C422.316 177.624 424.159 175.781 424.159 173.508C424.159 171.235 422.316 169.392 420.043 169.392C417.77 169.392 415.927 171.235 415.927 173.508C415.927 175.781 417.77 177.624 420.043 177.624Z" fill="#DAE5EF"/>
<g id="Group_13">
<path id="Vector_143" d="M420.043 175.391C421.083 175.391 421.927 174.547 421.927 173.507C421.927 172.466 421.083 171.623 420.043 171.623C419.002 171.623 418.159 172.466 418.159 173.507C418.159 174.547 419.002 175.391 420.043 175.391Z" fill="#3E4347"/>
</g>
<path id="Vector_144" d="M469.09 175.391C470.13 175.391 470.974 174.547 470.974 173.507C470.974 172.466 470.13 171.623 469.09 171.623C468.049 171.623 467.206 172.466 467.206 173.507C467.206 174.547 468.049 175.391 469.09 175.391Z" fill="#3E4347"/>
<g id="Group_14">
<path id="Vector_145" d="M432.238 162.891H430.944V164.185H432.238V162.891Z" fill="#3E4347"/>
<path id="Vector_146" d="M433.507 164.16H432.213V165.454H433.507V164.16Z" fill="#3E4347"/>
<path id="Vector_147" d="M433.507 161.597H432.213V162.891H433.507V161.597Z" fill="#3E4347"/>
<path id="Vector_148" d="M434.801 162.891H433.507V164.185H434.801V162.891Z" fill="#3E4347"/>
<path id="Vector_149" d="M436.07 164.16H434.776V165.454H436.07V164.16Z" fill="#3E4347"/>
<path id="Vector_150" d="M436.07 161.597H434.776V162.891H436.07V161.597Z" fill="#3E4347"/>
<path id="Vector_151" d="M437.364 162.891H436.07V164.185H437.364V162.891Z" fill="#3E4347"/>
<path id="Vector_152" d="M438.626 164.16H437.332V165.454H438.626V164.16Z" fill="#3E4347"/>
<path id="Vector_153" d="M438.626 161.597H437.332V162.891H438.626V161.597Z" fill="#3E4347"/>
<path id="Vector_154" d="M439.927 162.891H438.633V164.185H439.927V162.891Z" fill="#3E4347"/>
</g>
<path id="Vector_155" d="M426.805 174.903C426.9 174.442 426.947 173.973 426.946 173.503C426.946 173.444 426.946 173.383 426.946 173.324H428.215V173.483C428.205 173.95 428.332 174.41 428.58 174.806C427.983 174.843 427.391 174.874 426.805 174.903Z" fill="#3E4347"/>
<path id="Vector_156" d="M413.475 163.906C413.348 164.733 412.927 165.488 412.29 166.031C411.655 166.575 410.845 166.874 410.009 166.873C409.919 165.75 410.134 164.625 410.633 163.615C411.877 161.399 413.396 161.772 413.396 161.772C413.579 162.469 413.606 163.197 413.475 163.906V163.906Z" fill="#E9EFF4"/>
</g>
<path id="Vector_157" d="M439.126 81.4088L364.409 170.454L453.454 245.171L528.171 156.126L439.126 81.4088ZM439.003 80L529.58 156.003L453.577 246.58L363 170.577L439.003 80Z" fill="#C5C5C5"/>
</g>
<g id="factors">
<g id="factors_2">
<path id="Vector_158" d="M572.705 272.705H520.893C520.656 272.705 520.429 272.611 520.261 272.443C520.094 272.276 520 272.049 520 271.812C520 271.575 520.094 271.347 520.261 271.18C520.429 271.012 520.656 270.918 520.893 270.918H572.705C572.942 270.918 573.169 271.012 573.337 271.18C573.504 271.347 573.599 271.575 573.599 271.812C573.599 272.049 573.504 272.276 573.337 272.443C573.169 272.611 572.942 272.705 572.705 272.705Z" fill="#7383BF"/>
<path id="Vector_159" d="M546.896 263.766C548.131 263.766 549.132 262.765 549.132 261.53C549.132 260.295 548.131 259.294 546.896 259.294C545.661 259.294 544.66 260.295 544.66 261.53C544.66 262.765 545.661 263.766 546.896 263.766Z" fill="#366DB6"/>
<path id="Vector_160" d="M564.692 238.76V225.36H559.332V233.853L564.692 238.76Z" fill="#AFB6BB"/>
<path id="Vector_161" d="M546.799 223.191L526.253 242.319V271.819H567.345V242.333L546.799 223.191Z" fill="#E7ECED"/>
<path id="Vector_162" d="M569.659 245.765L546.799 224.465L523.939 245.746C523.601 246.076 523.147 246.259 522.675 246.256C522.204 246.253 521.752 246.065 521.418 245.731C521.251 245.564 521.119 245.366 521.029 245.148C520.938 244.929 520.892 244.696 520.893 244.459C520.893 244.223 520.94 243.99 521.031 243.772C521.122 243.554 521.255 243.356 521.423 243.19L546.826 220L572.174 243.208C572.342 243.374 572.475 243.572 572.566 243.79C572.657 244.008 572.704 244.241 572.705 244.477C572.705 244.714 572.659 244.947 572.569 245.166C572.479 245.384 572.346 245.582 572.179 245.749C571.845 246.082 571.394 246.271 570.922 246.274C570.451 246.277 569.997 246.094 569.659 245.765V245.765Z" fill="#FDB415"/>
<path id="Vector_163" d="M560.198 255.732C559.961 255.732 559.734 255.638 559.567 255.47C559.399 255.303 559.305 255.076 559.305 254.839C559.305 251.522 557.987 248.341 555.642 245.996C553.297 243.65 550.115 242.333 546.799 242.333C543.482 242.333 540.3 243.65 537.955 245.996C535.61 248.341 534.292 251.522 534.292 254.839C534.292 255.076 534.198 255.303 534.03 255.471C533.863 255.638 533.635 255.733 533.399 255.733C533.162 255.733 532.934 255.638 532.767 255.471C532.599 255.303 532.505 255.076 532.505 254.839C532.505 251.048 534.011 247.413 536.691 244.732C539.372 242.052 543.007 240.546 546.798 240.546C550.589 240.546 554.224 242.052 556.905 244.732C559.585 247.413 561.091 251.048 561.091 254.839C561.091 255.076 560.997 255.303 560.829 255.47C560.662 255.638 560.435 255.732 560.198 255.732V255.732Z" fill="#366DB6"/>
<path id="Vector_164" d="M556.625 255.732C556.388 255.732 556.161 255.638 555.994 255.47C555.826 255.303 555.732 255.076 555.732 254.839C555.732 252.47 554.791 250.198 553.116 248.522C551.44 246.847 549.168 245.906 546.799 245.906C544.43 245.906 542.158 246.847 540.482 248.522C538.807 250.198 537.866 252.47 537.866 254.839C537.866 255.076 537.772 255.303 537.604 255.471C537.437 255.638 537.21 255.732 536.973 255.732C536.736 255.732 536.508 255.638 536.341 255.471C536.173 255.303 536.079 255.076 536.079 254.839C536.106 252.014 537.248 249.314 539.255 247.326C541.262 245.338 543.973 244.223 546.799 244.223C549.624 244.223 552.335 245.338 554.342 247.326C556.349 249.314 557.491 252.014 557.518 254.839C557.518 255.076 557.424 255.303 557.256 255.47C557.089 255.638 556.862 255.732 556.625 255.732V255.732Z" fill="#366DB6"/>
<path id="Vector_165" d="M553.053 255.732C552.816 255.732 552.589 255.638 552.422 255.47C552.254 255.303 552.16 255.076 552.16 254.839C552.16 254.135 552.021 253.438 551.752 252.788C551.483 252.138 551.088 251.547 550.59 251.049C550.092 250.551 549.502 250.156 548.851 249.887C548.201 249.618 547.504 249.479 546.8 249.479C546.096 249.479 545.399 249.618 544.749 249.887C544.099 250.156 543.508 250.551 543.01 251.049C542.512 251.547 542.117 252.138 541.848 252.788C541.579 253.438 541.44 254.135 541.44 254.839C541.44 255.076 541.346 255.303 541.178 255.471C541.011 255.638 540.783 255.733 540.547 255.733C540.31 255.733 540.082 255.638 539.915 255.471C539.747 255.303 539.653 255.076 539.653 254.839C539.653 252.944 540.406 251.126 541.746 249.786C543.086 248.445 544.904 247.693 546.8 247.693C548.695 247.693 550.513 248.445 551.853 249.786C553.193 251.126 553.946 252.944 553.946 254.839C553.946 255.076 553.852 255.303 553.684 255.47C553.517 255.638 553.29 255.732 553.053 255.732V255.732Z" fill="#366DB6"/>
<path id="Vector_166" d="M549.479 255.733C549.242 255.733 549.015 255.639 548.848 255.471C548.68 255.304 548.586 255.077 548.586 254.84C548.592 254.602 548.55 254.365 548.462 254.143C548.375 253.922 548.244 253.72 548.078 253.549C547.912 253.379 547.713 253.243 547.493 253.151C547.274 253.058 547.038 253.011 546.8 253.011C546.561 253.011 546.325 253.058 546.106 253.151C545.886 253.243 545.688 253.379 545.521 253.549C545.355 253.72 545.224 253.922 545.137 254.143C545.049 254.365 545.007 254.602 545.013 254.84C545.013 255.077 544.919 255.304 544.751 255.472C544.584 255.639 544.356 255.734 544.12 255.734C543.883 255.734 543.655 255.639 543.488 255.472C543.32 255.304 543.226 255.077 543.226 254.84C543.226 254.371 543.318 253.906 543.498 253.473C543.678 253.039 543.941 252.645 544.273 252.314C544.604 251.982 544.998 251.719 545.432 251.539C545.865 251.359 546.33 251.267 546.799 251.267C547.268 251.267 547.733 251.359 548.166 251.539C548.6 251.719 548.994 251.982 549.326 252.314C549.657 252.645 549.92 253.039 550.1 253.473C550.28 253.906 550.372 254.371 550.372 254.84C550.372 255.077 550.278 255.304 550.11 255.471C549.943 255.639 549.716 255.733 549.479 255.733V255.733Z" fill="#366DB6"/>
</g>
<path id="Vector_167" d="M540.126 164.409L465.409 253.454L554.454 328.171L629.171 239.126L540.126 164.409ZM540.003 163L630.58 239.003L554.577 329.58L464 253.577L540.003 163Z" fill="#C5C5C5"/>
</g>
<g id="shopping">
<g id="shopping_2">
<path id="Vector_168" d="M368.325 254.7C368.024 254.7 367.735 254.58 367.522 254.368C367.31 254.155 367.19 253.866 367.19 253.565V242.215C367.19 240.108 366.353 238.087 364.863 236.597C363.373 235.107 361.352 234.27 359.245 234.27C357.138 234.27 355.117 235.107 353.627 236.597C352.137 238.087 351.3 240.108 351.3 242.215V253.565C351.3 253.866 351.18 254.155 350.968 254.368C350.755 254.58 350.466 254.7 350.165 254.7C349.864 254.7 349.575 254.58 349.362 254.368C349.15 254.155 349.03 253.866 349.03 253.565V242.215C349.03 239.506 350.106 236.908 352.022 234.992C353.938 233.076 356.536 232 359.245 232C361.954 232 364.552 233.076 366.468 234.992C368.384 236.908 369.46 239.506 369.46 242.215V253.565C369.46 253.866 369.34 254.155 369.128 254.368C368.915 254.58 368.626 254.7 368.325 254.7V254.7Z" fill="#DADCDE"/>
<path id="Vector_169" d="M370.591 294.425H332L334.27 249.025H368.321L370.591 294.425Z" fill="#EB423F"/>
<path id="Vector_170" d="M379.671 294.425H370.591L368.321 249.025H377.401L379.671 294.425Z" fill="#D13330"/>
<path id="Vector_171" d="M375.198 288.749H375.126C374.837 288.749 374.559 288.638 374.348 288.44C374.138 288.241 374.011 287.97 373.994 287.681L371.726 249.092C371.726 249.069 371.726 249.048 371.726 249.025H373.999L376.265 287.549C376.283 287.85 376.18 288.145 375.98 288.37C375.78 288.595 375.499 288.731 375.198 288.749Z" fill="#A82A27"/>
<path id="Vector_172" d="M397.831 294.427H388.751L388.609 292.593L386.481 264.916H395.561L397.654 292.116L397.831 294.427Z" fill="#EBA72E"/>
<path id="Vector_173" d="M393.404 288.746C393.366 288.75 393.327 288.752 393.289 288.752C393.008 288.752 392.737 288.647 392.528 288.458C392.32 288.269 392.189 288.01 392.161 287.73L392.12 287.324L389.891 265.029C389.887 264.991 389.886 264.954 389.886 264.916H392.162L394.392 287.216L394.42 287.498C394.436 287.647 394.422 287.797 394.379 287.94C394.336 288.084 394.266 288.217 394.171 288.333C394.077 288.449 393.961 288.545 393.829 288.616C393.697 288.687 393.553 288.731 393.404 288.746Z" fill="#E09F2C"/>
<path id="Vector_174" d="M397.831 294.426H396.466L393.291 289.662L390.116 294.426H388.751L388.609 292.592L392.12 287.325L392.346 286.987C392.45 286.831 392.59 286.704 392.755 286.616C392.92 286.528 393.104 286.481 393.291 286.481C393.478 286.481 393.662 286.528 393.827 286.616C393.992 286.704 394.132 286.831 394.236 286.987L394.392 287.221L397.654 292.113L397.831 294.426Z" fill="#E09F2C"/>
<path id="Vector_175" d="M388.752 294.427H359.241L361.511 264.916H386.482L388.752 294.427Z" fill="#F7B030"/>
<path id="Vector_176" d="M375.131 286.481H372.861C371.356 286.479 369.914 285.881 368.85 284.817C367.786 283.753 367.188 282.311 367.186 280.806V271.726C367.186 271.425 367.306 271.136 367.518 270.923C367.731 270.711 368.02 270.591 368.321 270.591C368.622 270.591 368.911 270.711 369.124 270.923C369.336 271.136 369.456 271.425 369.456 271.726V280.806C369.457 281.709 369.816 282.574 370.454 283.213C371.093 283.851 371.958 284.21 372.861 284.211H375.131C376.034 284.21 376.899 283.851 377.538 283.213C378.176 282.574 378.535 281.709 378.536 280.806V271.726C378.536 271.425 378.656 271.136 378.868 270.923C379.081 270.711 379.37 270.591 379.671 270.591C379.972 270.591 380.261 270.711 380.474 270.923C380.686 271.136 380.806 271.425 380.806 271.726V280.806C380.804 282.311 380.206 283.753 379.142 284.817C378.078 285.881 376.636 286.479 375.131 286.481V286.481Z" fill="#E9EEF2"/>
<path id="Vector_177" d="M342.215 253.565H344.485V260.375H342.215V253.565Z" fill="#DADCDE"/>
<path id="Vector_178" d="M343.35 254.7C343.049 254.7 342.76 254.58 342.547 254.368C342.335 254.155 342.215 253.866 342.215 253.565V242.215C342.215 239.506 343.291 236.908 345.207 234.992C347.123 233.076 349.721 232 352.43 232C355.139 232 357.737 233.076 359.653 234.992C361.569 236.908 362.645 239.506 362.645 242.215V253.565C362.645 253.866 362.525 254.155 362.313 254.368C362.1 254.58 361.811 254.7 361.51 254.7C361.209 254.7 360.92 254.58 360.707 254.368C360.495 254.155 360.375 253.866 360.375 253.565V242.215C360.375 240.108 359.538 238.087 358.048 236.597C356.558 235.107 354.537 234.27 352.43 234.27C350.323 234.27 348.302 235.107 346.812 236.597C345.322 238.087 344.485 240.108 344.485 242.215V253.565C344.485 253.866 344.365 254.155 344.153 254.368C343.94 254.58 343.651 254.7 343.35 254.7V254.7Z" fill="#E9EEF2"/>
<path id="Vector_179" d="M346.755 269.456H339.945V260.376L343.35 258.106L346.755 260.376V269.456Z" fill="#F7B030"/>
</g>
<path id="Vector_180" d="M357.126 181.409L282.409 270.454L371.454 345.171L446.171 256.126L357.126 181.409ZM357.003 180L447.58 256.003L371.577 346.58L281 270.577L357.003 180Z" fill="#C5C5C5"/>
</g>
</g>
</g>
</svg>
