<svg xmlns="http://www.w3.org/2000/svg" width="629.58" height="363.58" viewBox="0 0 629.58 363.58"><g transform="translate(-360 -3089)"><g transform="translate(514.206 3335.58)"><path d="M89.912,59.445h-8.49A17.513,17.513,0,0,1,63.909,41.932V21.758A21.758,21.758,0,0,1,85.667,0h0a21.758,21.758,0,0,1,21.758,21.758V41.932A17.513,17.513,0,0,1,89.912,59.445Z" transform="translate(-60.381)" fill="#606572"/><path d="M217.8,0h0q-.858,0-1.7.066a21.76,21.76,0,0,1,20.059,21.693V41.932a17.513,17.513,0,0,1-17.513,17.513h3.4A17.513,17.513,0,0,0,239.56,41.932V21.759A21.758,21.758,0,0,0,217.8,0Z" transform="translate(-192.515)" fill="#3b4254"/><path d="M124.46,296.862H87.125l.315-5a8.507,8.507,0,0,1,6.451-7.724l5.425-1.341a.6.6,0,0,0,.456-.582V270.077h12.1v12.158a.6.6,0,0,0,.456.582l5.364,1.326a8.508,8.508,0,0,1,6.451,7.724Z" transform="translate(-80.537 -234.481)" fill="#f9c295"/><path d="M266.9,291.868a8.507,8.507,0,0,0-6.451-7.724l-5.364-1.326a.6.6,0,0,1-.456-.582V270.078h-3.078v12.158a.6.6,0,0,0,.456.582l5.364,1.326a8.508,8.508,0,0,1,6.451,7.724l.315,5h3.078Z" transform="translate(-223.292 -234.482)" fill="#e8a26a"/><path d="M183.085,280.228a11.781,11.781,0,0,0,12.1,0V270.077h-12.1Z" transform="translate(-163.849 -234.481)" fill="#e8a26a"/><path d="M144.35,119.062c-1.878,9.627-9.658,15.168-15.6,15.168-5.6,0-12.831-4.915-15.219-13.533,10.644-1.516,19.617-11.385,21.862-17.111C135.388,103.585,135.388,116.2,144.35,119.062Z" transform="translate(-103.458 -89.933)" fill="#f9c295"/><path d="M234.09,202.727c-.5,10.53-7.153,16.909-12.516,17.527.33.032.657.05.978.05,5.946,0,13.727-5.54,15.6-15.168A10.481,10.481,0,0,1,234.09,202.727Z" transform="translate(-197.266 -176.008)" fill="#e8a26a"/><g transform="translate(38.456 4.241)"><path d="M333.83,32.6c-.739,2.722-1.767,3.75-4.489,4.489a.575.575,0,0,0,0,1.109c2.722.739,3.75,1.767,4.489,4.489a.575.575,0,0,0,1.109,0c.739-2.722,1.767-3.75,4.489-4.489a.575.575,0,0,0,0-1.109c-2.722-.739-3.75-1.767-4.489-4.489A.575.575,0,0,0,333.83,32.6Z" transform="translate(-328.918 -32.176)" fill="#fee9a1"/></g><g transform="translate(40.39 33.417)"><path d="M351.488,267.594l-7.1-6.564a2.475,2.475,0,0,1,.833-4.143l8.755-3.186a2.475,2.475,0,0,1,3.3,2.638l-1.221,9.593Z" transform="translate(-343.589 -253.548)" fill="#fee9a1"/><path d="M407.759,253.7l-2.219.808c1.393-.507,2.962,1.009,2.888,2.789l-.388,9.29,1.8-.655,1.221-9.593A2.475,2.475,0,0,0,407.759,253.7Z" transform="translate(-397.375 -253.548)" fill="#fdca67"/><g transform="translate(2.424 0.441)"><path d="M404.942,260a9.266,9.266,0,0,0-1.177-3.107l-1.911.7a6.839,6.839,0,0,1,1.14,2.752l.448,2.565a.989.989,0,0,0,1.948-.34Z" transform="translate(-396.599 -256.897)" fill="#dda84a"/><path d="M363.075,275.243l1.306,2.253a.989.989,0,0,0,1.711-.991l-1.306-2.253a6.839,6.839,0,0,1-.895-2.841l-1.91.7A9.265,9.265,0,0,0,363.075,275.243Z" transform="translate(-361.981 -269.498)" fill="#dda84a"/></g><path d="M400.38,347.413l3.942,10.83a3,3,0,0,0,3.847,1.794h0a3,3,0,0,0,1.794-3.846l-3.942-10.83a1,1,0,0,0-1.286-.6l-3.754,1.366A1,1,0,0,0,400.38,347.413Z" transform="translate(-392.842 -332.685)" fill="#fd7ba2"/><path d="M426.146,356.189,422.2,345.36a1,1,0,0,0-1.287-.6l-1.958.713c.3-.111.7.222.893.743l3.942,10.83a3.178,3.178,0,0,1-.225,3.162,3.007,3.007,0,0,0,.783-.171h0A3,3,0,0,0,426.146,356.189Z" transform="translate(-409.026 -332.685)" fill="#e9488e"/><path d="M413.627,369.512l-.676-1.858h0l-5.64,2.053h0l.676,1.858h0Z" transform="translate(-398.913 -352.615)" fill="#606572"/><path d="M434.619,367.654l-2.351.856.676,1.858,2.351-.856-.676-1.858Z" transform="translate(-420.58 -352.615)" fill="#3b4254"/></g><g transform="translate(0 37.9)"><path d="M56.3,292.691v9.735H47.331V288.562a.908.908,0,0,1,.115-.457c.557-.964,2.963-.615,5.375.778C54.9,290.08,56.3,291.659,56.3,292.691Z" transform="translate(-45.988 -287.56)" fill="#ff7870"/><path d="M92.573,299.772v13.256h3.006v-9.735C95.579,302.341,94.384,300.925,92.573,299.772Z" transform="translate(-85.267 -298.162)" fill="#d7352e"/><path d="M47.459,400.351H38.473a1.335,1.335,0,0,0-1.335,1.335v12.046a1.335,1.335,0,0,0,1.335,1.335h8.986a1.335,1.335,0,0,0,1.335-1.335V401.686A1.335,1.335,0,0,0,47.459,400.351Z" transform="translate(-37.138 -385.485)" fill="#78baf6"/><path d="M95.646,400.351H92.64a1.335,1.335,0,0,1,1.335,1.335v12.046a1.335,1.335,0,0,1-1.335,1.335h3.006a1.335,1.335,0,0,0,1.335-1.335V401.686A1.335,1.335,0,0,0,95.646,400.351Z" transform="translate(-85.325 -385.485)" fill="#1885da"/><path d="M56.3,292.691a.894.894,0,0,1-.117.459c-.556.964-2.963.615-5.375-.778-2.074-1.2-3.476-2.777-3.476-3.81a.908.908,0,0,1,.115-.457c.557-.964,2.963-.615,5.375.778C54.9,290.08,56.3,291.659,56.3,292.691Z" transform="translate(-45.988 -287.56)" fill="#ff9794"/><rect width="11.655" height="1.977" transform="translate(0 17.903)" fill="#606572"/><rect width="3.006" height="1.977" transform="translate(8.65 17.903)" fill="#3b4254"/></g></g><g transform="translate(693 3319)"><path d="M163.3,54.7a1.135,1.135,0,0,1-1.135-1.135V42.215a7.945,7.945,0,0,0-15.89,0v11.35a1.135,1.135,0,1,1-2.27,0V42.215a10.215,10.215,0,0,1,20.43,0v11.35A1.135,1.135,0,0,1,163.3,54.7Z" transform="translate(-126.975 -32)" fill="#dadcde"/><path d="M62.591,197.4H24L26.27,152H60.321Z" transform="translate(-24 -134.975)" fill="#eb423f"/><path d="M291.35,197.4h-9.08L280,152h9.08Z" transform="translate(-243.679 -134.975)" fill="#d13330"/><path d="M307.472,191.724H307.4a1.135,1.135,0,0,1-1.132-1.068L304,152.067c0-.023,0-.044,0-.067h2.273l2.266,38.524A1.136,1.136,0,0,1,307.472,191.724Z" transform="translate(-264.274 -134.975)" fill="#a82a27"/><path d="M419.35,293.511h-9.08l-.142-1.834h0L408,264h9.08l2.093,27.2h0Z" transform="translate(-353.519 -231.084)" fill="#eba72e"/><path d="M435.518,287.83a1.047,1.047,0,0,1-.115.006,1.135,1.135,0,0,1-1.128-1.022l-.041-.406-2.229-22.295A1.023,1.023,0,0,1,432,264h2.276l2.23,22.3.028.282A1.135,1.135,0,0,1,435.518,287.83Z" transform="translate(-374.114 -231.084)" fill="#e09f2c"/><path d="M432.222,423.945h-1.365l-3.175-4.764-3.175,4.764h-1.365L423,422.111h0l3.511-5.267.226-.338a1.136,1.136,0,0,1,1.89,0l.156.234,3.262,4.892h0Z" transform="translate(-366.391 -361.519)" fill="#e09f2c"/><path d="M245.511,293.511H216L218.27,264h24.971Z" transform="translate(-188.759 -231.084)" fill="#f7b030"/><path d="M279.945,319.89h-2.27A5.682,5.682,0,0,1,272,314.215v-9.08a1.135,1.135,0,1,1,2.27,0v9.08a3.409,3.409,0,0,0,3.405,3.405h2.27a3.409,3.409,0,0,0,3.405-3.405v-9.08a1.135,1.135,0,1,1,2.27,0v9.08A5.682,5.682,0,0,1,279.945,319.89Z" transform="translate(-236.814 -265.409)" fill="#e9eef2"/><path d="M96,184h2.27v6.81H96Z" transform="translate(-85.785 -162.435)" fill="#dadcde"/><path d="M97.135,54.7A1.135,1.135,0,0,1,96,53.565V42.215a10.215,10.215,0,0,1,20.43,0v11.35a1.135,1.135,0,0,1-2.27,0V42.215a7.945,7.945,0,1,0-15.89,0v11.35A1.135,1.135,0,0,1,97.135,54.7Z" transform="translate(-85.785 -32)" fill="#e9eef2"/><path d="M86.81,227.35H80v-9.08L83.405,216l3.405,2.27Z" transform="translate(-72.055 -189.894)" fill="#f7b030"/></g><g transform="translate(879 3309)"><path d="M49.39,19.4V6H44.03v8.493Z" transform="translate(-4.698 -0.64)" fill="#afb6bb"/><path d="M27.546,3.572,7,22.7v29.5H48.092V22.714Z" transform="translate(-0.747 -0.381)" fill="#e7eced"/><path d="M52.705,58.787H.893A.893.893,0,1,1,.893,57H52.705a.893.893,0,1,1,0,1.787Z" transform="translate(0 -6.082)" fill="#7383bf"/><path d="M49.766,25.765l-22.86-21.3L4.046,25.746a1.794,1.794,0,0,1-2.521-.015h0a1.793,1.793,0,0,1,.005-2.541L26.933,0,52.281,23.208a1.792,1.792,0,0,1,.005,2.541h0A1.794,1.794,0,0,1,49.766,25.765Z" transform="translate(-0.107)" fill="#fdb415"/><path d="M41.692,38.186a.894.894,0,0,1-.893-.893,12.506,12.506,0,1,0-25.013,0,.893.893,0,0,1-1.787,0,14.293,14.293,0,0,1,28.586,0A.894.894,0,0,1,41.692,38.186Z" transform="translate(-1.494 -2.454)" fill="#366db6"/><path d="M38.546,38.613a.894.894,0,0,1-.893-.893,8.933,8.933,0,1,0-17.866,0,.893.893,0,1,1-1.787,0,10.72,10.72,0,0,1,21.439,0A.894.894,0,0,1,38.546,38.613Z" transform="translate(-1.921 -2.881)" fill="#366db6"/><path d="M35.4,39.04a.894.894,0,0,1-.893-.893,5.36,5.36,0,1,0-10.72,0,.893.893,0,0,1-1.787,0,7.146,7.146,0,1,1,14.293,0A.894.894,0,0,1,35.4,39.04Z" transform="translate(-2.347 -3.308)" fill="#366db6"/><path d="M32.253,39.467a.894.894,0,0,1-.893-.893,1.787,1.787,0,1,0-3.573,0,.893.893,0,0,1-1.787,0,3.573,3.573,0,1,1,7.146,0A.894.894,0,0,1,32.253,39.467Z" transform="translate(-2.774 -3.734)" fill="#366db6"/><ellipse cx="2.236" cy="2.236" rx="2.236" ry="2.236" transform="translate(24.66 39.294)" fill="#366db6"/></g><g transform="translate(588.205 3235)"><path d="M137.234,73.925V38.569A4.753,4.753,0,0,1,142,33.855a4.708,4.708,0,0,0,4.667-4.714V17.355h21.214V29.141a4.715,4.715,0,0,0,4.715,4.714,4.708,4.708,0,0,1,4.714,4.714V78.639a4.714,4.714,0,0,1-4.714,4.714H137.234Zm0,0" transform="translate(-118.461 -14.998)" fill="#fdb415"/><path d="M174.3,234.3h25.928a2.357,2.357,0,0,1,2.357,2.357V250.8a2.357,2.357,0,0,1-2.357,2.357H174.3a2.357,2.357,0,0,1-2.357-2.357V236.662A2.357,2.357,0,0,1,174.3,234.3Zm0,0" transform="translate(-148.458 -202.484)" fill="#f5efca"/><g transform="translate(27.023 35.356)"><path d="M201.516,262.7h-2.357a1.179,1.179,0,0,1,0-2.357h2.357a1.179,1.179,0,1,1,0,2.357Zm0,0" transform="translate(-197.981 -260.34)" fill="#7f6e5d"/><path d="M265.367,262.7H251.225a1.179,1.179,0,1,1,0-2.357h14.142a1.179,1.179,0,1,1,0,2.357Zm0,0" transform="translate(-242.975 -260.34)" fill="#7f6e5d"/><path d="M201.516,332.119h-2.357a1.179,1.179,0,0,1,0-2.357h2.357a1.179,1.179,0,1,1,0,2.357Zm0,0" transform="translate(-197.981 -320.333)" fill="#7f6e5d"/><path d="M265.367,332.119H251.225a1.179,1.179,0,1,1,0-2.357h14.142a1.179,1.179,0,1,1,0,2.357Zm0,0" transform="translate(-242.975 -320.333)" fill="#7f6e5d"/><path d="M340.363,297.408h-2.357a1.179,1.179,0,0,1,0-2.357h2.357a1.179,1.179,0,1,1,0,2.357Zm0,0" transform="translate(-317.971 -290.336)" fill="#7f6e5d"/><path d="M213.3,297.408H199.158a1.179,1.179,0,0,1,0-2.357H213.3a1.179,1.179,0,1,1,0,2.357Zm0,0" transform="translate(-197.98 -290.336)" fill="#7f6e5d"/></g><path d="M159.86,0h24.815a5.271,5.271,0,0,1,5.271,5.271v6.237a2.635,2.635,0,0,1-2.636,2.636H157.225a2.635,2.635,0,0,1-2.635-2.636V5.271A5.271,5.271,0,0,1,159.861,0Zm0,0" transform="translate(-133.46)" fill="#bdc3c7"/><path d="M132.091,443.326h5.893a4.72,4.72,0,0,0,4.514-3.347,4.791,4.791,0,0,0,.2-1.367,4.726,4.726,0,0,0-.849-2.687,3.984,3.984,0,0,0-.53-.648,4.744,4.744,0,0,0-3.335-1.379h-9.429v9.428Zm0,0" transform="translate(-110.96 -374.971)" fill="#c03a2b"/><path d="M47.24,382.852a4.74,4.74,0,0,1-.967,2.864l-1.39,2.357c-1.3,0-.318,1.509-1.179,2.357-.2.2-4.561.943-4.714,1.179L33.1,386.895l2-3.96,4.4-3.689a4.714,4.714,0,0,1,7.743,3.606Zm0,0" transform="translate(-28.467 -326.789)" fill="#f0c419"/><path d="M10.523,420.913a4.791,4.791,0,0,0,.2,1.367L8.06,424.52A4.714,4.714,0,1,1,2,417.307l4.632-3.889.353.424,4.384,4.384a4.729,4.729,0,0,0-.848,2.687Zm0,0" transform="translate(0 -357.272)" fill="#c03a2b"/><path d="M190.479,40.6a1.179,1.179,0,0,1-1.179-1.179V35.89a1.179,1.179,0,1,1,2.357,0v3.535A1.178,1.178,0,0,1,190.479,40.6Zm0,0" transform="translate(-163.456 -29.997)" fill="#a5a5a4"/><path d="M225.19,40.6a1.179,1.179,0,0,1-1.179-1.179V35.89a1.179,1.179,0,1,1,2.358,0v3.535A1.179,1.179,0,0,1,225.19,40.6Zm0,0" transform="translate(-193.453 -29.997)" fill="#a5a5a4"/><path d="M259.9,40.6a1.178,1.178,0,0,1-1.178-1.179V35.89a1.179,1.179,0,1,1,2.357,0v3.535A1.179,1.179,0,0,1,259.9,40.6Zm0,0" transform="translate(-223.453 -29.997)" fill="#a5a5a4"/><path d="M294.615,40.6a1.179,1.179,0,0,1-1.178-1.179V35.89a1.179,1.179,0,1,1,2.357,0v3.535A1.179,1.179,0,0,1,294.615,40.6Zm0,0" transform="translate(-253.45 -29.997)" fill="#a5a5a4"/><path d="M329.327,40.6a1.179,1.179,0,0,1-1.179-1.179V35.89a1.179,1.179,0,1,1,2.357,0v3.535A1.178,1.178,0,0,1,329.327,40.6Zm0,0" transform="translate(-283.447 -29.997)" fill="#a5a5a4"/><path d="M364.038,40.6a1.179,1.179,0,0,1-1.179-1.179V35.89a1.179,1.179,0,1,1,2.358,0v3.535A1.179,1.179,0,0,1,364.038,40.6Zm0,0" transform="translate(-313.444 -29.997)" fill="#a5a5a4"/><path d="M87.1,443.326H81.2a4.72,4.72,0,0,1-4.514-3.347,4.791,4.791,0,0,1-.2-1.367,4.729,4.729,0,0,1,.848-2.687,4.015,4.015,0,0,1,.531-.648A4.744,4.744,0,0,1,81.2,433.9H87.1Zm0,0" transform="translate(-65.965 -374.971)" fill="#2fa8cc"/></g><g transform="translate(674 3138)"><path d="M268.485,128l5.583,18.982a2.272,2.272,0,0,1,.092.64v32.589H256V128Z" transform="translate(-223.084 -112.11)" fill="#93573d"/><path d="M337.135,314.106A1.135,1.135,0,0,1,336,312.971V289.135a1.135,1.135,0,0,1,2.27,0v23.836A1.135,1.135,0,0,1,337.135,314.106Z" transform="translate(-291.734 -249.409)" fill="#794832"/><path d="M63.726,180.211H24V147.854a4.544,4.544,0,0,1,.135-1.1L29.675,128H69.4l-5.54,18.753a4.545,4.545,0,0,0-.135,1.1Z" transform="translate(-24 -112.11)" fill="#ab6647"/><path d="M101.388,343.89H99.453a2.27,2.27,0,0,1-2.264-2.432L98.15,328h4.54l.961,13.459a2.27,2.27,0,0,1-2.264,2.432Z" transform="translate(-86.8 -283.734)" fill="#e74444"/><path d="M189.743,371.35H187.95a2.27,2.27,0,0,1-2.259-2.5l.885-8.854h4.54l.885,8.854a2.27,2.27,0,0,1-2.259,2.5Z" transform="translate(-162.741 -311.194)" fill="#e74444"/><path d="M42.27,80C41.016,80,40,81.524,40,83.405s1.016,3.405,2.27,3.405H83.131V80Z" transform="translate(-37.73 -70.92)" fill="#93573d"/><path d="M186.051,41.757a5,5,0,0,1-5,5h-2.79a.458.458,0,0,0-.281.1L170.9,52.361a3.863,3.863,0,0,1-5.1-5.781l6.989-6.989a.458.458,0,0,0-.324-.781H152l11.366-6.2A5,5,0,0,1,165.76,32h28.913a.458.458,0,0,1,.458.458v8.165a.458.458,0,0,1-.458.458h-7.945a.677.677,0,0,0-.677.677Z" transform="translate(-133.84 -29.73)" fill="#f5cbaa"/><path d="M424,16h9.08V30.755H424Z" transform="translate(-367.249 -16)" fill="#155384"/><path d="M304,461.675,309.675,456l5.675,5.675Z" transform="translate(-264.274 -393.574)" fill="#794832"/><g transform="translate(7.945 35.186)"><path d="M90.215,264a1.135,1.135,0,0,0-1.135,1.135v3.405H86.81v-3.405a1.135,1.135,0,1,0-2.27,0v3.405H82.27v-3.405a1.135,1.135,0,1,0-2.27,0v3.405l3.405,4.54h4.54l3.405-4.54v-3.405A1.135,1.135,0,0,0,90.215,264Z" transform="translate(-80 -264)" fill="#d9dbdd"/><path d="M178.27,277.62v-1.135L176,275.35s.851-11.35,6.81-11.35v13.62Z" transform="translate(-162.38 -264)" fill="#d9dbdd"/></g></g><g transform="translate(769 3235)"><g transform="translate(1.873 19.152)"><path d="M374.841,278.75l-16.465.606c-.014-.2-.023-.4-.023-.606a8.244,8.244,0,1,1,16.487,0Z" transform="translate(-309.385 -270.394)" fill="#32373a"/><path d="M29.542,277.891l-16.335.061a.032.032,0,0,0,0,.014v-.075a8.17,8.17,0,1,1,16.34,0Z" transform="translate(-13.202 -269.721)" fill="#32373a"/></g><ellipse cx="6.903" cy="6.903" rx="6.903" ry="6.903" transform="translate(3.14 20.604)" fill="#3e4347"/><ellipse cx="4.116" cy="4.116" rx="4.116" ry="4.116" transform="translate(5.927 23.392)" fill="#dae5ef"/><g transform="translate(8.159 20.604)"><ellipse cx="1.884" cy="1.884" rx="1.884" ry="1.884" transform="translate(0 5.019)" fill="#3e4347"/><ellipse cx="6.903" cy="6.903" rx="6.903" ry="6.903" transform="translate(44.028)" fill="#3e4347"/></g><ellipse cx="4.116" cy="4.116" rx="4.116" ry="4.116" transform="translate(54.974 23.392)" fill="#dae5ef"/><ellipse cx="1.884" cy="1.884" rx="1.884" ry="1.884" transform="translate(57.206 25.623)" fill="#3e4347"/><path d="M72.642,161a1.61,1.61,0,0,1-1.135,1.594,6.551,6.551,0,0,1-4.161-.259l-.016,0a8.243,8.243,0,1,0-16.485-.173c0,.175,0,.35.011.52a1.875,1.875,0,0,1-1.868,1.986H20.615a2.4,2.4,0,0,1-2.4-2.452v-.086a8.17,8.17,0,1,0-16.34-.075v.075c-.459,1.137-1.573.919-1.512-.1v-4.1s-.972-3.369.272-5.584S3.4,150.5,3.4,150.5s.667-3.861,14.932-4.47l7.709-8.681s-.638-1.305,2.581-2.063,20.912-1.033,26.133,1.183,9.682,10.774,9.682,10.774S72.25,147.909,72.642,161Z" transform="translate(0 -134.735)" fill="#ffd93b"/><g transform="translate(20.944 3.039)"><path d="M328.206,167.089H316.892a1.588,1.588,0,0,1-1.587-1.525l-.223-5.8a1.587,1.587,0,0,1,1.707-1.644,27.412,27.412,0,0,1,7.151,1.208c1.941.824,3.963,3.074,5.546,5.235A1.586,1.586,0,0,1,328.206,167.089Z" transform="translate(-291.322 -157.84)" fill="#3e4347"/><path d="M182.184,163.753A1.587,1.587,0,0,1,180.6,165.4H164.28a1.588,1.588,0,0,1-1.249-2.567,38.855,38.855,0,0,1,5.879-6.209l.011,0a59.638,59.638,0,0,1,8.992-.47c.847,0,1.678.009,2.486.025a1.587,1.587,0,0,1,1.553,1.528Z" transform="translate(-160.552 -156.153)" fill="#3e4347"/><rect width="1.294" height="1.294" transform="translate(0 13.852)" fill="#3e4347"/><rect width="1.294" height="1.294" transform="translate(1.269 15.121)" fill="#3e4347"/><rect width="1.294" height="1.294" transform="translate(1.269 12.558)" fill="#3e4347"/><rect width="1.294" height="1.294" transform="translate(2.563 13.852)" fill="#3e4347"/><rect width="1.294" height="1.294" transform="translate(3.832 15.121)" fill="#3e4347"/><rect width="1.294" height="1.294" transform="translate(3.832 12.558)" fill="#3e4347"/><rect width="1.294" height="1.294" transform="translate(5.126 13.852)" fill="#3e4347"/><rect width="1.294" height="1.294" transform="translate(6.388 15.121)" fill="#3e4347"/><rect width="1.294" height="1.294" transform="translate(6.388 12.558)" fill="#3e4347"/><rect width="1.294" height="1.294" transform="translate(7.689 13.852)" fill="#3e4347"/><rect width="1.294" height="1.294" transform="translate(8.958 15.121)" fill="#3e4347"/><rect width="1.294" height="1.294" transform="translate(8.958 12.558)" fill="#3e4347"/><rect width="1.294" height="1.294" transform="translate(10.252 13.852)" fill="#3e4347"/><rect width="1.294" height="1.294" transform="translate(11.521 15.121)" fill="#3e4347"/><rect width="1.294" height="1.294" transform="translate(11.521 12.558)" fill="#3e4347"/><rect width="1.294" height="1.294" transform="translate(12.814 13.852)" fill="#3e4347"/><rect width="1.294" height="1.294" transform="translate(14.083 15.121)" fill="#3e4347"/><rect width="1.294" height="1.294" transform="translate(14.083 12.558)" fill="#3e4347"/><rect width="1.294" height="1.294" transform="translate(15.377 13.852)" fill="#3e4347"/><rect width="1.294" height="1.294" transform="translate(16.646 15.121)" fill="#3e4347"/><rect width="1.294" height="1.294" transform="translate(16.646 12.558)" fill="#3e4347"/><rect width="1.294" height="1.294" transform="translate(17.942 13.852)" fill="#3e4347"/><rect width="1.294" height="1.294" transform="translate(19.209 15.121)" fill="#3e4347"/><rect width="1.294" height="1.294" transform="translate(19.209 12.558)" fill="#3e4347"/><rect width="1.294" height="1.294" transform="translate(20.503 13.852)" fill="#3e4347"/><rect width="1.294" height="1.294" transform="translate(21.772 15.121)" fill="#3e4347"/><rect width="1.294" height="1.294" transform="translate(21.772 12.558)" fill="#3e4347"/><rect width="1.294" height="1.294" transform="translate(23.066 13.852)" fill="#3e4347"/><rect width="1.294" height="1.294" transform="translate(24.335 15.121)" fill="#3e4347"/><rect width="1.294" height="1.294" transform="translate(24.335 12.558)" fill="#3e4347"/><rect width="1.294" height="1.294" transform="translate(25.629 13.852)" fill="#3e4347"/><rect width="1.294" height="1.294" transform="translate(26.886 15.121)" fill="#3e4347"/><rect width="1.294" height="1.294" transform="translate(26.886 12.558)" fill="#3e4347"/><rect width="1.294" height="1.294" transform="translate(28.192 13.852)" fill="#3e4347"/><rect width="1.294" height="1.294" transform="translate(29.452 15.121)" fill="#3e4347"/><rect width="1.294" height="1.294" transform="translate(29.452 12.558)" fill="#3e4347"/></g><g transform="translate(28.839 22.146)"><path d="M204.512,295.027v-3.491h-1.246v-.711h3.339v.711h-1.244v3.491Z" transform="translate(-203.266 -290.825)" fill="#e24b4b"/><path d="M228.793,295.027h-.922l-.368-.953h-1.68l-.347.953h-.9l1.637-4.2h.9Zm-1.562-1.662-.579-1.56-.568,1.56Z" transform="translate(-221.554 -290.825)" fill="#e24b4b"/><path d="M254.45,295.027l1.435-2.193-1.3-2.009h.992l.842,1.351.826-1.351h.983l-1.308,2.041,1.435,2.161h-1.024l-.931-1.453-.935,1.453Z" transform="translate(-247.188 -290.825)" fill="#e24b4b"/><path d="M284.866,295.027v-4.2h.849v4.2Z" transform="translate(-273.289 -290.825)" fill="#e24b4b"/></g><g transform="translate(24.524 3.041)"><path d="M179.626,156.657l-6.776,9.012q.075.007.15.007h3.387l6.921-9.2C181.826,156.514,180.582,156.582,179.626,156.657Z" transform="translate(-172.85 -156.43)" fill="#5a5f63"/><path d="M212.961,156.169q-.776,0-1.491.02l-6.94,9.228h1.478Z" transform="translate(-200.035 -156.169)" fill="#5a5f63"/><path d="M321.488,160.713l-4.958,6.592.018.484a1.587,1.587,0,0,0,1.587,1.525h.427l6-7.979A20.749,20.749,0,0,0,321.488,160.713Z" transform="translate(-296.145 -160.068)" fill="#5a5f63"/><path d="M344.426,167.655a7.165,7.165,0,0,0-1.033-.59l-5.791,7.7h1.478Z" transform="translate(-314.227 -165.519)" fill="#5a5f63"/></g><path d="M118.45,328.9a6.9,6.9,0,0,0,.141-1.4c0-.059,0-.12,0-.179l1.269,0v.159a2.39,2.39,0,0,0,.365,1.323C119.628,328.84,119.036,328.871,118.45,328.9Z" transform="translate(-101.645 -299.997)" fill="#3e4347"/><path d="M3.478,247.875A3.491,3.491,0,0,1,2.293,250a3.5,3.5,0,0,1-2.281.842,6.231,6.231,0,0,1,.624-3.258c1.244-2.216,2.763-1.843,2.763-1.843A4.882,4.882,0,0,1,3.478,247.875Z" transform="translate(-0.003 -229.969)" fill="#e9eff4"/><path d="M475.952,239.542l.236.027a11.2,11.2,0,0,0-3.412-5.033c-.077.043-.152.084-.229.129-.509.2-.865.572-.865.944v.518C471.68,237.89,473.373,239.243,475.952,239.542Z" transform="translate(-404.761 -220.377)" fill="#e24b4b"/></g><g transform="translate(490 3154)"><path d="M367.945,56A7.945,7.945,0,0,0,360,63.945V93.456h15.89V63.945A7.945,7.945,0,0,0,367.945,56Zm0,5.675c1.88,0,3.405,1.016,3.405,2.27s-1.525,2.27-3.405,2.27-3.405-1.016-3.405-2.27S366.065,61.675,367.945,61.675Z" transform="translate(-312.329 -51.46)" fill="#9aa3a8"/><path d="M391.945,154.27h-6.81a1.135,1.135,0,1,1,0-2.27h6.81a1.135,1.135,0,1,1,0,2.27Z" transform="translate(-332.924 -133.84)" fill="#dadcde"/><path d="M391.945,186.27h-6.81a1.135,1.135,0,1,1,0-2.27h6.81a1.135,1.135,0,1,1,0,2.27Z" transform="translate(-332.924 -161.3)" fill="#dadcde"/><path d="M391.945,218.27h-6.81a1.135,1.135,0,1,1,0-2.27h6.81a1.135,1.135,0,1,1,0,2.27Z" transform="translate(-332.924 -188.759)" fill="#dadcde"/><path d="M29.675,24,24,41.025,35.35,44.43,33.08,27.405Z" transform="translate(-24 -24)" fill="#ffdb8d"/><path d="M253.675,24l5.675,17.025L248,44.43l2.27-17.025Z" transform="translate(-216.219 -24)" fill="#ffdb8d"/><path d="M128,24h13.62V41.025H128Z" transform="translate(-113.245 -24)" fill="#ffdb8d"/><path d="M95.781,24V64.861H64V24a7.567,7.567,0,0,0,9.08,0c0,3.761,3.049,14.755,6.81,14.755S86.7,27.761,86.7,24a7.567,7.567,0,0,0,9.08,0Z" transform="translate(-58.325 -24)" fill="#fdb415"/><path d="M95.561,221.62a4.54,4.54,0,0,1-4.54,4.54,5.181,5.181,0,0,1-3.405-1.135,6.269,6.269,0,0,1-5.675,3.405,6.038,6.038,0,0,1-5.675-3.405c-1.42,6.006-7.182,10.215-13.62,10.215A14.4,14.4,0,0,1,50.16,227.3c-1.86,2.523-4.571,4.54-7.945,4.54a10.215,10.215,0,1,1,0-20.43c3.374,0,6.085,2.017,7.945,4.54A14.4,14.4,0,0,1,62.646,208c6.438,0,12.2,4.21,13.62,10.215a6.038,6.038,0,0,1,5.675-3.405,6.269,6.269,0,0,1,5.675,3.405,5.181,5.181,0,0,1,3.405-1.135A4.54,4.54,0,0,1,95.561,221.62Z" transform="translate(-30.865 -181.894)" fill="#99c7e8"/><path d="M235.728,238.81a1.135,1.135,0,0,1-.98-.56,8.565,8.565,0,0,0-7.345-3.98,7.175,7.175,0,0,0-1.96.282,1.135,1.135,0,0,1-.621-2.184A9.444,9.444,0,0,1,227.4,232a10.727,10.727,0,0,1,9.3,5.1,1.135,1.135,0,0,1-.978,1.71Z" transform="translate(-195.622 -202.489)" fill="#8fbad9"/><path d="M57.135,263.945A1.135,1.135,0,0,1,56,262.81,6.818,6.818,0,0,1,62.81,256a1.135,1.135,0,0,1,0,2.27,4.545,4.545,0,0,0-4.54,4.54A1.135,1.135,0,0,1,57.135,263.945Z" transform="translate(-51.46 -223.084)" fill="#8fbad9"/><path d="M95.561,312l-2.27,20.43a4.54,4.54,0,0,1-4.54,4.54H38.81a4.54,4.54,0,0,1-4.54-4.54L32,312Z" transform="translate(-30.865 -271.139)" fill="#dadcde"/><path d="M24,304H89.831v4.54H24Z" transform="translate(-24 -264.274)" fill="#9aa3a8"/><path d="M120,278.81a6.145,6.145,0,0,0,3.394,5.675c.688.4,1.135.34,1.135,1.135v7.945a2.27,2.27,0,0,0,4.54,0V290.16a4.54,4.54,0,0,0,4.54-4.54v-6.81a6.89,6.89,0,0,0,0-1.135A6.746,6.746,0,0,0,126.8,272,6.968,6.968,0,0,0,120,278.81Z" transform="translate(-106.38 -236.814)" fill="#a3d4f7"/><path d="M240,416h24.971v4.54H240Z" transform="translate(-209.354 -360.384)" fill="#c48669"/><path d="M248,448h22.7v5.675H248Z" transform="translate(-216.219 -387.844)" fill="#ffe76c"/><g transform="translate(35.186 60.156)"><path d="M336,448h2.27v5.675H336Z" transform="translate(-326.92 -448)" fill="#e6be5e"/><path d="M304,448h2.27v5.675H304Z" transform="translate(-299.46 -448)" fill="#e6be5e"/><path d="M368,448h2.27v5.675H368Z" transform="translate(-354.38 -448)" fill="#e6be5e"/><path d="M272,448h2.27v5.675H272Z" transform="translate(-272 -448)" fill="#e6be5e"/></g><path d="M145.255,300.54a1.135,1.135,0,0,1-1.135-1.135A3.409,3.409,0,0,1,147.525,296a1.135,1.135,0,1,1,0,2.27,1.136,1.136,0,0,0-1.135,1.135A1.135,1.135,0,0,1,145.255,300.54Z" transform="translate(-127.077 -257.409)" fill="#8fbad9"/></g><g transform="translate(414 3259)"><rect width="49.705" height="36.951" transform="translate(3.695 15.257)" fill="#ffd15c"/><rect width="18.118" height="26.7" transform="translate(31.706 25.508)" fill="#415a6b"/><rect width="14.542" height="23.124" transform="translate(33.494 27.296)" fill="#8ad7f8"/><path d="M0,102.4v5.364a5.648,5.648,0,0,0,5.721,5.721,5.648,5.648,0,0,0,5.721-5.721V102.4Z" transform="translate(0 -90.957)" fill="#f05540"/><path d="M102.4,102.4v5.364a5.721,5.721,0,1,0,11.443,0V102.4Z" transform="translate(-90.957 -90.957)" fill="#e8eae9"/><path d="M204.8,102.4v5.364a5.721,5.721,0,1,0,11.443,0V102.4Z" transform="translate(-181.914 -90.957)" fill="#f05540"/><path d="M307.2,102.4v5.364a5.721,5.721,0,1,0,11.443,0V102.4Z" transform="translate(-272.872 -90.957)" fill="#e8eae9"/><path d="M409.6,102.4v5.364a5.721,5.721,0,1,0,11.443,0V102.4Z" transform="translate(-363.829 -90.957)" fill="#f05540"/><path d="M13.946,0H4.172L0,11.443H11.443Z" fill="#f3705a"/><path d="M114.677,0H104.9l-2.5,11.443h11.443Z" transform="translate(-90.957)" fill="#f3f3f3"/><path d="M215.408,0h-9.774L204.8,11.443h11.443Z" transform="translate(-181.914)" fill="#f3705a"/><path d="M309.507,0h-9.774l.834,11.443H312.01Z" transform="translate(-266.239)" fill="#f3f3f3"/><path d="M396.974,0H387.2l2.5,11.443h11.443Z" transform="translate(-343.932)" fill="#f3705a"/><rect width="57.214" height="5.006" transform="translate(0 52.208)" fill="#ced6e0"/><g transform="translate(7.271 25.508)"><circle cx="1.55" cy="1.55" r="1.55" transform="translate(26.938 11.8)" fill="#415a6b"/><rect width="20.144" height="18.118" fill="#415a6b"/></g><rect width="16.568" height="14.542" transform="translate(9.059 27.296)" fill="#8ad7f8"/><g transform="translate(10.668 29.382)"><path d="M102.559,263.112a.894.894,0,0,0-1.073,0l-5.841,5.841a.759.759,0,0,0,1.073,1.073l5.841-5.841A.668.668,0,0,0,102.559,263.112Z" transform="translate(-95.467 -262.933)" fill="#55c0eb"/><path d="M131.347,294.046a.894.894,0,0,0-1.073,0l-3.7,3.7a.759.759,0,0,0,1.073,1.073l3.7-3.7A.668.668,0,0,0,131.347,294.046Z" transform="translate(-122.944 -290.41)" fill="#55c0eb"/></g></g><path d="M1,1V117.24H117.24V1H1M0,0H118.24V118.24H0Z" transform="translate(436.003 3204) rotate(40)" fill="#c5c5c5"/><path d="M1,1V117.24H117.24V1H1M0,0H118.24V118.24H0Z" transform="translate(536.003 3286) rotate(40)" fill="#c5c5c5"/><path d="M1,1V117.24H117.24V1H1M0,0H118.24V118.24H0Z" transform="translate(516.003 3104) rotate(40)" fill="#c5c5c5"/><path d="M1,1V117.24H117.24V1H1M0,0H118.24V118.24H0Z" transform="translate(616.003 3186) rotate(40)" fill="#c5c5c5"/><path d="M1,1V117.24H117.24V1H1M0,0H118.24V118.24H0Z" transform="translate(699.003 3089) rotate(40)" fill="#c5c5c5"/><path d="M1,1V117.24H117.24V1H1M0,0H118.24V118.24H0Z" transform="translate(798.003 3169) rotate(40)" fill="#c5c5c5"/><path d="M1,1V117.24H117.24V1H1M0,0H118.24V118.24H0Z" transform="translate(899.003 3252) rotate(40)" fill="#c5c5c5"/><path d="M1,1V117.24H117.24V1H1M0,0H118.24V118.24H0Z" transform="translate(718.003 3267) rotate(40)" fill="#c5c5c5"/></g></svg>