<svg xmlns="http://www.w3.org/2000/svg" width="400" height="333.806" viewBox="0 0 400 333.806"><path d="M320.818,158.025H319V108.272a28.8,28.8,0,0,0-28.8-28.8H184.8a28.8,28.8,0,0,0-28.8,28.8V381.224a28.8,28.8,0,0,0,28.8,28.8h105.41a28.8,28.8,0,0,0,28.8-28.8V193.441h1.816Z" transform="translate(-156 -79.476)" fill="#e6e6e6"/><path d="M301.062,96.107H287.3a10.217,10.217,0,0,1-9.459,14.075H217.455A10.217,10.217,0,0,1,208,96.108H195.145a21.5,21.5,0,0,0-21.5,21.5V390.164a21.5,21.5,0,0,0,21.5,21.5H301.062a21.5,21.5,0,0,0,21.5-21.5V117.612a21.5,21.5,0,0,0-21.5-21.5Z" transform="translate(-165.694 -88.616)" fill="#fff"/><path d="M260.934,219.111H254.61a.838.838,0,0,0-.838.838v2.776a.838.838,0,0,0,.838.838h1.048v4.159h4.228v-4.159h1.048a.838.838,0,0,0,.838-.838v-2.776A.838.838,0,0,0,260.934,219.111Z" transform="translate(-209.73 -156.212)" fill="#e6e6e6"/><path d="M260.166,249.692a32.513,32.513,0,0,1-5.656-19.276.686.686,0,0,0-.535-.684v-1.2H247.3v1.183H247.2a.685.685,0,0,0-.684.686q0,.025,0,.05a29.672,29.672,0,0,1-5.33,19.733,1.889,1.889,0,0,0-.342,1.145l.73,22.591a1.956,1.956,0,0,0,1.939,1.888h15.107a1.956,1.956,0,0,0,1.94-1.921l.281-21.934A3.958,3.958,0,0,0,260.166,249.692Z" transform="translate(-202.628 -161.389)" fill="#e6e6e6"/><path d="M260.736,292.166H247.587a1.35,1.35,0,0,0-1.334,1.555l1.987,12.916h11.41l2.414-12.872a1.35,1.35,0,0,0-1.327-1.6Z" transform="translate(-205.59 -196.359)" fill="#fff"/><path d="M417.218,369.345h-6.324a.838.838,0,0,0-.838.838v2.776a.838.838,0,0,0,.838.838h1.048v4.159h4.228V373.8h1.048a.838.838,0,0,0,.838-.838v-2.776a.838.838,0,0,0-.838-.838Z" transform="translate(-295.616 -238.773)" fill="#e6e6e6"/><path d="M416.451,399.927a32.512,32.512,0,0,1-5.656-19.276.686.686,0,0,0-.535-.684v-1.2H403.58v1.183h-.092a.685.685,0,0,0-.684.686c0,.017,0,.033,0,.05a29.672,29.672,0,0,1-5.33,19.733,1.889,1.889,0,0,0-.342,1.145l.73,22.591a1.956,1.956,0,0,0,1.939,1.887h15.107a1.956,1.956,0,0,0,1.94-1.921l.281-21.934a3.959,3.959,0,0,0-.68-2.26Z" transform="translate(-288.514 -243.951)" fill="#e6e6e6"/><path d="M417.021,442.4h-13.15a1.35,1.35,0,0,0-1.334,1.555l1.987,12.916h11.41L418.347,444a1.35,1.35,0,0,0-1.327-1.6Z" transform="translate(-291.475 -278.921)" fill="#fff"/><path d="M245.79,581.733h-3a.4.4,0,0,0-.4.4v1.317a.4.4,0,0,0,.4.4h.5v1.973h2.006v-1.973h.5a.4.4,0,0,0,.4-.4v-1.317a.4.4,0,0,0-.4-.4Z" transform="translate(-203.477 -355.491)" fill="#e6e6e6"/><path d="M245.426,596.239a15.422,15.422,0,0,1-2.683-9.144.325.325,0,0,0-.254-.325V586.2h-3.168v.561h-.044a.325.325,0,0,0-.325.326c0,.008,0,.016,0,.024a14.074,14.074,0,0,1-2.528,9.36.9.9,0,0,0-.162.543l.346,10.716a.928.928,0,0,0,.92.9h7.166a.928.928,0,0,0,.92-.911l.133-10.4A1.878,1.878,0,0,0,245.426,596.239Z" transform="translate(-200.108 -357.946)" fill="#e6e6e6"/><rect width="6.837" height="3.419" transform="translate(37.449 242.231)" fill="#fff"/><path d="M276.79,581.733h-3a.4.4,0,0,0-.4.4v1.317a.4.4,0,0,0,.4.4h.5v1.973h2.006v-1.973h.5a.4.4,0,0,0,.4-.4v-1.317a.4.4,0,0,0-.4-.4Z" transform="translate(-220.513 -355.491)" fill="#e6e6e6"/><path d="M276.426,596.239a15.422,15.422,0,0,1-2.683-9.144.325.325,0,0,0-.254-.325V586.2h-3.168v.561h-.044a.325.325,0,0,0-.325.326c0,.008,0,.016,0,.024a14.074,14.074,0,0,1-2.528,9.36.9.9,0,0,0-.162.543l.346,10.716a.928.928,0,0,0,.92.9h7.166a.928.928,0,0,0,.92-.911l.134-10.4A1.878,1.878,0,0,0,276.426,596.239Z" transform="translate(-217.144 -357.946)" fill="#e6e6e6"/><rect width="6.837" height="3.419" transform="translate(51.413 242.231)" fill="#fff"/><path d="M307.79,581.733h-3a.4.4,0,0,0-.4.4v1.317a.4.4,0,0,0,.4.4h.5v1.973h2.006v-1.973h.5a.4.4,0,0,0,.4-.4v-1.317a.4.4,0,0,0-.4-.4Z" transform="translate(-237.549 -355.491)" fill="#e6e6e6"/><path d="M307.426,596.239a15.422,15.422,0,0,1-2.683-9.144.325.325,0,0,0-.254-.325V586.2h-3.168v.561h-.044a.325.325,0,0,0-.325.326c0,.008,0,.016,0,.024a14.075,14.075,0,0,1-2.528,9.36.9.9,0,0,0-.162.543l.346,10.716a.928.928,0,0,0,.92.9h7.166a.928.928,0,0,0,.92-.911l.133-10.4A1.878,1.878,0,0,0,307.426,596.239Z" transform="translate(-234.18 -357.946)" fill="#e6e6e6"/><rect width="6.837" height="3.419" transform="translate(65.377 242.231)" fill="#fff"/><path d="M392.829,523.613h-6.324a.839.839,0,0,0-.838.839v2.776a.839.839,0,0,0,.838.839h1.048v4.159h4.228v-4.159h1.048a.839.839,0,0,0,.838-.839v-2.776A.839.839,0,0,0,392.829,523.613Z" transform="translate(-282.213 -323.551)" fill="#e6e6e6"/><path d="M392.061,554.195a32.513,32.513,0,0,1-5.656-19.276.686.686,0,0,0-.535-.684v-1.2h-6.679v1.183H379.1a.685.685,0,0,0-.684.686c0,.017,0,.033,0,.05a29.671,29.671,0,0,1-5.33,19.733,1.889,1.889,0,0,0-.342,1.145l.73,22.591a1.956,1.956,0,0,0,1.939,1.887H390.52a1.956,1.956,0,0,0,1.94-1.921l.281-21.934a3.958,3.958,0,0,0-.681-2.26Z" transform="translate(-275.111 -328.729)" fill="#e6e6e6"/><path d="M392.631,596.668H379.482a1.35,1.35,0,0,0-1.334,1.555l1.987,12.916h11.41l2.414-12.872a1.35,1.35,0,0,0-1.327-1.6Z" transform="translate(-278.072 -363.698)" fill="#fff"/><path d="M363.241,278.987h-37.7c2.636-14.249,2.029-31.456,0-49.96h37.7C361.266,247.532,360.676,264.738,363.241,278.987Z" transform="translate(-249.173 -161.661)" fill="#e6e6e6"/><circle cx="9.084" cy="9.084" r="9.084" transform="translate(86.363 81.899)" fill="#fff"/><path d="M286.611,426.2h-37.7c2.636-14.249,2.029-31.456,0-49.96h37.7C284.636,394.741,284.046,411.948,286.611,426.2Z" transform="translate(-207.061 -242.561)" fill="#e6e6e6"/><circle cx="9.084" cy="9.084" r="9.084" transform="translate(51.845 148.21)" fill="#fff"/><path d="M410.63,286.045h-37.7c2.636-14.249,2.029-31.456,0-49.96h37.7C408.655,254.59,408.065,271.8,410.63,286.045Z" transform="translate(-275.215 -165.54)" fill="#e6e6e6"/><circle cx="9.084" cy="9.084" r="9.084" transform="translate(107.71 85.079)" fill="#fff"/><path d="M410.63,281h-37.7c2.636-14.249,2.029-31.456,0-49.96h37.7C408.655,249.548,408.065,266.755,410.63,281Z" transform="translate(-275.215 -162.77)" fill="#e6e6e6"/><circle cx="9.084" cy="9.084" r="9.084" transform="translate(107.71 82.807)" fill="#fff"/><path d="M410.63,286.045h-37.7c2.636-14.249,2.029-31.456,0-49.96h37.7C408.655,254.59,408.065,271.8,410.63,286.045Z" transform="translate(-275.215 -165.54)" fill="#e6e6e6"/><circle cx="9.084" cy="9.084" r="9.084" transform="translate(107.71 85.079)" fill="#fff"/><rect width="123.538" height="13.626" transform="translate(20.507 114.601)" fill="#e6e6e6"/><rect width="123.538" height="13.626" transform="translate(20.507 182.274)" fill="#e6e6e6"/><rect width="123.538" height="13.626" transform="translate(20.507 249.947)" fill="#e6e6e6"/><path d="M915.307,680.756,884.53,658.987c10.38-10.112,19.821-24.51,28.849-40.789l30.777,21.768C931.859,653.933,921.44,667.641,915.307,680.756Z" transform="translate(-556.363 -375.53)" fill="#fdb415"/><circle cx="9.084" cy="9.084" r="9.084" transform="translate(349.868 263.882)" fill="#fff"/><path d="M618.594,536.554h-3.378a.448.448,0,0,0-.448.448v1.483a.448.448,0,0,0,.448.448h.56v2.222h2.259v-2.222h.56a.448.448,0,0,0,.448-.448V537a.448.448,0,0,0-.448-.448Z" transform="translate(-408.115 -330.663)" fill="#e6e6e6"/><path d="M618.184,552.891a17.369,17.369,0,0,1-3.022-10.3.366.366,0,0,0-.286-.366v-.641h-3.568v.632h-.049a.366.366,0,0,0-.366.367c0,.009,0,.018,0,.027a15.851,15.851,0,0,1-2.848,10.542,1.009,1.009,0,0,0-.183.611l.39,12.068a1.045,1.045,0,0,0,1.036,1.008h8.07a1.045,1.045,0,0,0,1.036-1.026l.15-11.717A2.115,2.115,0,0,0,618.184,552.891Z" transform="translate(-404.321 -333.429)" fill="#fdb415"/><path d="M619.341,537.627a.966.966,0,0,1-1.933,0" transform="translate(-409.567 -331.252)" opacity="0.2"/><rect width="6.813" height="4.542" transform="translate(205.478 221.788)" fill="#fff"/><path d="M851.864,641.218H845.54a.838.838,0,0,0-.838.838v2.776a.838.838,0,0,0,.838.838h1.048v4.159h4.228v-4.159h1.048a.838.838,0,0,0,.838-.838v-2.776a.838.838,0,0,0-.838-.838Z" transform="translate(-534.475 -388.181)" fill="#e6e6e6"/><path d="M851.1,671.8a32.513,32.513,0,0,1-5.656-19.276.686.686,0,0,0-.535-.684v-1.2h-6.679v1.183h-.092a.685.685,0,0,0-.684.686c0,.017,0,.033,0,.05a29.671,29.671,0,0,1-5.33,19.733,1.889,1.889,0,0,0-.342,1.145l.73,22.591a1.956,1.956,0,0,0,1.939,1.888h15.107a1.956,1.956,0,0,0,1.94-1.921l.281-21.934A3.959,3.959,0,0,0,851.1,671.8Z" transform="translate(-527.373 -393.358)" fill="#fdb415"/><path d="M853.262,643.226a1.809,1.809,0,0,1-3.618,0" transform="translate(-537.192 -389.284)" opacity="0.2"/><path d="M851.666,714.273H838.517a1.35,1.35,0,0,0-1.334,1.555l1.987,12.916h11.41l2.414-12.872a1.35,1.35,0,0,0-1.327-1.6Z" transform="translate(-530.335 -428.328)" fill="#fff"/><path d="M774.555,696.045h-37.7c2.635-14.249,2.029-31.456,0-49.96h37.7C772.58,664.589,771.99,681.8,774.555,696.045Z" transform="translate(-475.21 -390.855)" fill="#fdb415"/><circle cx="9.084" cy="9.084" r="9.084" transform="translate(271.64 269.763)" fill="#fff"/><path d="M322.243,305l8.463-.769,5.386-13.078-9.617-5.386Z" transform="translate(-177.088 -157.044)" fill="#ffb8b8"/><path d="M627.212,478.717h0a4.772,4.772,0,0,0-4.145-6.539l-13.14-.784-1.935,6.433,13.526,3.715A4.772,4.772,0,0,0,627.212,478.717Z" transform="translate(-404.392 -294.854)" fill="#ffb8b8"/><path d="M540.379,439.215l-.145-12.072-29.186-4.657L488.564,396.7a7.36,7.36,0,0,0-9.592-1.312h0a7.359,7.359,0,0,0-1.282,11.226l18.549,22.828Z" transform="translate(-331.667 -252.419)" fill="#575a89"/><path d="M463.726,637.021h7.693L490.5,550.744,510.271,577.4l11.54,57.7h7.309l-1.539-61.932L501.808,507H476.42c-6.938,12.556-12.38,25.5-6.155,38.852Z" transform="translate(-325.111 -314.423)" fill="#2f2e41"/><path d="M582.092,796.427A2.008,2.008,0,0,0,583.658,799l18.826,3.341A3.1,3.1,0,0,0,606,800.22h0a3.078,3.078,0,0,0-1.505-3.66,28.786,28.786,0,0,1-10.382-9.026c-2.069,1.927-4.382,1.746-6.837.326l-2.6.326Z" transform="translate(-390.109 -468.589)" fill="#2f2e41"/><path d="M455.707,796.427A2.008,2.008,0,0,0,457.272,799l18.826,3.341a3.1,3.1,0,0,0,3.514-2.123h0a3.078,3.078,0,0,0-1.505-3.66,28.786,28.786,0,0,1-10.382-9.026c-2.069,1.927-4.382,1.746-6.837.326l-2.6.326Z" transform="translate(-320.653 -468.589)" fill="#2f2e41"/><circle cx="10.771" cy="10.771" r="10.771" transform="translate(148.424 117.377)" fill="#ffb8b8"/><path d="M477.565,445.124l28.081-.769L497.4,418.4c5.125-8.216-.033-16.423-7.332-24.629l-5.77-3.847-9.232-.769h0a22.664,22.664,0,0,0-6.1,15.788A101.708,101.708,0,0,0,477.565,445.124Z" transform="translate(-327.986 -249.66)" fill="#575a89"/><path d="M610.161,535.683h0a4.772,4.772,0,0,0-1.238-7.642l-11.772-5.89-4.309,5.154,10.974,8.736a4.772,4.772,0,0,0,6.345-.358Z" transform="translate(-396.066 -322.748)" fill="#ffb8b8"/><path d="M544.7,467.086l4.616-11.155-25-15.763-10.527-32.553a7.36,7.36,0,0,0-8.3-4.979h0a7.36,7.36,0,0,0-5.595,9.817l8.074,28.284Z" transform="translate(-344.729 -257.004)" fill="#575a89"/><path d="M470.13,338.913c0,4.191,2.722,10.681,6.155,13.463,2.31,1.872,5.362,1.793,6.539-.769a30.486,30.486,0,0,1,12.694-12.694c9.765-5.181-3.463-14.046-12.694-12.694C475.887,327.235,470.13,331.9,470.13,338.913Z" transform="translate(-328.63 -214.997)" fill="#2f2e41"/><circle cx="7.693" cy="7.693" r="7.693" transform="translate(140.346 102.759)" fill="#2f2e41"/><path d="M495.607,309.317a7.689,7.689,0,0,0-7.116-7.664c.191-.014.382-.029.577-.029a7.693,7.693,0,0,1,0,15.387c-.195,0-.386-.015-.577-.029A7.689,7.689,0,0,0,495.607,309.317Z" transform="translate(-338.72 -201.557)" fill="#2f2e41"/><ellipse cx="1.731" cy="2.308" rx="1.731" ry="2.308" transform="translate(157.657 127.378)" fill="#ffb8b8"/><path d="M634.3,532.019H514.534L489.173,412.131H467.529v-5.379h26L518.894,526.64H634.3Z" transform="translate(-256.93 -223.53)" fill="#3f3d56"/><circle cx="11.528" cy="11.528" r="11.528" transform="translate(263.626 307.336)" fill="#3f3d56"/><circle cx="11.528" cy="11.528" r="11.528" transform="translate(349.699 307.336)" fill="#3f3d56"/><path d="M821.665,634.745H705.143l-20.559-101.6H840.958a5.525,5.525,0,0,1,5.458,6.381l-19.294,90.552A5.5,5.5,0,0,1,821.665,634.745Zm-115.257-1.537H821.665a3.966,3.966,0,0,0,3.938-3.368L844.9,539.288a3.987,3.987,0,0,0-3.939-4.606H686.45Z" transform="translate(-446.483 -328.789)" fill="#3f3d56"/><path d="M608.087,555.729,594.623,455.347l1.516-.25L609.6,555.478Z" transform="translate(-326.775 -250.098)" fill="#3f3d56"/><path d="M788.861,554.961l-1.518-.246L800.414,455.1l1.518.246Z" transform="translate(-432.684 -250.101)" fill="#3f3d56"/><rect width="1.537" height="100.381" transform="translate(318.971 205.124)" fill="#3f3d56"/><rect width="1.537" height="148.782" transform="translate(245.949 233.558) rotate(-89.861)" fill="#3f3d56"/><rect width="130.711" height="1.537" transform="translate(253.53 280.395) rotate(-0.392)" fill="#3f3d56"/><ellipse cx="8.454" cy="4.611" rx="8.454" ry="4.611" transform="translate(204.451 180.532)" fill="#3f3d56"/></svg>