<svg xmlns="http://www.w3.org/2000/svg" width="50.003" height="43.86" viewBox="0 0 50.003 43.86"><g transform="translate(-4.999 -8.07)"><path d="M8.209,41.68H31.1a3,3,0,0,1-.62-2.04,13.058,13.058,0,0,1,.88-3.86,2.984,2.984,0,0,1,1.67-1.69,2.925,2.925,0,0,1,1.11-.22A2.8,2.8,0,0,1,35,34a1.987,1.987,0,0,0,.19-.2.8.8,0,0,0,.13-.23,2.966,2.966,0,0,1,.97-3.95,12.749,12.749,0,0,1,3.52-1.7,2.931,2.931,0,0,1,.88-.13,2.986,2.986,0,0,1,2.78,1.85.854.854,0,0,0,.27.04,1.565,1.565,0,0,0,.27-.03,2.916,2.916,0,0,1,.73-1.05V18.51H5V38.46A3.222,3.222,0,0,0,8.209,41.68Z" fill="#fdb415"/><path d="M41.659,30.53a1,1,0,0,0-.48-.62,1.011,1.011,0,0,0-.78-.08,11.094,11.094,0,0,0-3.02,1.46,1,1,0,0,0-.43.66,1.031,1.031,0,0,0,.19.76,2.082,2.082,0,0,1-.39,2.34,2.068,2.068,0,0,1-2.2.91.963.963,0,0,0-.78-.01.978.978,0,0,0-.55.56,11.03,11.03,0,0,0-.74,3.27,1,1,0,0,0,.25.74,1.011,1.011,0,0,0,.71.33,2.451,2.451,0,0,1,.92,4.05.95.95,0,0,0-.49.6.963.963,0,0,0,.09.78,11.478,11.478,0,0,0,2.09,2.62.992.992,0,0,0,1.44-.08,2.051,2.051,0,0,1,2.37-.13,2.041,2.041,0,0,1,1.37,1.93.986.986,0,0,0,.17.76.958.958,0,0,0,.66.41,10.456,10.456,0,0,0,1.68.14,10.339,10.339,0,0,0,1.67-.14,1.015,1.015,0,0,0,.67-.41.986.986,0,0,0,.17-.76,1.1,1.1,0,0,1-.02-.18,2.158,2.158,0,0,1,1.39-1.75,2.035,2.035,0,0,1,2.36.13,1,1,0,0,0,.71.34.985.985,0,0,0,.73-.26,11.214,11.214,0,0,0,2.09-2.62,1.012,1.012,0,0,0,.1-.78,1,1,0,0,0-.5-.6,2.1,2.1,0,0,1-.65-2.28,2.044,2.044,0,0,1,1.58-1.77,1.03,1.03,0,0,0,.71-.33,1,1,0,0,0,.25-.74,11.364,11.364,0,0,0-.75-3.27.934.934,0,0,0-.54-.56.987.987,0,0,0-.79.01,2.06,2.06,0,0,1-2.19-.91,2.082,2.082,0,0,1-.39-2.34,1,1,0,0,0-.24-1.42,11.094,11.094,0,0,0-3.02-1.46,1.031,1.031,0,0,0-.79.08,1,1,0,0,0-.48.62,2.058,2.058,0,0,1-2.07,1.15A2.084,2.084,0,0,1,41.659,30.53Zm7.05,10.1a4.97,4.97,0,1,1-4.97-4.97A4.976,4.976,0,0,1,48.709,40.63Z" fill="#fdb415"/><path d="M44.739,11.28a3.214,3.214,0,0,0-3.21-3.21H8.209A3.214,3.214,0,0,0,5,11.28v5.23h39.74Zm-33.77,1.714a1.036,1.036,0,0,1-.71.29,1,1,0,0,1-.7-1.71,1.035,1.035,0,0,1,1.41,0,1.015,1.015,0,0,1,0,1.42Zm3.39,0a1.008,1.008,0,0,1-.7.29,1.055,1.055,0,0,1-.711-.29.991.991,0,0,1-.289-.71,1.01,1.01,0,0,1,.289-.71,1.035,1.035,0,0,1,1.41,0,.989.989,0,0,1,0,1.42Zm3.4,0a1.014,1.014,0,0,1-1.42,0,1,1,0,1,1,1.42,0Zm21.714.3H24.909a1,1,0,1,1,0-2H39.472a1,1,0,0,1,0,2Z" fill="#fdb415"/></g></svg>